<svg width="158" height="210" viewBox="0 0 158 210" fill="none" xmlns="http://www.w3.org/2000/svg">
<path d="M78.75 209.29C78.6126 209.15 78.4363 208.971 78.223 208.753C77.6476 208.165 76.8031 207.295 75.7279 206.168C73.5775 203.916 70.5047 200.638 66.817 196.541C59.441 188.345 49.6074 176.872 39.775 163.762C29.9414 150.651 20.1165 135.912 12.7519 121.183C5.38324 106.445 0.5 91.7617 0.5 78.75C0.5 35.4511 35.4511 0.5 78.75 0.5C122.049 0.5 157 35.4511 157 78.75C157 91.7617 152.117 106.445 144.748 121.183C137.383 135.912 127.559 150.651 117.725 163.762C107.893 176.872 98.059 188.345 90.683 196.541C86.9953 200.638 83.9225 203.916 81.7721 206.168C80.6969 207.295 79.8524 208.165 79.277 208.753C79.0637 208.971 78.8874 209.15 78.75 209.29ZM131.75 78.75C131.75 49.6005 108.165 25.75 78.75 25.75C49.5989 25.75 25.75 49.5989 25.75 78.75C25.75 108.165 49.6005 131.75 78.75 131.75C108.164 131.75 131.75 108.164 131.75 78.75Z" fill="white" stroke="#E5E5E1"/>
</svg>
