<svg width="674" height="395" viewBox="0 0 674 395" fill="none" xmlns="http://www.w3.org/2000/svg">
<g filter="url(#filter0_d_947_539)">
<rect x="4" width="666" height="387" rx="27" fill="white"/>
</g>
<path d="M174.085 196.318C172.585 196.318 171.248 196.061 170.074 195.545C168.907 195.03 167.979 194.314 167.29 193.398C166.608 192.473 166.237 191.402 166.176 190.182H169.04C169.1 190.932 169.358 191.58 169.812 192.125C170.267 192.663 170.862 193.08 171.597 193.375C172.331 193.67 173.146 193.818 174.04 193.818C175.04 193.818 175.926 193.644 176.699 193.295C177.472 192.947 178.078 192.462 178.517 191.841C178.956 191.22 179.176 190.5 179.176 189.682C179.176 188.826 178.964 188.072 178.54 187.42C178.116 186.761 177.494 186.246 176.676 185.875C175.858 185.504 174.858 185.318 173.676 185.318H171.812V182.818H173.676C174.6 182.818 175.411 182.652 176.108 182.318C176.813 181.985 177.362 181.515 177.756 180.909C178.157 180.303 178.358 179.591 178.358 178.773C178.358 177.985 178.184 177.299 177.835 176.716C177.487 176.133 176.994 175.678 176.358 175.352C175.729 175.027 174.987 174.864 174.131 174.864C173.328 174.864 172.57 175.011 171.858 175.307C171.153 175.595 170.578 176.015 170.131 176.568C169.684 177.114 169.441 177.773 169.403 178.545H166.676C166.722 177.326 167.089 176.258 167.778 175.341C168.468 174.417 169.369 173.697 170.483 173.182C171.604 172.667 172.835 172.409 174.176 172.409C175.616 172.409 176.85 172.701 177.881 173.284C178.911 173.86 179.703 174.621 180.256 175.568C180.809 176.515 181.085 177.538 181.085 178.636C181.085 179.947 180.741 181.064 180.051 181.989C179.369 182.913 178.441 183.553 177.267 183.909V184.091C178.737 184.333 179.884 184.958 180.71 185.966C181.536 186.966 181.949 188.205 181.949 189.682C181.949 190.947 181.604 192.083 180.915 193.091C180.233 194.091 179.301 194.879 178.119 195.455C176.938 196.03 175.593 196.318 174.085 196.318ZM191.778 196.409C190.672 196.409 189.669 196.201 188.767 195.784C187.866 195.36 187.15 194.75 186.619 193.955C186.089 193.152 185.824 192.182 185.824 191.045C185.824 190.045 186.021 189.235 186.415 188.614C186.809 187.985 187.335 187.492 187.994 187.136C188.653 186.78 189.381 186.515 190.176 186.341C190.979 186.159 191.786 186.015 192.597 185.909C193.657 185.773 194.517 185.67 195.176 185.602C195.843 185.527 196.328 185.402 196.631 185.227C196.941 185.053 197.097 184.75 197.097 184.318V184.227C197.097 183.106 196.79 182.235 196.176 181.614C195.57 180.992 194.65 180.682 193.415 180.682C192.134 180.682 191.131 180.962 190.403 181.523C189.676 182.083 189.165 182.682 188.869 183.318L186.324 182.409C186.778 181.348 187.384 180.523 188.142 179.932C188.907 179.333 189.741 178.917 190.642 178.682C191.551 178.439 192.445 178.318 193.324 178.318C193.884 178.318 194.528 178.386 195.256 178.523C195.991 178.652 196.699 178.92 197.381 179.33C198.07 179.739 198.642 180.356 199.097 181.182C199.551 182.008 199.778 183.114 199.778 184.5V196H197.097V193.636H196.96C196.778 194.015 196.475 194.42 196.051 194.852C195.627 195.284 195.063 195.652 194.358 195.955C193.653 196.258 192.794 196.409 191.778 196.409ZM192.188 194C193.248 194 194.142 193.792 194.869 193.375C195.604 192.958 196.157 192.42 196.528 191.761C196.907 191.102 197.097 190.409 197.097 189.682V187.227C196.983 187.364 196.733 187.489 196.347 187.602C195.968 187.708 195.528 187.803 195.028 187.886C194.536 187.962 194.055 188.03 193.585 188.091C193.123 188.144 192.748 188.189 192.46 188.227C191.763 188.318 191.112 188.466 190.506 188.67C189.907 188.867 189.422 189.167 189.051 189.568C188.688 189.962 188.506 190.5 188.506 191.182C188.506 192.114 188.85 192.818 189.54 193.295C190.237 193.765 191.119 194 192.188 194ZM215.173 196V181H210.537C209.491 181 208.67 181.242 208.071 181.727C207.473 182.212 207.173 182.879 207.173 183.727C207.173 184.561 207.442 185.216 207.98 185.693C208.526 186.17 209.272 186.409 210.219 186.409H215.855V188.909H210.219C209.037 188.909 208.018 188.701 207.162 188.284C206.306 187.867 205.647 187.273 205.185 186.5C204.723 185.72 204.491 184.795 204.491 183.727C204.491 182.652 204.734 181.727 205.219 180.955C205.704 180.182 206.397 179.587 207.298 179.17C208.207 178.754 209.287 178.545 210.537 178.545H217.719V196H215.173ZM203.537 196L208.491 187.318H211.401L206.446 196H203.537ZM222.642 196V178.545H229.778C231.657 178.545 233.15 178.97 234.256 179.818C235.362 180.667 235.915 181.788 235.915 183.182C235.915 184.242 235.6 185.064 234.972 185.648C234.343 186.223 233.536 186.614 232.551 186.818C233.195 186.909 233.82 187.136 234.426 187.5C235.04 187.864 235.547 188.364 235.949 189C236.35 189.629 236.551 190.402 236.551 191.318C236.551 192.212 236.324 193.011 235.869 193.716C235.415 194.42 234.763 194.977 233.915 195.386C233.066 195.795 232.051 196 230.869 196H222.642ZM225.188 193.545H230.869C231.794 193.545 232.517 193.326 233.04 192.886C233.563 192.447 233.824 191.848 233.824 191.091C233.824 190.189 233.563 189.481 233.04 188.966C232.517 188.443 231.794 188.182 230.869 188.182H225.188V193.545ZM225.188 185.864H229.778C230.498 185.864 231.116 185.765 231.631 185.568C232.146 185.364 232.54 185.076 232.812 184.705C233.093 184.326 233.233 183.879 233.233 183.364C233.233 182.629 232.926 182.053 232.312 181.636C231.699 181.212 230.854 181 229.778 181H225.188V185.864ZM240.611 196V178.545H243.293V186.136H245.065L251.338 178.545H254.793L247.747 186.955L254.884 196H251.429L245.702 188.636H243.293V196H240.611ZM262.935 196.409C261.829 196.409 260.825 196.201 259.923 195.784C259.022 195.36 258.306 194.75 257.776 193.955C257.245 193.152 256.98 192.182 256.98 191.045C256.98 190.045 257.177 189.235 257.571 188.614C257.965 187.985 258.491 187.492 259.151 187.136C259.81 186.78 260.537 186.515 261.332 186.341C262.135 186.159 262.942 186.015 263.753 185.909C264.813 185.773 265.673 185.67 266.332 185.602C266.999 185.527 267.484 185.402 267.787 185.227C268.098 185.053 268.253 184.75 268.253 184.318V184.227C268.253 183.106 267.946 182.235 267.332 181.614C266.726 180.992 265.806 180.682 264.571 180.682C263.291 180.682 262.287 180.962 261.56 181.523C260.832 182.083 260.321 182.682 260.026 183.318L257.48 182.409C257.935 181.348 258.541 180.523 259.298 179.932C260.063 179.333 260.897 178.917 261.798 178.682C262.707 178.439 263.601 178.318 264.48 178.318C265.041 178.318 265.685 178.386 266.412 178.523C267.147 178.652 267.855 178.92 268.537 179.33C269.226 179.739 269.798 180.356 270.253 181.182C270.707 182.008 270.935 183.114 270.935 184.5V196H268.253V193.636H268.116C267.935 194.015 267.632 194.42 267.207 194.852C266.783 195.284 266.219 195.652 265.514 195.955C264.81 196.258 263.95 196.409 262.935 196.409ZM263.344 194C264.404 194 265.298 193.792 266.026 193.375C266.76 192.958 267.313 192.42 267.685 191.761C268.063 191.102 268.253 190.409 268.253 189.682V187.227C268.139 187.364 267.889 187.489 267.503 187.602C267.124 187.708 266.685 187.803 266.185 187.886C265.692 187.962 265.211 188.03 264.741 188.091C264.279 188.144 263.904 188.189 263.616 188.227C262.92 188.318 262.268 188.466 261.662 188.67C261.063 188.867 260.579 189.167 260.207 189.568C259.844 189.962 259.662 190.5 259.662 191.182C259.662 192.114 260.007 192.818 260.696 193.295C261.393 193.765 262.276 194 263.344 194ZM291.92 196.364C290.345 196.364 288.962 195.989 287.773 195.239C286.591 194.489 285.667 193.439 285 192.091C284.341 190.742 284.011 189.167 284.011 187.364C284.011 185.545 284.341 183.958 285 182.602C285.667 181.246 286.591 180.193 287.773 179.443C288.962 178.693 290.345 178.318 291.92 178.318C293.496 178.318 294.875 178.693 296.057 179.443C297.246 180.193 298.17 181.246 298.83 182.602C299.496 183.958 299.83 185.545 299.83 187.364C299.83 189.167 299.496 190.742 298.83 192.091C298.17 193.439 297.246 194.489 296.057 195.239C294.875 195.989 293.496 196.364 291.92 196.364ZM291.92 193.955C293.117 193.955 294.102 193.648 294.875 193.034C295.648 192.42 296.22 191.614 296.591 190.614C296.962 189.614 297.148 188.53 297.148 187.364C297.148 186.197 296.962 185.11 296.591 184.102C296.22 183.095 295.648 182.28 294.875 181.659C294.102 181.038 293.117 180.727 291.92 180.727C290.723 180.727 289.739 181.038 288.966 181.659C288.193 182.28 287.621 183.095 287.25 184.102C286.879 185.11 286.693 186.197 286.693 187.364C286.693 188.53 286.879 189.614 287.25 190.614C287.621 191.614 288.193 192.42 288.966 193.034C289.739 193.648 290.723 193.955 291.92 193.955ZM302.06 201V193.5H303.514C303.87 193.129 304.177 192.727 304.435 192.295C304.692 191.864 304.916 191.352 305.105 190.761C305.302 190.163 305.469 189.436 305.605 188.58C305.741 187.716 305.863 186.674 305.969 185.455L306.56 178.545H317.651V193.5H320.332V201H317.651V196H304.741V201H302.06ZM306.56 193.5H314.969V181.045H309.06L308.605 185.455C308.416 187.28 308.181 188.875 307.901 190.239C307.62 191.602 307.173 192.689 306.56 193.5ZM330.983 196.364C329.407 196.364 328.025 195.989 326.835 195.239C325.653 194.489 324.729 193.439 324.062 192.091C323.403 190.742 323.074 189.167 323.074 187.364C323.074 185.545 323.403 183.958 324.062 182.602C324.729 181.246 325.653 180.193 326.835 179.443C328.025 178.693 329.407 178.318 330.983 178.318C332.559 178.318 333.938 178.693 335.119 179.443C336.309 180.193 337.233 181.246 337.892 182.602C338.559 183.958 338.892 185.545 338.892 187.364C338.892 189.167 338.559 190.742 337.892 192.091C337.233 193.439 336.309 194.489 335.119 195.239C333.938 195.989 332.559 196.364 330.983 196.364ZM330.983 193.955C332.18 193.955 333.165 193.648 333.938 193.034C334.71 192.42 335.282 191.614 335.653 190.614C336.025 189.614 336.21 188.53 336.21 187.364C336.21 186.197 336.025 185.11 335.653 184.102C335.282 183.095 334.71 182.28 333.938 181.659C333.165 181.038 332.18 180.727 330.983 180.727C329.786 180.727 328.801 181.038 328.028 181.659C327.256 182.28 326.684 183.095 326.312 184.102C325.941 185.11 325.756 186.197 325.756 187.364C325.756 188.53 325.941 189.614 326.312 190.614C326.684 191.614 327.256 192.42 328.028 193.034C328.801 193.648 329.786 193.955 330.983 193.955ZM355.94 172L357.304 173.636C356.774 174.152 356.16 174.511 355.463 174.716C354.766 174.92 353.978 175.045 353.099 175.091C352.221 175.136 351.243 175.182 350.168 175.227C348.955 175.273 347.952 175.568 347.156 176.114C346.361 176.659 345.747 177.447 345.315 178.477C344.884 179.508 344.607 180.773 344.486 182.273H344.713C345.304 181.182 346.122 180.379 347.168 179.864C348.213 179.348 349.334 179.091 350.531 179.091C351.895 179.091 353.122 179.409 354.213 180.045C355.304 180.682 356.168 181.625 356.804 182.875C357.44 184.125 357.759 185.667 357.759 187.5C357.759 189.326 357.433 190.902 356.781 192.227C356.137 193.553 355.232 194.576 354.065 195.295C352.906 196.008 351.546 196.364 349.986 196.364C348.425 196.364 347.058 195.996 345.884 195.261C344.709 194.519 343.796 193.42 343.145 191.966C342.493 190.504 342.168 188.697 342.168 186.545V184.682C342.168 180.795 342.827 177.848 344.145 175.841C345.471 173.833 347.463 172.795 350.122 172.727C351.062 172.697 351.899 172.689 352.634 172.705C353.368 172.72 354.009 172.686 354.554 172.602C355.099 172.519 355.562 172.318 355.94 172ZM349.986 193.955C351.039 193.955 351.944 193.689 352.702 193.159C353.467 192.629 354.054 191.883 354.463 190.92C354.872 189.951 355.077 188.811 355.077 187.5C355.077 186.227 354.868 185.144 354.452 184.25C354.043 183.356 353.455 182.674 352.69 182.205C351.925 181.735 351.009 181.5 349.94 181.5C349.16 181.5 348.459 181.633 347.838 181.898C347.217 182.163 346.687 182.553 346.247 183.068C345.808 183.583 345.467 184.212 345.224 184.955C344.99 185.697 344.865 186.545 344.849 187.5C344.849 189.455 345.308 191.019 346.224 192.193C347.141 193.367 348.395 193.955 349.986 193.955ZM361.861 202.545V178.545H364.452V181.318H364.77C364.967 181.015 365.24 180.629 365.588 180.159C365.944 179.682 366.452 179.258 367.111 178.886C367.777 178.508 368.679 178.318 369.815 178.318C371.285 178.318 372.58 178.686 373.702 179.42C374.823 180.155 375.698 181.197 376.327 182.545C376.955 183.894 377.27 185.485 377.27 187.318C377.27 189.167 376.955 190.769 376.327 192.125C375.698 193.473 374.827 194.519 373.713 195.261C372.599 195.996 371.315 196.364 369.861 196.364C368.74 196.364 367.842 196.178 367.168 195.807C366.493 195.428 365.974 195 365.611 194.523C365.247 194.038 364.967 193.636 364.77 193.318H364.543V202.545H361.861ZM364.497 187.273C364.497 188.591 364.69 189.754 365.077 190.761C365.463 191.761 366.027 192.545 366.77 193.114C367.512 193.674 368.421 193.955 369.497 193.955C370.618 193.955 371.554 193.659 372.304 193.068C373.062 192.47 373.63 191.667 374.009 190.659C374.395 189.644 374.588 188.515 374.588 187.273C374.588 186.045 374.399 184.939 374.02 183.955C373.649 182.962 373.084 182.178 372.327 181.602C371.577 181.019 370.634 180.727 369.497 180.727C368.406 180.727 367.49 181.004 366.747 181.557C366.005 182.102 365.444 182.867 365.065 183.852C364.687 184.83 364.497 185.97 364.497 187.273ZM388.679 196.364C386.997 196.364 385.546 195.992 384.327 195.25C383.115 194.5 382.179 193.455 381.52 192.114C380.868 190.765 380.543 189.197 380.543 187.409C380.543 185.621 380.868 184.045 381.52 182.682C382.179 181.311 383.096 180.242 384.27 179.477C385.452 178.705 386.83 178.318 388.406 178.318C389.315 178.318 390.213 178.47 391.099 178.773C391.986 179.076 392.793 179.568 393.52 180.25C394.247 180.924 394.827 181.818 395.259 182.932C395.69 184.045 395.906 185.417 395.906 187.045V188.182H382.452V185.864H393.179C393.179 184.879 392.982 184 392.588 183.227C392.202 182.455 391.649 181.845 390.929 181.398C390.217 180.951 389.376 180.727 388.406 180.727C387.338 180.727 386.414 180.992 385.634 181.523C384.861 182.045 384.266 182.727 383.849 183.568C383.433 184.409 383.224 185.311 383.224 186.273V187.818C383.224 189.136 383.452 190.254 383.906 191.17C384.368 192.08 385.009 192.773 385.827 193.25C386.645 193.72 387.596 193.955 388.679 193.955C389.384 193.955 390.02 193.856 390.588 193.659C391.164 193.455 391.66 193.152 392.077 192.75C392.493 192.341 392.815 191.833 393.043 191.227L395.634 191.955C395.361 192.833 394.902 193.606 394.259 194.273C393.615 194.932 392.819 195.447 391.872 195.818C390.925 196.182 389.861 196.364 388.679 196.364ZM411.668 186.045V188.545H402.031V186.045H411.668ZM402.668 178.545V196H399.986V178.545H402.668ZM413.713 178.545V196H411.031V178.545H413.713ZM423.747 196.409C422.641 196.409 421.637 196.201 420.736 195.784C419.834 195.36 419.118 194.75 418.588 193.955C418.058 193.152 417.793 192.182 417.793 191.045C417.793 190.045 417.99 189.235 418.384 188.614C418.777 187.985 419.304 187.492 419.963 187.136C420.622 186.78 421.349 186.515 422.145 186.341C422.948 186.159 423.755 186.015 424.565 185.909C425.626 185.773 426.486 185.67 427.145 185.602C427.812 185.527 428.296 185.402 428.599 185.227C428.91 185.053 429.065 184.75 429.065 184.318V184.227C429.065 183.106 428.759 182.235 428.145 181.614C427.539 180.992 426.618 180.682 425.384 180.682C424.103 180.682 423.099 180.962 422.372 181.523C421.645 182.083 421.134 182.682 420.838 183.318L418.293 182.409C418.747 181.348 419.353 180.523 420.111 179.932C420.876 179.333 421.709 178.917 422.611 178.682C423.52 178.439 424.414 178.318 425.293 178.318C425.853 178.318 426.497 178.386 427.224 178.523C427.959 178.652 428.668 178.92 429.349 179.33C430.039 179.739 430.611 180.356 431.065 181.182C431.52 182.008 431.747 183.114 431.747 184.5V196H429.065V193.636H428.929C428.747 194.015 428.444 194.42 428.02 194.852C427.596 195.284 427.031 195.652 426.327 195.955C425.622 196.258 424.762 196.409 423.747 196.409ZM424.156 194C425.217 194 426.111 193.792 426.838 193.375C427.573 192.958 428.126 192.42 428.497 191.761C428.876 191.102 429.065 190.409 429.065 189.682V187.227C428.952 187.364 428.702 187.489 428.315 187.602C427.937 187.708 427.497 187.803 426.997 187.886C426.505 187.962 426.024 188.03 425.554 188.091C425.092 188.144 424.717 188.189 424.429 188.227C423.732 188.318 423.08 188.466 422.474 188.67C421.876 188.867 421.391 189.167 421.02 189.568C420.656 189.962 420.474 190.5 420.474 191.182C420.474 192.114 420.819 192.818 421.509 193.295C422.205 193.765 423.088 194 424.156 194Z" fill="black"/>
<path d="M465.473 189.45L469.655 184.93L481.305 197.877L510.929 165.51L515.115 170.033L481.306 206.208L465.473 189.45Z" fill="#BAE0BD"/>
<path d="M510.931 166.02L514.644 170.031L481.305 205.703L465.947 189.447L469.653 185.443L480.831 197.865L481.304 198.391L481.781 197.869L510.931 166.02ZM510.928 165L481.308 197.363L469.659 184.418L465 189.452L481.308 206.713L515.588 170.034L510.928 165Z" fill="#5E9C76"/>
<defs>
<filter id="filter0_d_947_539" x="0" y="0" width="674" height="395" filterUnits="userSpaceOnUse" color-interpolation-filters="sRGB">
<feFlood flood-opacity="0" result="BackgroundImageFix"/>
<feColorMatrix in="SourceAlpha" type="matrix" values="0 0 0 0 0 0 0 0 0 0 0 0 0 0 0 0 0 0 127 0" result="hardAlpha"/>
<feOffset dy="4"/>
<feGaussianBlur stdDeviation="2"/>
<feComposite in2="hardAlpha" operator="out"/>
<feColorMatrix type="matrix" values="0 0 0 0 0 0 0 0 0 0 0 0 0 0 0 0 0 0 0.25 0"/>
<feBlend mode="normal" in2="BackgroundImageFix" result="effect1_dropShadow_947_539"/>
<feBlend mode="normal" in="SourceGraphic" in2="effect1_dropShadow_947_539" result="shape"/>
</filter>
</defs>
</svg>
