<svg width="674" height="395" viewBox="0 0 674 395" fill="none" xmlns="http://www.w3.org/2000/svg">
<g filter="url(#filter0_d_1077_1524)">
<rect x="4" width="666" height="387" rx="27" fill="white"/>
</g>
<path d="M167.507 196.318C166.007 196.318 164.67 196.061 163.496 195.545C162.329 195.03 161.401 194.314 160.712 193.398C160.03 192.473 159.659 191.402 159.598 190.182H162.462C162.522 190.932 162.78 191.58 163.234 192.125C163.689 192.663 164.284 193.08 165.018 193.375C165.753 193.67 166.568 193.818 167.462 193.818C168.462 193.818 169.348 193.644 170.121 193.295C170.893 192.947 171.5 192.462 171.939 191.841C172.378 191.22 172.598 190.5 172.598 189.682C172.598 188.826 172.386 188.072 171.962 187.42C171.537 186.761 170.916 186.246 170.098 185.875C169.28 185.504 168.28 185.318 167.098 185.318H165.234V182.818H167.098C168.022 182.818 168.833 182.652 169.53 182.318C170.234 181.985 170.784 181.515 171.178 180.909C171.579 180.303 171.78 179.591 171.78 178.773C171.78 177.985 171.606 177.299 171.257 176.716C170.909 176.133 170.416 175.678 169.78 175.352C169.151 175.027 168.409 174.864 167.553 174.864C166.75 174.864 165.992 175.011 165.28 175.307C164.575 175.595 164 176.015 163.553 176.568C163.106 177.114 162.863 177.773 162.825 178.545H160.098C160.143 177.326 160.511 176.258 161.2 175.341C161.89 174.417 162.791 173.697 163.905 173.182C165.026 172.667 166.257 172.409 167.598 172.409C169.037 172.409 170.272 172.701 171.303 173.284C172.333 173.86 173.125 174.621 173.678 175.568C174.231 176.515 174.507 177.538 174.507 178.636C174.507 179.947 174.162 181.064 173.473 181.989C172.791 182.913 171.863 183.553 170.689 183.909V184.091C172.159 184.333 173.306 184.958 174.132 185.966C174.958 186.966 175.371 188.205 175.371 189.682C175.371 190.947 175.026 192.083 174.337 193.091C173.655 194.091 172.723 194.879 171.541 195.455C170.359 196.03 169.015 196.318 167.507 196.318ZM185.2 196.409C184.094 196.409 183.09 196.201 182.189 195.784C181.287 195.36 180.571 194.75 180.041 193.955C179.511 193.152 179.246 192.182 179.246 191.045C179.246 190.045 179.443 189.235 179.837 188.614C180.231 187.985 180.757 187.492 181.416 187.136C182.075 186.78 182.803 186.515 183.598 186.341C184.401 186.159 185.208 186.015 186.018 185.909C187.079 185.773 187.939 185.67 188.598 185.602C189.265 185.527 189.75 185.402 190.053 185.227C190.363 185.053 190.518 184.75 190.518 184.318V184.227C190.518 183.106 190.212 182.235 189.598 181.614C188.992 180.992 188.071 180.682 186.837 180.682C185.556 180.682 184.553 180.962 183.825 181.523C183.098 182.083 182.587 182.682 182.291 183.318L179.746 182.409C180.2 181.348 180.806 180.523 181.564 179.932C182.329 179.333 183.162 178.917 184.064 178.682C184.973 178.439 185.867 178.318 186.746 178.318C187.306 178.318 187.95 178.386 188.678 178.523C189.412 178.652 190.121 178.92 190.803 179.33C191.492 179.739 192.064 180.356 192.518 181.182C192.973 182.008 193.2 183.114 193.2 184.5V196H190.518V193.636H190.382C190.2 194.015 189.897 194.42 189.473 194.852C189.049 195.284 188.484 195.652 187.78 195.955C187.075 196.258 186.215 196.409 185.2 196.409ZM185.609 194C186.67 194 187.564 193.792 188.291 193.375C189.026 192.958 189.579 192.42 189.95 191.761C190.329 191.102 190.518 190.409 190.518 189.682V187.227C190.405 187.364 190.155 187.489 189.768 187.602C189.39 187.708 188.95 187.803 188.45 187.886C187.958 187.962 187.477 188.03 187.007 188.091C186.545 188.144 186.17 188.189 185.882 188.227C185.185 188.318 184.534 188.466 183.928 188.67C183.329 188.867 182.844 189.167 182.473 189.568C182.109 189.962 181.928 190.5 181.928 191.182C181.928 192.114 182.272 192.818 182.962 193.295C183.659 193.765 184.541 194 185.609 194ZM208.595 196V181H203.959C202.913 181 202.091 181.242 201.493 181.727C200.894 182.212 200.595 182.879 200.595 183.727C200.595 184.561 200.864 185.216 201.402 185.693C201.947 186.17 202.694 186.409 203.641 186.409H209.277V188.909H203.641C202.459 188.909 201.44 188.701 200.584 188.284C199.728 187.867 199.069 187.273 198.607 186.5C198.144 185.72 197.913 184.795 197.913 183.727C197.913 182.652 198.156 181.727 198.641 180.955C199.125 180.182 199.819 179.587 200.72 179.17C201.629 178.754 202.709 178.545 203.959 178.545H211.141V196H208.595ZM196.959 196L201.913 187.318H204.822L199.868 196H196.959ZM216.064 196V178.545H223.2C225.079 178.545 226.571 178.97 227.678 179.818C228.784 180.667 229.337 181.788 229.337 183.182C229.337 184.242 229.022 185.064 228.393 185.648C227.765 186.223 226.958 186.614 225.973 186.818C226.617 186.909 227.242 187.136 227.848 187.5C228.462 187.864 228.969 188.364 229.371 189C229.772 189.629 229.973 190.402 229.973 191.318C229.973 192.212 229.746 193.011 229.291 193.716C228.837 194.42 228.185 194.977 227.337 195.386C226.488 195.795 225.473 196 224.291 196H216.064ZM218.609 193.545H224.291C225.215 193.545 225.939 193.326 226.462 192.886C226.984 192.447 227.246 191.848 227.246 191.091C227.246 190.189 226.984 189.481 226.462 188.966C225.939 188.443 225.215 188.182 224.291 188.182H218.609V193.545ZM218.609 185.864H223.2C223.92 185.864 224.537 185.765 225.053 185.568C225.568 185.364 225.962 185.076 226.234 184.705C226.515 184.326 226.655 183.879 226.655 183.364C226.655 182.629 226.348 182.053 225.734 181.636C225.121 181.212 224.276 181 223.2 181H218.609V185.864ZM234.033 196V178.545H236.714V186.136H238.487L244.76 178.545H248.214L241.169 186.955L248.305 196H244.851L239.124 188.636H236.714V196H234.033ZM256.357 196.409C255.25 196.409 254.247 196.201 253.345 195.784C252.444 195.36 251.728 194.75 251.197 193.955C250.667 193.152 250.402 192.182 250.402 191.045C250.402 190.045 250.599 189.235 250.993 188.614C251.387 187.985 251.913 187.492 252.572 187.136C253.232 186.78 253.959 186.515 254.754 186.341C255.557 186.159 256.364 186.015 257.175 185.909C258.235 185.773 259.095 185.67 259.754 185.602C260.421 185.527 260.906 185.402 261.209 185.227C261.519 185.053 261.675 184.75 261.675 184.318V184.227C261.675 183.106 261.368 182.235 260.754 181.614C260.148 180.992 259.228 180.682 257.993 180.682C256.713 180.682 255.709 180.962 254.982 181.523C254.254 182.083 253.743 182.682 253.447 183.318L250.902 182.409C251.357 181.348 251.963 180.523 252.72 179.932C253.485 179.333 254.319 178.917 255.22 178.682C256.129 178.439 257.023 178.318 257.902 178.318C258.463 178.318 259.107 178.386 259.834 178.523C260.569 178.652 261.277 178.92 261.959 179.33C262.648 179.739 263.22 180.356 263.675 181.182C264.129 182.008 264.357 183.114 264.357 184.5V196H261.675V193.636H261.538C261.357 194.015 261.054 194.42 260.629 194.852C260.205 195.284 259.641 195.652 258.936 195.955C258.232 196.258 257.372 196.409 256.357 196.409ZM256.766 194C257.826 194 258.72 193.792 259.447 193.375C260.182 192.958 260.735 192.42 261.107 191.761C261.485 191.102 261.675 190.409 261.675 189.682V187.227C261.561 187.364 261.311 187.489 260.925 187.602C260.546 187.708 260.107 187.803 259.607 187.886C259.114 187.962 258.633 188.03 258.163 188.091C257.701 188.144 257.326 188.189 257.038 188.227C256.341 188.318 255.69 188.466 255.084 188.67C254.485 188.867 254 189.167 253.629 189.568C253.266 189.962 253.084 190.5 253.084 191.182C253.084 192.114 253.429 192.818 254.118 193.295C254.815 193.765 255.697 194 256.766 194ZM285.342 196.364C283.767 196.364 282.384 195.989 281.195 195.239C280.013 194.489 279.089 193.439 278.422 192.091C277.763 190.742 277.433 189.167 277.433 187.364C277.433 185.545 277.763 183.958 278.422 182.602C279.089 181.246 280.013 180.193 281.195 179.443C282.384 178.693 283.767 178.318 285.342 178.318C286.918 178.318 288.297 178.693 289.479 179.443C290.668 180.193 291.592 181.246 292.251 182.602C292.918 183.958 293.251 185.545 293.251 187.364C293.251 189.167 292.918 190.742 292.251 192.091C291.592 193.439 290.668 194.489 289.479 195.239C288.297 195.989 286.918 196.364 285.342 196.364ZM285.342 193.955C286.539 193.955 287.524 193.648 288.297 193.034C289.07 192.42 289.642 191.614 290.013 190.614C290.384 189.614 290.57 188.53 290.57 187.364C290.57 186.197 290.384 185.11 290.013 184.102C289.642 183.095 289.07 182.28 288.297 181.659C287.524 181.038 286.539 180.727 285.342 180.727C284.145 180.727 283.161 181.038 282.388 181.659C281.615 182.28 281.043 183.095 280.672 184.102C280.301 185.11 280.115 186.197 280.115 187.364C280.115 188.53 280.301 189.614 280.672 190.614C281.043 191.614 281.615 192.42 282.388 193.034C283.161 193.648 284.145 193.955 285.342 193.955ZM295.064 181.045V178.545H309.246V181.045H303.518V196H300.837V181.045H295.064ZM313.158 196V178.545H315.839V186.136H317.612L323.885 178.545H327.339L320.294 186.955L327.43 196H323.976L318.249 188.636H315.839V196H313.158ZM328.8 196V193.5H329.436C329.959 193.5 330.394 193.398 330.743 193.193C331.091 192.981 331.372 192.614 331.584 192.091C331.804 191.561 331.97 190.826 332.084 189.886C332.205 188.939 332.292 187.735 332.345 186.273L332.663 178.545H344.3V196H341.618V181.045H335.209L334.936 187.273C334.875 188.705 334.747 189.966 334.55 191.057C334.36 192.14 334.069 193.049 333.675 193.784C333.288 194.519 332.773 195.072 332.129 195.443C331.485 195.814 330.679 196 329.709 196H328.8ZM356.311 196.364C354.735 196.364 353.353 195.989 352.163 195.239C350.982 194.489 350.057 193.439 349.391 192.091C348.732 190.742 348.402 189.167 348.402 187.364C348.402 185.545 348.732 183.958 349.391 182.602C350.057 181.246 350.982 180.193 352.163 179.443C353.353 178.693 354.735 178.318 356.311 178.318C357.887 178.318 359.266 178.693 360.447 179.443C361.637 180.193 362.561 181.246 363.22 182.602C363.887 183.958 364.22 185.545 364.22 187.364C364.22 189.167 363.887 190.742 363.22 192.091C362.561 193.439 361.637 194.489 360.447 195.239C359.266 195.989 357.887 196.364 356.311 196.364ZM356.311 193.955C357.508 193.955 358.493 193.648 359.266 193.034C360.038 192.42 360.61 191.614 360.982 190.614C361.353 189.614 361.538 188.53 361.538 187.364C361.538 186.197 361.353 185.11 360.982 184.102C360.61 183.095 360.038 182.28 359.266 181.659C358.493 181.038 357.508 180.727 356.311 180.727C355.114 180.727 354.129 181.038 353.357 181.659C352.584 182.28 352.012 183.095 351.641 184.102C351.269 185.11 351.084 186.197 351.084 187.364C351.084 188.53 351.269 189.614 351.641 190.614C352.012 191.614 352.584 192.42 353.357 193.034C354.129 193.648 355.114 193.955 356.311 193.955ZM379.996 186.045V188.545H370.359V186.045H379.996ZM370.996 178.545V196H368.314V178.545H370.996ZM382.041 178.545V196H379.359V178.545H382.041ZM394.257 196.364C392.575 196.364 391.125 195.992 389.905 195.25C388.693 194.5 387.757 193.455 387.098 192.114C386.446 190.765 386.121 189.197 386.121 187.409C386.121 185.621 386.446 184.045 387.098 182.682C387.757 181.311 388.674 180.242 389.848 179.477C391.03 178.705 392.409 178.318 393.984 178.318C394.893 178.318 395.791 178.47 396.678 178.773C397.564 179.076 398.371 179.568 399.098 180.25C399.825 180.924 400.405 181.818 400.837 182.932C401.268 184.045 401.484 185.417 401.484 187.045V188.182H388.03V185.864H398.757C398.757 184.879 398.56 184 398.166 183.227C397.78 182.455 397.227 181.845 396.507 181.398C395.795 180.951 394.954 180.727 393.984 180.727C392.916 180.727 391.992 180.992 391.212 181.523C390.439 182.045 389.844 182.727 389.428 183.568C389.011 184.409 388.803 185.311 388.803 186.273V187.818C388.803 189.136 389.03 190.254 389.484 191.17C389.946 192.08 390.587 192.773 391.405 193.25C392.223 193.72 393.174 193.955 394.257 193.955C394.962 193.955 395.598 193.856 396.166 193.659C396.742 193.455 397.238 193.152 397.655 192.75C398.071 192.341 398.393 191.833 398.621 191.227L401.212 191.955C400.939 192.833 400.481 193.606 399.837 194.273C399.193 194.932 398.397 195.447 397.45 195.818C396.503 196.182 395.439 196.364 394.257 196.364ZM417.246 186.045V188.545H407.609V186.045H417.246ZM408.246 178.545V196H405.564V178.545H408.246ZM419.291 178.545V196H416.609V178.545H419.291ZM429.325 196.409C428.219 196.409 427.215 196.201 426.314 195.784C425.412 195.36 424.696 194.75 424.166 193.955C423.636 193.152 423.371 192.182 423.371 191.045C423.371 190.045 423.568 189.235 423.962 188.614C424.356 187.985 424.882 187.492 425.541 187.136C426.2 186.78 426.928 186.515 427.723 186.341C428.526 186.159 429.333 186.015 430.143 185.909C431.204 185.773 432.064 185.67 432.723 185.602C433.39 185.527 433.875 185.402 434.178 185.227C434.488 185.053 434.643 184.75 434.643 184.318V184.227C434.643 183.106 434.337 182.235 433.723 181.614C433.117 180.992 432.196 180.682 430.962 180.682C429.681 180.682 428.678 180.962 427.95 181.523C427.223 182.083 426.712 182.682 426.416 183.318L423.871 182.409C424.325 181.348 424.931 180.523 425.689 179.932C426.454 179.333 427.287 178.917 428.189 178.682C429.098 178.439 429.992 178.318 430.871 178.318C431.431 178.318 432.075 178.386 432.803 178.523C433.537 178.652 434.246 178.92 434.928 179.33C435.617 179.739 436.189 180.356 436.643 181.182C437.098 182.008 437.325 183.114 437.325 184.5V196H434.643V193.636H434.507C434.325 194.015 434.022 194.42 433.598 194.852C433.174 195.284 432.609 195.652 431.905 195.955C431.2 196.258 430.34 196.409 429.325 196.409ZM429.734 194C430.795 194 431.689 193.792 432.416 193.375C433.151 192.958 433.704 192.42 434.075 191.761C434.454 191.102 434.643 190.409 434.643 189.682V187.227C434.53 187.364 434.28 187.489 433.893 187.602C433.515 187.708 433.075 187.803 432.575 187.886C432.083 187.962 431.602 188.03 431.132 188.091C430.67 188.144 430.295 188.189 430.007 188.227C429.31 188.318 428.659 188.466 428.053 188.67C427.454 188.867 426.969 189.167 426.598 189.568C426.234 189.962 426.053 190.5 426.053 191.182C426.053 192.114 426.397 192.818 427.087 193.295C427.784 193.765 428.666 194 429.734 194Z" fill="black"/>
<rect x="465" y="202.355" width="50" height="6" transform="rotate(-45 465 202.355)" fill="#FF0000"/>
<rect x="469.443" y="167.201" width="50" height="6" transform="rotate(45 469.443 167.201)" fill="#FF0000"/>
<defs>
<filter id="filter0_d_1077_1524" x="0" y="0" width="674" height="395" filterUnits="userSpaceOnUse" color-interpolation-filters="sRGB">
<feFlood flood-opacity="0" result="BackgroundImageFix"/>
<feColorMatrix in="SourceAlpha" type="matrix" values="0 0 0 0 0 0 0 0 0 0 0 0 0 0 0 0 0 0 127 0" result="hardAlpha"/>
<feOffset dy="4"/>
<feGaussianBlur stdDeviation="2"/>
<feComposite in2="hardAlpha" operator="out"/>
<feColorMatrix type="matrix" values="0 0 0 0 0 0 0 0 0 0 0 0 0 0 0 0 0 0 0.25 0"/>
<feBlend mode="normal" in2="BackgroundImageFix" result="effect1_dropShadow_1077_1524"/>
<feBlend mode="normal" in="SourceGraphic" in2="effect1_dropShadow_1077_1524" result="shape"/>
</filter>
</defs>
</svg>
