<svg width="27" height="26" viewBox="0 0 27 26" fill="none" xmlns="http://www.w3.org/2000/svg">
<path d="M13.5 0C6.0615 0 0 5.7999 0 12.9174C0 20.0349 6.0615 25.8348 13.5 25.8348C20.9385 25.8348 27 20.0349 27 12.9174C27 5.7999 20.9385 0 13.5 0ZM19.953 9.94638L12.2985 17.2705C12.1095 17.4514 11.853 17.5547 11.583 17.5547C11.313 17.5547 11.0565 17.4514 10.8675 17.2705L7.047 13.6149C6.6555 13.2403 6.6555 12.6203 7.047 12.2457C7.4385 11.8711 8.0865 11.8711 8.478 12.2457L11.583 15.2167L18.522 8.57714C18.9135 8.20254 19.5615 8.20254 19.953 8.57714C20.3445 8.95174 20.3445 9.55886 19.953 9.94638Z" fill="#2F9E34"/>
</svg>
