<svg width="563" height="300" viewBox="0 0 563 300" fill="none" xmlns="http://www.w3.org/2000/svg">
<g filter="url(#filter0_d_1608_661)">
<rect x="4" width="555" height="292" rx="27" fill="white"/>
</g>
<path d="M149.626 100.273C149.626 102.114 149.294 103.705 148.629 105.045C147.964 106.386 147.052 107.42 145.893 108.148C144.734 108.875 143.41 109.239 141.922 109.239C140.433 109.239 139.109 108.875 137.95 108.148C136.791 107.42 135.879 106.386 135.214 105.045C134.549 103.705 134.217 102.114 134.217 100.273C134.217 98.4318 134.549 96.8409 135.214 95.5C135.879 94.1591 136.791 93.125 137.95 92.3977C139.109 91.6705 140.433 91.3068 141.922 91.3068C143.41 91.3068 144.734 91.6705 145.893 92.3977C147.052 93.125 147.964 94.1591 148.629 95.5C149.294 96.8409 149.626 98.4318 149.626 100.273ZM147.581 100.273C147.581 98.7614 147.328 97.4858 146.822 96.446C146.322 95.4062 145.643 94.6193 144.785 94.0852C143.933 93.5511 142.978 93.2841 141.922 93.2841C140.865 93.2841 139.907 93.5511 139.049 94.0852C138.197 94.6193 137.518 95.4062 137.012 96.446C136.512 97.4858 136.262 98.7614 136.262 100.273C136.262 101.784 136.512 103.06 137.012 104.099C137.518 105.139 138.197 105.926 139.049 106.46C139.907 106.994 140.865 107.261 141.922 107.261C142.978 107.261 143.933 106.994 144.785 106.46C145.643 105.926 146.322 105.139 146.822 104.099C147.328 103.06 147.581 101.784 147.581 100.273ZM154.919 106.034L161.225 95.9091H163.544V109H161.532V98.875L155.26 109H152.907V95.9091H154.919V106.034ZM159.896 91.5455H161.771C161.771 92.4659 161.453 93.2188 160.816 93.804C160.18 94.3892 159.316 94.6818 158.225 94.6818C157.152 94.6818 156.297 94.3892 155.66 93.804C155.029 93.2188 154.714 92.4659 154.714 91.5455H156.589C156.589 91.9886 156.711 92.3778 156.956 92.7131C157.206 93.0483 157.629 93.2159 158.225 93.2159C158.822 93.2159 159.248 93.0483 159.504 92.7131C159.765 92.3778 159.896 91.9886 159.896 91.5455ZM170.228 106.614L170.091 107.534C169.995 108.182 169.847 108.875 169.648 109.614C169.455 110.352 169.253 111.048 169.043 111.702C168.833 112.355 168.659 112.875 168.523 113.261H166.989C167.063 112.898 167.159 112.418 167.279 111.821C167.398 111.224 167.517 110.557 167.637 109.818C167.762 109.085 167.864 108.335 167.944 107.568L168.046 106.614H170.228ZM190.795 95.9091V109H188.784V95.9091H190.795ZM190.011 102.148V104.023C189.556 104.193 189.105 104.344 188.656 104.474C188.207 104.599 187.735 104.699 187.241 104.773C186.747 104.841 186.204 104.875 185.613 104.875C184.13 104.875 182.94 104.474 182.042 103.673C181.15 102.872 180.704 101.67 180.704 100.068V95.875H182.716V100.068C182.716 100.739 182.843 101.29 183.099 101.722C183.355 102.153 183.701 102.474 184.139 102.685C184.576 102.895 185.068 103 185.613 103C186.466 103 187.235 102.923 187.923 102.77C188.616 102.611 189.312 102.403 190.011 102.148ZM192.704 97.7841V95.9091H203.341V97.7841H199.045V109H197.034V97.7841H192.704ZM210.913 109.273C209.731 109.273 208.694 108.991 207.802 108.429C206.916 107.866 206.223 107.08 205.723 106.068C205.228 105.057 204.981 103.875 204.981 102.523C204.981 101.159 205.228 99.9687 205.723 98.9517C206.223 97.9347 206.916 97.1449 207.802 96.5824C208.694 96.0199 209.731 95.7386 210.913 95.7386C212.095 95.7386 213.129 96.0199 214.015 96.5824C214.907 97.1449 215.6 97.9347 216.095 98.9517C216.595 99.9687 216.845 101.159 216.845 102.523C216.845 103.875 216.595 105.057 216.095 106.068C215.6 107.08 214.907 107.866 214.015 108.429C213.129 108.991 212.095 109.273 210.913 109.273ZM210.913 107.466C211.811 107.466 212.549 107.236 213.129 106.776C213.708 106.315 214.137 105.71 214.416 104.96C214.694 104.21 214.833 103.398 214.833 102.523C214.833 101.648 214.694 100.832 214.416 100.077C214.137 99.321 213.708 98.7102 213.129 98.2443C212.549 97.7784 211.811 97.5455 210.913 97.5455C210.015 97.5455 209.277 97.7784 208.697 98.2443C208.118 98.7102 207.689 99.321 207.41 100.077C207.132 100.832 206.993 101.648 206.993 102.523C206.993 103.398 207.132 104.21 207.41 104.96C207.689 105.71 208.118 106.315 208.697 106.776C209.277 107.236 210.015 107.466 210.913 107.466ZM227.415 100.58V102.455H219.779V100.58H227.415ZM229.525 97.7841V95.9091H240.161V97.7841H235.865V109H233.854V97.7841H229.525ZM247.733 109.273C246.551 109.273 245.515 108.991 244.623 108.429C243.736 107.866 243.043 107.08 242.543 106.068C242.049 105.057 241.801 103.875 241.801 102.523C241.801 101.159 242.049 99.9687 242.543 98.9517C243.043 97.9347 243.736 97.1449 244.623 96.5824C245.515 96.0199 246.551 95.7386 247.733 95.7386C248.915 95.7386 249.949 96.0199 250.836 96.5824C251.728 97.1449 252.421 97.9347 252.915 98.9517C253.415 99.9687 253.665 101.159 253.665 102.523C253.665 103.875 253.415 105.057 252.915 106.068C252.421 107.08 251.728 107.866 250.836 108.429C249.949 108.991 248.915 109.273 247.733 109.273ZM247.733 107.466C248.631 107.466 249.37 107.236 249.949 106.776C250.529 106.315 250.958 105.71 251.236 104.96C251.515 104.21 251.654 103.398 251.654 102.523C251.654 101.648 251.515 100.832 251.236 100.077C250.958 99.321 250.529 98.7102 249.949 98.2443C249.37 97.7784 248.631 97.5455 247.733 97.5455C246.836 97.5455 246.097 97.7784 245.517 98.2443C244.938 98.7102 244.509 99.321 244.23 100.077C243.952 100.832 243.813 101.648 243.813 102.523C243.813 103.398 243.952 104.21 244.23 104.96C244.509 105.71 244.938 106.315 245.517 106.776C246.097 107.236 246.836 107.466 247.733 107.466ZM263.485 109V95.9091H273.781V109H271.77V97.7841H265.497V109H263.485ZM282.772 109.273C281.591 109.273 280.554 108.991 279.662 108.429C278.775 107.866 278.082 107.08 277.582 106.068C277.088 105.057 276.841 103.875 276.841 102.523C276.841 101.159 277.088 99.9687 277.582 98.9517C278.082 97.9347 278.775 97.1449 279.662 96.5824C280.554 96.0199 281.591 95.7386 282.772 95.7386C283.954 95.7386 284.988 96.0199 285.875 96.5824C286.767 97.1449 287.46 97.9347 287.954 98.9517C288.454 99.9687 288.704 101.159 288.704 102.523C288.704 103.875 288.454 105.057 287.954 106.068C287.46 107.08 286.767 107.866 285.875 108.429C284.988 108.991 283.954 109.273 282.772 109.273ZM282.772 107.466C283.67 107.466 284.409 107.236 284.988 106.776C285.568 106.315 285.997 105.71 286.275 104.96C286.554 104.21 286.693 103.398 286.693 102.523C286.693 101.648 286.554 100.832 286.275 100.077C285.997 99.321 285.568 98.7102 284.988 98.2443C284.409 97.7784 283.67 97.5455 282.772 97.5455C281.875 97.5455 281.136 97.7784 280.556 98.2443C279.977 98.7102 279.548 99.321 279.27 100.077C278.991 100.832 278.852 101.648 278.852 102.523C278.852 103.398 278.991 104.21 279.27 104.96C279.548 105.71 279.977 106.315 280.556 106.776C281.136 107.236 281.875 107.466 282.772 107.466ZM291.775 95.9091H293.786V107.125H298.729V95.9091H300.74V107.125H305.684V95.9091H307.695V109H291.775V95.9091ZM310.209 109V107.125H310.686C311.078 107.125 311.405 107.048 311.667 106.895C311.928 106.736 312.138 106.46 312.297 106.068C312.462 105.67 312.587 105.119 312.672 104.415C312.763 103.705 312.828 102.801 312.868 101.705L313.107 95.9091H321.834V109H319.823V97.7841H315.016L314.811 102.455C314.766 103.528 314.669 104.474 314.522 105.293C314.38 106.105 314.161 106.787 313.865 107.338C313.576 107.889 313.189 108.304 312.706 108.582C312.223 108.861 311.618 109 310.891 109H310.209ZM330.843 109.273C329.661 109.273 328.624 108.991 327.732 108.429C326.846 107.866 326.152 107.08 325.652 106.068C325.158 105.057 324.911 103.875 324.911 102.523C324.911 101.159 325.158 99.9687 325.652 98.9517C326.152 97.9347 326.846 97.1449 327.732 96.5824C328.624 96.0199 329.661 95.7386 330.843 95.7386C332.025 95.7386 333.059 96.0199 333.945 96.5824C334.837 97.1449 335.53 97.9347 336.025 98.9517C336.525 99.9687 336.775 101.159 336.775 102.523C336.775 103.875 336.525 105.057 336.025 106.068C335.53 107.08 334.837 107.866 333.945 108.429C333.059 108.991 332.025 109.273 330.843 109.273ZM330.843 107.466C331.74 107.466 332.479 107.236 333.059 106.776C333.638 106.315 334.067 105.71 334.346 104.96C334.624 104.21 334.763 103.398 334.763 102.523C334.763 101.648 334.624 100.832 334.346 100.077C334.067 99.321 333.638 98.7102 333.059 98.2443C332.479 97.7784 331.74 97.5455 330.843 97.5455C329.945 97.5455 329.206 97.7784 328.627 98.2443C328.047 98.7102 327.618 99.321 327.34 100.077C327.061 100.832 326.922 101.648 326.922 102.523C326.922 103.398 327.061 104.21 327.34 104.96C327.618 105.71 328.047 106.315 328.627 106.776C329.206 107.236 329.945 107.466 330.843 107.466ZM355.356 101.534V103.409H348.129V101.534H355.356ZM348.606 95.9091V109H346.595V95.9091H348.606ZM356.89 95.9091V109H354.879V95.9091H356.89ZM366.052 109.273C364.791 109.273 363.703 108.994 362.788 108.438C361.879 107.875 361.177 107.091 360.683 106.085C360.194 105.074 359.95 103.898 359.95 102.557C359.95 101.216 360.194 100.034 360.683 99.0114C361.177 97.983 361.865 97.1818 362.745 96.608C363.632 96.0284 364.666 95.7386 365.848 95.7386C366.529 95.7386 367.203 95.8523 367.868 96.0795C368.532 96.3068 369.137 96.6761 369.683 97.1875C370.228 97.6932 370.663 98.3636 370.987 99.1989C371.311 100.034 371.473 101.062 371.473 102.284V103.136H361.382V101.398H369.427C369.427 100.659 369.279 100 368.984 99.4205C368.694 98.8409 368.279 98.3835 367.74 98.0483C367.206 97.7131 366.575 97.5455 365.848 97.5455C365.047 97.5455 364.353 97.7443 363.768 98.142C363.189 98.5341 362.743 99.0455 362.43 99.6761C362.118 100.307 361.961 100.983 361.961 101.705V102.864C361.961 103.852 362.132 104.69 362.473 105.378C362.819 106.06 363.299 106.58 363.913 106.938C364.527 107.29 365.24 107.466 366.052 107.466C366.581 107.466 367.058 107.392 367.484 107.244C367.916 107.091 368.288 106.864 368.6 106.562C368.913 106.256 369.154 105.875 369.325 105.42L371.268 105.966C371.064 106.625 370.72 107.205 370.237 107.705C369.754 108.199 369.157 108.585 368.447 108.864C367.737 109.136 366.939 109.273 366.052 109.273ZM380.532 97.7841V95.9091H391.169V97.7841H386.873V109H384.862V97.7841H380.532ZM397.275 109.307C396.446 109.307 395.693 109.151 395.017 108.838C394.341 108.52 393.804 108.062 393.406 107.466C393.008 106.864 392.809 106.136 392.809 105.284C392.809 104.534 392.957 103.926 393.252 103.46C393.548 102.989 393.943 102.619 394.437 102.352C394.931 102.085 395.477 101.886 396.074 101.756C396.676 101.619 397.281 101.511 397.889 101.432C398.684 101.33 399.329 101.253 399.824 101.202C400.324 101.145 400.687 101.051 400.914 100.92C401.147 100.79 401.264 100.562 401.264 100.239V100.17C401.264 99.3295 401.034 98.6761 400.574 98.2102C400.119 97.7443 399.429 97.5114 398.502 97.5114C397.542 97.5114 396.789 97.7216 396.244 98.142C395.699 98.5625 395.315 99.0114 395.093 99.4886L393.184 98.8068C393.525 98.0114 393.98 97.392 394.548 96.9489C395.122 96.5 395.747 96.1875 396.423 96.0114C397.105 95.8295 397.775 95.7386 398.434 95.7386C398.855 95.7386 399.338 95.7898 399.883 95.892C400.434 95.9886 400.966 96.1903 401.477 96.4972C401.994 96.804 402.423 97.267 402.764 97.8864C403.105 98.5057 403.275 99.3352 403.275 100.375V109H401.264V107.227H401.162C401.025 107.511 400.798 107.815 400.48 108.139C400.162 108.463 399.738 108.739 399.21 108.966C398.681 109.193 398.037 109.307 397.275 109.307ZM397.582 107.5C398.377 107.5 399.048 107.344 399.593 107.031C400.145 106.719 400.559 106.315 400.838 105.821C401.122 105.327 401.264 104.807 401.264 104.261V102.42C401.179 102.523 400.991 102.616 400.701 102.702C400.417 102.781 400.088 102.852 399.713 102.915C399.343 102.972 398.983 103.023 398.63 103.068C398.284 103.108 398.002 103.142 397.787 103.17C397.264 103.239 396.775 103.349 396.321 103.503C395.872 103.651 395.508 103.875 395.23 104.176C394.957 104.472 394.821 104.875 394.821 105.386C394.821 106.085 395.079 106.614 395.596 106.972C396.119 107.324 396.781 107.5 397.582 107.5ZM406.946 109V95.9091H408.958V101.602H410.287L414.992 95.9091H417.583L412.299 102.216L417.651 109H415.06L410.765 103.477H408.958V109H406.946ZM421.303 109.136C420.882 109.136 420.522 108.986 420.221 108.685C419.919 108.384 419.769 108.023 419.769 107.602C419.769 107.182 419.919 106.821 420.221 106.52C420.522 106.219 420.882 106.068 421.303 106.068C421.723 106.068 422.084 106.219 422.385 106.52C422.686 106.821 422.837 107.182 422.837 107.602C422.837 107.881 422.766 108.136 422.624 108.369C422.488 108.602 422.303 108.79 422.07 108.932C421.843 109.068 421.587 109.136 421.303 109.136ZM427.912 109.136C427.492 109.136 427.131 108.986 426.83 108.685C426.529 108.384 426.378 108.023 426.378 107.602C426.378 107.182 426.529 106.821 426.83 106.52C427.131 106.219 427.492 106.068 427.912 106.068C428.333 106.068 428.694 106.219 428.995 106.52C429.296 106.821 429.446 107.182 429.446 107.602C429.446 107.881 429.375 108.136 429.233 108.369C429.097 108.602 428.912 108.79 428.679 108.932C428.452 109.068 428.196 109.136 427.912 109.136ZM107.078 138V120.545H113.181C114.397 120.545 115.4 120.756 116.189 121.176C116.979 121.591 117.567 122.151 117.953 122.855C118.34 123.554 118.533 124.33 118.533 125.182C118.533 125.932 118.4 126.551 118.132 127.04C117.871 127.528 117.525 127.915 117.093 128.199C116.667 128.483 116.203 128.693 115.703 128.83V129C116.238 129.034 116.775 129.222 117.314 129.562C117.854 129.903 118.306 130.392 118.669 131.028C119.033 131.665 119.215 132.443 119.215 133.364C119.215 134.239 119.016 135.026 118.618 135.724C118.221 136.423 117.593 136.977 116.735 137.386C115.877 137.795 114.76 138 113.385 138H107.078ZM109.192 136.125H113.385C114.766 136.125 115.746 135.858 116.326 135.324C116.911 134.784 117.203 134.131 117.203 133.364C117.203 132.773 117.053 132.227 116.752 131.727C116.451 131.222 116.022 130.818 115.465 130.517C114.908 130.21 114.249 130.057 113.488 130.057H109.192V136.125ZM109.192 128.216H113.113C113.749 128.216 114.323 128.091 114.834 127.841C115.351 127.591 115.76 127.239 116.061 126.784C116.368 126.33 116.522 125.795 116.522 125.182C116.522 124.415 116.255 123.764 115.721 123.23C115.186 122.69 114.34 122.42 113.181 122.42H109.192V128.216ZM124.154 129.648H127.904C129.438 129.648 130.611 130.037 131.424 130.815C132.236 131.594 132.642 132.58 132.642 133.773C132.642 134.557 132.461 135.27 132.097 135.912C131.733 136.548 131.199 137.057 130.495 137.438C129.79 137.812 128.926 138 127.904 138H122.415V124.909H124.426V136.125H127.904C128.699 136.125 129.353 135.915 129.864 135.494C130.375 135.074 130.631 134.534 130.631 133.875C130.631 133.182 130.375 132.616 129.864 132.179C129.353 131.741 128.699 131.523 127.904 131.523H124.154V129.648ZM134.722 138V124.909H136.733V138H134.722ZM155.926 130.534V132.409H148.699V130.534H155.926ZM149.176 124.909V138H147.165V124.909H149.176ZM157.461 124.909V138H155.449V124.909H157.461ZM166.623 138.273C165.361 138.273 164.273 137.994 163.358 137.438C162.449 136.875 161.748 136.091 161.253 135.085C160.765 134.074 160.52 132.898 160.52 131.557C160.52 130.216 160.765 129.034 161.253 128.011C161.748 126.983 162.435 126.182 163.316 125.608C164.202 125.028 165.236 124.739 166.418 124.739C167.1 124.739 167.773 124.852 168.438 125.08C169.103 125.307 169.708 125.676 170.253 126.188C170.799 126.693 171.233 127.364 171.557 128.199C171.881 129.034 172.043 130.062 172.043 131.284V132.136H161.952V130.398H169.998C169.998 129.659 169.85 129 169.554 128.42C169.265 127.841 168.85 127.384 168.31 127.048C167.776 126.713 167.145 126.545 166.418 126.545C165.617 126.545 164.924 126.744 164.338 127.142C163.759 127.534 163.313 128.045 163 128.676C162.688 129.307 162.532 129.983 162.532 130.705V131.864C162.532 132.852 162.702 133.69 163.043 134.378C163.39 135.06 163.87 135.58 164.483 135.938C165.097 136.29 165.81 136.466 166.623 136.466C167.151 136.466 167.628 136.392 168.054 136.244C168.486 136.091 168.858 135.864 169.171 135.562C169.483 135.256 169.725 134.875 169.895 134.42L171.838 134.966C171.634 135.625 171.29 136.205 170.807 136.705C170.324 137.199 169.728 137.585 169.017 137.864C168.307 138.136 167.509 138.273 166.623 138.273ZM187.171 138.273C185.944 138.273 184.887 137.983 184 137.403C183.114 136.824 182.432 136.026 181.955 135.009C181.478 133.991 181.239 132.83 181.239 131.523C181.239 130.193 181.483 129.02 181.972 128.003C182.466 126.98 183.154 126.182 184.034 125.608C184.921 125.028 185.955 124.739 187.137 124.739C188.057 124.739 188.887 124.909 189.625 125.25C190.364 125.591 190.969 126.068 191.441 126.682C191.912 127.295 192.205 128.011 192.319 128.83H190.307C190.154 128.233 189.813 127.705 189.284 127.244C188.762 126.778 188.057 126.545 187.171 126.545C186.387 126.545 185.699 126.75 185.108 127.159C184.523 127.562 184.066 128.134 183.736 128.872C183.412 129.605 183.25 130.466 183.25 131.455C183.25 132.466 183.409 133.347 183.728 134.097C184.051 134.847 184.506 135.429 185.091 135.844C185.682 136.259 186.375 136.466 187.171 136.466C187.694 136.466 188.168 136.375 188.594 136.193C189.02 136.011 189.381 135.75 189.676 135.409C189.972 135.068 190.182 134.659 190.307 134.182H192.319C192.205 134.955 191.924 135.651 191.475 136.27C191.032 136.884 190.444 137.372 189.711 137.736C188.983 138.094 188.137 138.273 187.171 138.273ZM202.418 135.273L206.986 124.909H208.895L203.236 138H201.6L196.043 124.909H197.918L202.418 135.273ZM197.27 124.909V138H195.259V124.909H197.27ZM207.566 138V124.909H209.577V138H207.566ZM218.577 138.273C217.395 138.273 216.358 137.991 215.466 137.429C214.58 136.866 213.887 136.08 213.387 135.068C212.892 134.057 212.645 132.875 212.645 131.523C212.645 130.159 212.892 128.969 213.387 127.952C213.887 126.935 214.58 126.145 215.466 125.582C216.358 125.02 217.395 124.739 218.577 124.739C219.759 124.739 220.793 125.02 221.679 125.582C222.571 126.145 223.265 126.935 223.759 127.952C224.259 128.969 224.509 130.159 224.509 131.523C224.509 132.875 224.259 134.057 223.759 135.068C223.265 136.08 222.571 136.866 221.679 137.429C220.793 137.991 219.759 138.273 218.577 138.273ZM218.577 136.466C219.475 136.466 220.213 136.236 220.793 135.776C221.373 135.315 221.801 134.71 222.08 133.96C222.358 133.21 222.498 132.398 222.498 131.523C222.498 130.648 222.358 129.832 222.08 129.077C221.801 128.321 221.373 127.71 220.793 127.244C220.213 126.778 219.475 126.545 218.577 126.545C217.679 126.545 216.941 126.778 216.361 127.244C215.782 127.71 215.353 128.321 215.074 129.077C214.796 129.832 214.657 130.648 214.657 131.523C214.657 132.398 214.796 133.21 215.074 133.96C215.353 134.71 215.782 135.315 216.361 135.776C216.941 136.236 217.679 136.466 218.577 136.466ZM235.659 124.909V126.784H229.591V138H227.579V124.909H235.659ZM236.334 138V136.125H236.811C237.203 136.125 237.53 136.048 237.792 135.895C238.053 135.736 238.263 135.46 238.422 135.068C238.587 134.67 238.712 134.119 238.797 133.415C238.888 132.705 238.953 131.801 238.993 130.705L239.232 124.909H247.959V138H245.948V126.784H241.141L240.936 131.455C240.891 132.528 240.794 133.474 240.647 134.293C240.505 135.105 240.286 135.787 239.99 136.338C239.701 136.889 239.314 137.304 238.831 137.582C238.348 137.861 237.743 138 237.016 138H236.334ZM253.661 135.034L259.968 124.909H262.286V138H260.275V127.875L254.002 138H251.65V124.909H253.661V135.034ZM271.322 141.75V136.125H272.413C272.68 135.847 272.91 135.545 273.103 135.222C273.297 134.898 273.464 134.514 273.606 134.071C273.754 133.622 273.879 133.077 273.981 132.435C274.083 131.787 274.174 131.006 274.254 130.091L274.697 124.909H283.015V136.125H285.027V141.75H283.015V138H273.333V141.75H271.322ZM274.697 136.125H281.004V126.784H276.572L276.231 130.091C276.089 131.46 275.913 132.656 275.703 133.679C275.493 134.702 275.157 135.517 274.697 136.125ZM293.015 138.273C291.833 138.273 290.796 137.991 289.904 137.429C289.017 136.866 288.324 136.08 287.824 135.068C287.33 134.057 287.083 132.875 287.083 131.523C287.083 130.159 287.33 128.969 287.824 127.952C288.324 126.935 289.017 126.145 289.904 125.582C290.796 125.02 291.833 124.739 293.015 124.739C294.196 124.739 295.23 125.02 296.117 125.582C297.009 126.145 297.702 126.935 298.196 127.952C298.696 128.969 298.946 130.159 298.946 131.523C298.946 132.875 298.696 134.057 298.196 135.068C297.702 136.08 297.009 136.866 296.117 137.429C295.23 137.991 294.196 138.273 293.015 138.273ZM293.015 136.466C293.912 136.466 294.651 136.236 295.23 135.776C295.81 135.315 296.239 134.71 296.517 133.96C296.796 133.21 296.935 132.398 296.935 131.523C296.935 130.648 296.796 129.832 296.517 129.077C296.239 128.321 295.81 127.71 295.23 127.244C294.651 126.778 293.912 126.545 293.015 126.545C292.117 126.545 291.378 126.778 290.799 127.244C290.219 127.71 289.79 128.321 289.512 129.077C289.233 129.832 289.094 130.648 289.094 131.523C289.094 132.398 289.233 133.21 289.512 133.96C289.79 134.71 290.219 135.315 290.799 135.776C291.378 136.236 292.117 136.466 293.015 136.466ZM311.733 120L312.755 121.227C312.358 121.614 311.897 121.884 311.375 122.037C310.852 122.19 310.261 122.284 309.602 122.318C308.943 122.352 308.21 122.386 307.403 122.42C306.494 122.455 305.741 122.676 305.145 123.085C304.548 123.494 304.088 124.085 303.764 124.858C303.44 125.631 303.233 126.58 303.142 127.705H303.312C303.755 126.886 304.369 126.284 305.153 125.898C305.937 125.511 306.778 125.318 307.676 125.318C308.699 125.318 309.619 125.557 310.437 126.034C311.255 126.511 311.903 127.219 312.38 128.156C312.858 129.094 313.096 130.25 313.096 131.625C313.096 132.994 312.852 134.176 312.363 135.17C311.88 136.165 311.201 136.932 310.326 137.472C309.457 138.006 308.437 138.273 307.267 138.273C306.096 138.273 305.071 137.997 304.19 137.446C303.309 136.889 302.625 136.065 302.136 134.974C301.647 133.878 301.403 132.523 301.403 130.909V129.511C301.403 126.597 301.897 124.386 302.886 122.881C303.88 121.375 305.375 120.597 307.369 120.545C308.074 120.523 308.701 120.517 309.252 120.528C309.804 120.54 310.284 120.514 310.693 120.452C311.102 120.389 311.449 120.239 311.733 120ZM307.267 136.466C308.056 136.466 308.735 136.267 309.304 135.869C309.877 135.472 310.318 134.912 310.625 134.19C310.931 133.463 311.085 132.608 311.085 131.625C311.085 130.67 310.929 129.858 310.616 129.188C310.309 128.517 309.869 128.006 309.295 127.653C308.721 127.301 308.034 127.125 307.233 127.125C306.647 127.125 306.122 127.224 305.656 127.423C305.19 127.622 304.792 127.915 304.463 128.301C304.133 128.687 303.877 129.159 303.696 129.716C303.52 130.273 303.426 130.909 303.414 131.625C303.414 133.091 303.758 134.264 304.446 135.145C305.133 136.026 306.074 136.466 307.267 136.466ZM320.025 138.307C319.196 138.307 318.443 138.151 317.767 137.838C317.091 137.52 316.554 137.062 316.156 136.466C315.758 135.864 315.559 135.136 315.559 134.284C315.559 133.534 315.707 132.926 316.002 132.46C316.298 131.989 316.693 131.619 317.187 131.352C317.681 131.085 318.227 130.886 318.824 130.756C319.426 130.619 320.031 130.511 320.639 130.432C321.434 130.33 322.079 130.253 322.574 130.202C323.074 130.145 323.437 130.051 323.664 129.92C323.897 129.79 324.014 129.562 324.014 129.239V129.17C324.014 128.33 323.784 127.676 323.324 127.21C322.869 126.744 322.179 126.511 321.252 126.511C320.292 126.511 319.539 126.722 318.994 127.142C318.449 127.562 318.065 128.011 317.843 128.489L315.934 127.807C316.275 127.011 316.73 126.392 317.298 125.949C317.872 125.5 318.497 125.187 319.173 125.011C319.855 124.83 320.525 124.739 321.184 124.739C321.605 124.739 322.088 124.79 322.633 124.892C323.184 124.989 323.716 125.19 324.227 125.497C324.744 125.804 325.173 126.267 325.514 126.886C325.855 127.506 326.025 128.335 326.025 129.375V138H324.014V136.227H323.912C323.775 136.511 323.548 136.815 323.23 137.139C322.912 137.463 322.488 137.739 321.96 137.966C321.431 138.193 320.787 138.307 320.025 138.307ZM320.332 136.5C321.127 136.5 321.798 136.344 322.343 136.031C322.895 135.719 323.309 135.315 323.588 134.821C323.872 134.327 324.014 133.807 324.014 133.261V131.42C323.929 131.523 323.741 131.616 323.451 131.702C323.167 131.781 322.838 131.852 322.463 131.915C322.093 131.972 321.733 132.023 321.38 132.068C321.034 132.108 320.752 132.142 320.537 132.17C320.014 132.239 319.525 132.349 319.071 132.503C318.622 132.651 318.258 132.875 317.98 133.176C317.707 133.472 317.571 133.875 317.571 134.386C317.571 135.085 317.829 135.614 318.346 135.972C318.869 136.324 319.531 136.5 320.332 136.5ZM329.696 138V124.909H335.049C336.458 124.909 337.577 125.227 338.407 125.864C339.236 126.5 339.651 127.341 339.651 128.386C339.651 129.182 339.415 129.798 338.944 130.236C338.472 130.668 337.867 130.96 337.128 131.114C337.611 131.182 338.08 131.352 338.534 131.625C338.995 131.898 339.375 132.273 339.676 132.75C339.978 133.222 340.128 133.801 340.128 134.489C340.128 135.159 339.958 135.759 339.617 136.287C339.276 136.815 338.787 137.233 338.151 137.54C337.515 137.847 336.753 138 335.867 138H329.696ZM331.605 136.159H335.867C336.56 136.159 337.103 135.994 337.495 135.665C337.887 135.335 338.083 134.886 338.083 134.318C338.083 133.642 337.887 133.111 337.495 132.724C337.103 132.332 336.56 132.136 335.867 132.136H331.605V136.159ZM331.605 130.398H335.049C335.588 130.398 336.051 130.324 336.438 130.176C336.824 130.023 337.12 129.807 337.324 129.528C337.534 129.244 337.64 128.909 337.64 128.523C337.64 127.972 337.409 127.54 336.949 127.227C336.489 126.909 335.855 126.75 335.049 126.75H331.605V130.398ZM345.184 135.034L351.491 124.909H353.809V138H351.798V127.875L345.525 138H343.173V124.909H345.184V135.034ZM355.712 126.784V124.909H366.348V126.784H362.053V138H360.042V126.784H355.712ZM371.021 129.648H374.771C376.305 129.648 377.478 130.037 378.291 130.815C379.103 131.594 379.51 132.58 379.51 133.773C379.51 134.557 379.328 135.27 378.964 135.912C378.6 136.548 378.066 137.057 377.362 137.438C376.657 137.812 375.794 138 374.771 138H369.282V124.909H371.294V136.125H374.771C375.566 136.125 376.22 135.915 376.731 135.494C377.243 135.074 377.498 134.534 377.498 133.875C377.498 133.182 377.243 132.616 376.731 132.179C376.22 131.741 375.566 131.523 374.771 131.523H371.021V129.648ZM396.48 135.273L401.049 124.909H402.958L397.299 138H395.662L390.105 124.909H391.98L396.48 135.273ZM391.333 124.909V138H389.321V124.909H391.333ZM401.628 138V124.909H403.64V138H401.628ZM412.81 138.273C411.549 138.273 410.461 137.994 409.546 137.438C408.637 136.875 407.935 136.091 407.441 135.085C406.952 134.074 406.708 132.898 406.708 131.557C406.708 130.216 406.952 129.034 407.441 128.011C407.935 126.983 408.623 126.182 409.503 125.608C410.39 125.028 411.424 124.739 412.605 124.739C413.287 124.739 413.961 124.852 414.625 125.08C415.29 125.307 415.895 125.676 416.441 126.188C416.986 126.693 417.421 127.364 417.745 128.199C418.069 129.034 418.23 130.062 418.23 131.284V132.136H408.14V130.398H416.185C416.185 129.659 416.037 129 415.742 128.42C415.452 127.841 415.037 127.384 414.498 127.048C413.963 126.713 413.333 126.545 412.605 126.545C411.804 126.545 411.111 126.744 410.526 127.142C409.946 127.534 409.5 128.045 409.188 128.676C408.875 129.307 408.719 129.983 408.719 130.705V131.864C408.719 132.852 408.89 133.69 409.23 134.378C409.577 135.06 410.057 135.58 410.671 135.938C411.284 136.29 411.998 136.466 412.81 136.466C413.338 136.466 413.816 136.392 414.242 136.244C414.674 136.091 415.046 135.864 415.358 135.562C415.671 135.256 415.912 134.875 416.083 134.42L418.026 134.966C417.821 135.625 417.478 136.205 416.995 136.705C416.512 137.199 415.915 137.585 415.205 137.864C414.495 138.136 413.696 138.273 412.81 138.273ZM426.608 138.273C425.381 138.273 424.324 137.983 423.438 137.403C422.551 136.824 421.87 136.026 421.392 135.009C420.915 133.991 420.676 132.83 420.676 131.523C420.676 130.193 420.921 129.02 421.409 128.003C421.904 126.98 422.591 126.182 423.472 125.608C424.358 125.028 425.392 124.739 426.574 124.739C427.495 124.739 428.324 124.909 429.063 125.25C429.801 125.591 430.407 126.068 430.878 126.682C431.35 127.295 431.642 128.011 431.756 128.83H429.745C429.591 128.233 429.25 127.705 428.722 127.244C428.199 126.778 427.495 126.545 426.608 126.545C425.824 126.545 425.137 126.75 424.546 127.159C423.961 127.562 423.503 128.134 423.174 128.872C422.85 129.605 422.688 130.466 422.688 131.455C422.688 132.466 422.847 133.347 423.165 134.097C423.489 134.847 423.944 135.429 424.529 135.844C425.12 136.259 425.813 136.466 426.608 136.466C427.131 136.466 427.605 136.375 428.032 136.193C428.458 136.011 428.819 135.75 429.114 135.409C429.409 135.068 429.62 134.659 429.745 134.182H431.756C431.642 134.955 431.361 135.651 430.912 136.27C430.469 136.884 429.881 137.372 429.148 137.736C428.421 138.094 427.574 138.273 426.608 138.273ZM433.665 126.784V124.909H444.301V126.784H440.006V138H437.995V126.784H433.665ZM451.874 138.273C450.692 138.273 449.655 137.991 448.763 137.429C447.877 136.866 447.184 136.08 446.684 135.068C446.189 134.057 445.942 132.875 445.942 131.523C445.942 130.159 446.189 128.969 446.684 127.952C447.184 126.935 447.877 126.145 448.763 125.582C449.655 125.02 450.692 124.739 451.874 124.739C453.056 124.739 454.09 125.02 454.976 125.582C455.868 126.145 456.561 126.935 457.056 127.952C457.556 128.969 457.806 130.159 457.806 131.523C457.806 132.875 457.556 134.057 457.056 135.068C456.561 136.08 455.868 136.866 454.976 137.429C454.09 137.991 453.056 138.273 451.874 138.273ZM451.874 136.466C452.772 136.466 453.51 136.236 454.09 135.776C454.669 135.315 455.098 134.71 455.377 133.96C455.655 133.21 455.794 132.398 455.794 131.523C455.794 130.648 455.655 129.832 455.377 129.077C455.098 128.321 454.669 127.71 454.09 127.244C453.51 126.778 452.772 126.545 451.874 126.545C450.976 126.545 450.238 126.778 449.658 127.244C449.078 127.71 448.65 128.321 448.371 129.077C448.093 129.832 447.953 130.648 447.953 131.523C447.953 132.398 448.093 133.21 448.371 133.96C448.65 134.71 449.078 135.315 449.658 135.776C450.238 136.236 450.976 136.466 451.874 136.466Z" fill="black"/>
<rect x="262" y="206.355" width="50" height="6" transform="rotate(-45 262 206.355)" fill="#FF0000"/>
<rect x="266.443" y="171.201" width="50" height="6" transform="rotate(45 266.443 171.201)" fill="#FF0000"/>
<defs>
<filter id="filter0_d_1608_661" x="0" y="0" width="563" height="300" filterUnits="userSpaceOnUse" color-interpolation-filters="sRGB">
<feFlood flood-opacity="0" result="BackgroundImageFix"/>
<feColorMatrix in="SourceAlpha" type="matrix" values="0 0 0 0 0 0 0 0 0 0 0 0 0 0 0 0 0 0 127 0" result="hardAlpha"/>
<feOffset dy="4"/>
<feGaussianBlur stdDeviation="2"/>
<feComposite in2="hardAlpha" operator="out"/>
<feColorMatrix type="matrix" values="0 0 0 0 0 0 0 0 0 0 0 0 0 0 0 0 0 0 0.25 0"/>
<feBlend mode="normal" in2="BackgroundImageFix" result="effect1_dropShadow_1608_661"/>
<feBlend mode="normal" in="SourceGraphic" in2="effect1_dropShadow_1608_661" result="shape"/>
</filter>
</defs>
</svg>
