<svg width="674" height="395" viewBox="0 0 674 395" fill="none" xmlns="http://www.w3.org/2000/svg">
<g filter="url(#filter0_d_282_311)">
<rect x="4" width="666" height="387" rx="27" fill="white"/>
</g>
<path d="M126.599 141V117.727H134.736C136.357 117.727 137.694 118.008 138.747 118.568C139.8 119.121 140.584 119.867 141.099 120.807C141.615 121.739 141.872 122.773 141.872 123.909C141.872 124.909 141.694 125.735 141.338 126.386C140.99 127.038 140.527 127.553 139.952 127.932C139.384 128.311 138.766 128.591 138.099 128.773V129C138.812 129.045 139.527 129.295 140.247 129.75C140.967 130.205 141.569 130.856 142.054 131.705C142.539 132.553 142.781 133.591 142.781 134.818C142.781 135.985 142.516 137.034 141.986 137.966C141.455 138.898 140.618 139.636 139.474 140.182C138.33 140.727 136.842 141 135.009 141H126.599ZM129.418 138.5H135.009C136.849 138.5 138.156 138.144 138.929 137.432C139.709 136.712 140.099 135.841 140.099 134.818C140.099 134.03 139.899 133.303 139.497 132.636C139.096 131.962 138.524 131.424 137.781 131.023C137.039 130.614 136.16 130.409 135.145 130.409H129.418V138.5ZM129.418 127.955H134.645C135.493 127.955 136.259 127.788 136.94 127.455C137.63 127.121 138.175 126.652 138.577 126.045C138.986 125.439 139.19 124.727 139.19 123.909C139.19 122.886 138.834 122.019 138.122 121.307C137.41 120.587 136.281 120.227 134.736 120.227H129.418V127.955ZM152.185 141.409C151.079 141.409 150.075 141.201 149.173 140.784C148.272 140.36 147.556 139.75 147.026 138.955C146.495 138.152 146.23 137.182 146.23 136.045C146.23 135.045 146.427 134.235 146.821 133.614C147.215 132.985 147.741 132.492 148.401 132.136C149.06 131.78 149.787 131.515 150.582 131.341C151.385 131.159 152.192 131.015 153.003 130.909C154.063 130.773 154.923 130.67 155.582 130.602C156.249 130.527 156.734 130.402 157.037 130.227C157.348 130.053 157.503 129.75 157.503 129.318V129.227C157.503 128.106 157.196 127.235 156.582 126.614C155.976 125.992 155.056 125.682 153.821 125.682C152.541 125.682 151.537 125.962 150.81 126.523C150.082 127.083 149.571 127.682 149.276 128.318L146.73 127.409C147.185 126.348 147.791 125.523 148.548 124.932C149.313 124.333 150.147 123.917 151.048 123.682C151.957 123.439 152.851 123.318 153.73 123.318C154.291 123.318 154.935 123.386 155.662 123.523C156.397 123.652 157.105 123.92 157.787 124.33C158.476 124.739 159.048 125.356 159.503 126.182C159.957 127.008 160.185 128.114 160.185 129.5V141H157.503V138.636H157.366C157.185 139.015 156.882 139.42 156.457 139.852C156.033 140.284 155.469 140.652 154.764 140.955C154.06 141.258 153.2 141.409 152.185 141.409ZM152.594 139C153.654 139 154.548 138.792 155.276 138.375C156.01 137.958 156.563 137.42 156.935 136.761C157.313 136.102 157.503 135.409 157.503 134.682V132.227C157.389 132.364 157.139 132.489 156.753 132.602C156.374 132.708 155.935 132.803 155.435 132.886C154.942 132.962 154.461 133.03 153.991 133.091C153.529 133.144 153.154 133.189 152.866 133.227C152.17 133.318 151.518 133.466 150.912 133.67C150.313 133.867 149.829 134.167 149.457 134.568C149.094 134.962 148.912 135.5 148.912 136.182C148.912 137.114 149.257 137.818 149.946 138.295C150.643 138.765 151.526 139 152.594 139ZM165.08 123.545H167.761V138.5H174.352V123.545H177.034V138.5H183.625V123.545H186.307V141H165.08V123.545ZM196.341 141.409C195.235 141.409 194.231 141.201 193.33 140.784C192.428 140.36 191.712 139.75 191.182 138.955C190.652 138.152 190.386 137.182 190.386 136.045C190.386 135.045 190.583 134.235 190.977 133.614C191.371 132.985 191.898 132.492 192.557 132.136C193.216 131.78 193.943 131.515 194.739 131.341C195.542 131.159 196.348 131.015 197.159 130.909C198.22 130.773 199.08 130.67 199.739 130.602C200.405 130.527 200.89 130.402 201.193 130.227C201.504 130.053 201.659 129.75 201.659 129.318V129.227C201.659 128.106 201.352 127.235 200.739 126.614C200.133 125.992 199.212 125.682 197.977 125.682C196.697 125.682 195.693 125.962 194.966 126.523C194.239 127.083 193.727 127.682 193.432 128.318L190.886 127.409C191.341 126.348 191.947 125.523 192.705 124.932C193.47 124.333 194.303 123.917 195.205 123.682C196.114 123.439 197.008 123.318 197.886 123.318C198.447 123.318 199.091 123.386 199.818 123.523C200.553 123.652 201.261 123.92 201.943 124.33C202.633 124.739 203.205 125.356 203.659 126.182C204.114 127.008 204.341 128.114 204.341 129.5V141H201.659V138.636H201.523C201.341 139.015 201.038 139.42 200.614 139.852C200.189 140.284 199.625 140.652 198.92 140.955C198.216 141.258 197.356 141.409 196.341 141.409ZM196.75 139C197.811 139 198.705 138.792 199.432 138.375C200.167 137.958 200.72 137.42 201.091 136.761C201.47 136.102 201.659 135.409 201.659 134.682V132.227C201.545 132.364 201.295 132.489 200.909 132.602C200.53 132.708 200.091 132.803 199.591 132.886C199.098 132.962 198.617 133.03 198.148 133.091C197.686 133.144 197.311 133.189 197.023 133.227C196.326 133.318 195.674 133.466 195.068 133.67C194.47 133.867 193.985 134.167 193.614 134.568C193.25 134.962 193.068 135.5 193.068 136.182C193.068 137.114 193.413 137.818 194.102 138.295C194.799 138.765 195.682 139 196.75 139ZM217.145 136.545H220.009C220.069 137.333 220.425 137.932 221.077 138.341C221.736 138.75 222.592 138.955 223.645 138.955C224.721 138.955 225.641 138.735 226.406 138.295C227.171 137.848 227.554 137.129 227.554 136.136C227.554 135.553 227.41 135.045 227.122 134.614C226.834 134.174 226.429 133.833 225.906 133.591C225.384 133.348 224.766 133.227 224.054 133.227H221.054V130.818H224.054C225.122 130.818 225.91 130.576 226.418 130.091C226.933 129.606 227.19 129 227.19 128.273C227.19 127.492 226.914 126.867 226.361 126.398C225.808 125.92 225.024 125.682 224.009 125.682C222.986 125.682 222.134 125.913 221.452 126.375C220.77 126.83 220.41 127.417 220.372 128.136H217.554C217.584 127.197 217.872 126.367 218.418 125.648C218.963 124.92 219.705 124.352 220.645 123.943C221.584 123.527 222.66 123.318 223.872 123.318C225.099 123.318 226.164 123.534 227.065 123.966C227.974 124.39 228.675 124.97 229.168 125.705C229.668 126.432 229.918 127.258 229.918 128.182C229.918 129.167 229.641 129.962 229.088 130.568C228.535 131.174 227.842 131.606 227.009 131.864V132.045C227.668 132.091 228.24 132.303 228.724 132.682C229.217 133.053 229.599 133.542 229.872 134.148C230.145 134.746 230.281 135.409 230.281 136.136C230.281 137.197 229.997 138.121 229.429 138.909C228.861 139.689 228.08 140.295 227.088 140.727C226.096 141.152 224.963 141.364 223.69 141.364C222.455 141.364 221.349 141.163 220.372 140.761C219.395 140.352 218.618 139.788 218.043 139.068C217.474 138.341 217.175 137.5 217.145 136.545ZM239.185 141.409C238.079 141.409 237.075 141.201 236.173 140.784C235.272 140.36 234.556 139.75 234.026 138.955C233.495 138.152 233.23 137.182 233.23 136.045C233.23 135.045 233.427 134.235 233.821 133.614C234.215 132.985 234.741 132.492 235.401 132.136C236.06 131.78 236.787 131.515 237.582 131.341C238.385 131.159 239.192 131.015 240.003 130.909C241.063 130.773 241.923 130.67 242.582 130.602C243.249 130.527 243.734 130.402 244.037 130.227C244.348 130.053 244.503 129.75 244.503 129.318V129.227C244.503 128.106 244.196 127.235 243.582 126.614C242.976 125.992 242.056 125.682 240.821 125.682C239.541 125.682 238.537 125.962 237.81 126.523C237.082 127.083 236.571 127.682 236.276 128.318L233.73 127.409C234.185 126.348 234.791 125.523 235.548 124.932C236.313 124.333 237.147 123.917 238.048 123.682C238.957 123.439 239.851 123.318 240.73 123.318C241.291 123.318 241.935 123.386 242.662 123.523C243.397 123.652 244.105 123.92 244.787 124.33C245.476 124.739 246.048 125.356 246.503 126.182C246.957 127.008 247.185 128.114 247.185 129.5V141H244.503V138.636H244.366C244.185 139.015 243.882 139.42 243.457 139.852C243.033 140.284 242.469 140.652 241.764 140.955C241.06 141.258 240.2 141.409 239.185 141.409ZM239.594 139C240.654 139 241.548 138.792 242.276 138.375C243.01 137.958 243.563 137.42 243.935 136.761C244.313 136.102 244.503 135.409 244.503 134.682V132.227C244.389 132.364 244.139 132.489 243.753 132.602C243.374 132.708 242.935 132.803 242.435 132.886C241.942 132.962 241.461 133.03 240.991 133.091C240.529 133.144 240.154 133.189 239.866 133.227C239.17 133.318 238.518 133.466 237.912 133.67C237.313 133.867 236.829 134.167 236.457 134.568C236.094 134.962 235.912 135.5 235.912 136.182C235.912 137.114 236.257 137.818 236.946 138.295C237.643 138.765 238.526 139 239.594 139ZM262.58 141V126H257.943C256.898 126 256.076 126.242 255.477 126.727C254.879 127.212 254.58 127.879 254.58 128.727C254.58 129.561 254.848 130.216 255.386 130.693C255.932 131.17 256.678 131.409 257.625 131.409H263.261V133.909H257.625C256.443 133.909 255.424 133.701 254.568 133.284C253.712 132.867 253.053 132.273 252.591 131.5C252.129 130.72 251.898 129.795 251.898 128.727C251.898 127.652 252.14 126.727 252.625 125.955C253.11 125.182 253.803 124.587 254.705 124.17C255.614 123.754 256.693 123.545 257.943 123.545H265.125V141H262.58ZM250.943 141L255.898 132.318H258.807L253.852 141H250.943ZM270.048 141V123.545H277.185C279.063 123.545 280.556 123.97 281.662 124.818C282.768 125.667 283.321 126.788 283.321 128.182C283.321 129.242 283.007 130.064 282.378 130.648C281.749 131.223 280.942 131.614 279.957 131.818C280.601 131.909 281.226 132.136 281.832 132.5C282.446 132.864 282.954 133.364 283.355 134C283.757 134.629 283.957 135.402 283.957 136.318C283.957 137.212 283.73 138.011 283.276 138.716C282.821 139.42 282.17 139.977 281.321 140.386C280.473 140.795 279.457 141 278.276 141H270.048ZM272.594 138.545H278.276C279.2 138.545 279.923 138.326 280.446 137.886C280.969 137.447 281.23 136.848 281.23 136.091C281.23 135.189 280.969 134.481 280.446 133.966C279.923 133.443 279.2 133.182 278.276 133.182H272.594V138.545ZM272.594 130.864H277.185C277.904 130.864 278.522 130.765 279.037 130.568C279.552 130.364 279.946 130.076 280.219 129.705C280.499 129.326 280.639 128.879 280.639 128.364C280.639 127.629 280.332 127.053 279.719 126.636C279.105 126.212 278.26 126 277.185 126H272.594V130.864ZM288.017 141V123.545H290.699V131.136H292.472L298.744 123.545H302.199L295.153 131.955L302.29 141H298.835L293.108 133.636H290.699V141H288.017ZM310.341 141.409C309.235 141.409 308.231 141.201 307.33 140.784C306.428 140.36 305.712 139.75 305.182 138.955C304.652 138.152 304.386 137.182 304.386 136.045C304.386 135.045 304.583 134.235 304.977 133.614C305.371 132.985 305.898 132.492 306.557 132.136C307.216 131.78 307.943 131.515 308.739 131.341C309.542 131.159 310.348 131.015 311.159 130.909C312.22 130.773 313.08 130.67 313.739 130.602C314.405 130.527 314.89 130.402 315.193 130.227C315.504 130.053 315.659 129.75 315.659 129.318V129.227C315.659 128.106 315.352 127.235 314.739 126.614C314.133 125.992 313.212 125.682 311.977 125.682C310.697 125.682 309.693 125.962 308.966 126.523C308.239 127.083 307.727 127.682 307.432 128.318L304.886 127.409C305.341 126.348 305.947 125.523 306.705 124.932C307.47 124.333 308.303 123.917 309.205 123.682C310.114 123.439 311.008 123.318 311.886 123.318C312.447 123.318 313.091 123.386 313.818 123.523C314.553 123.652 315.261 123.92 315.943 124.33C316.633 124.739 317.205 125.356 317.659 126.182C318.114 127.008 318.341 128.114 318.341 129.5V141H315.659V138.636H315.523C315.341 139.015 315.038 139.42 314.614 139.852C314.189 140.284 313.625 140.652 312.92 140.955C312.216 141.258 311.356 141.409 310.341 141.409ZM310.75 139C311.811 139 312.705 138.792 313.432 138.375C314.167 137.958 314.72 137.42 315.091 136.761C315.47 136.102 315.659 135.409 315.659 134.682V132.227C315.545 132.364 315.295 132.489 314.909 132.602C314.53 132.708 314.091 132.803 313.591 132.886C313.098 132.962 312.617 133.03 312.148 133.091C311.686 133.144 311.311 133.189 311.023 133.227C310.326 133.318 309.674 133.466 309.068 133.67C308.47 133.867 307.985 134.167 307.614 134.568C307.25 134.962 307.068 135.5 307.068 136.182C307.068 137.114 307.413 137.818 308.102 138.295C308.799 138.765 309.682 139 310.75 139ZM343.918 131.045V133.545H334.281V131.045H343.918ZM334.918 123.545V141H332.236V123.545H334.918ZM345.963 123.545V141H343.281V123.545H345.963ZM355.997 141.409C354.891 141.409 353.887 141.201 352.986 140.784C352.084 140.36 351.368 139.75 350.838 138.955C350.308 138.152 350.043 137.182 350.043 136.045C350.043 135.045 350.24 134.235 350.634 133.614C351.027 132.985 351.554 132.492 352.213 132.136C352.872 131.78 353.599 131.515 354.395 131.341C355.198 131.159 356.005 131.015 356.815 130.909C357.876 130.773 358.736 130.67 359.395 130.602C360.062 130.527 360.546 130.402 360.849 130.227C361.16 130.053 361.315 129.75 361.315 129.318V129.227C361.315 128.106 361.009 127.235 360.395 126.614C359.789 125.992 358.868 125.682 357.634 125.682C356.353 125.682 355.349 125.962 354.622 126.523C353.895 127.083 353.384 127.682 353.088 128.318L350.543 127.409C350.997 126.348 351.603 125.523 352.361 124.932C353.126 124.333 353.959 123.917 354.861 123.682C355.77 123.439 356.664 123.318 357.543 123.318C358.103 123.318 358.747 123.386 359.474 123.523C360.209 123.652 360.918 123.92 361.599 124.33C362.289 124.739 362.861 125.356 363.315 126.182C363.77 127.008 363.997 128.114 363.997 129.5V141H361.315V138.636H361.179C360.997 139.015 360.694 139.42 360.27 139.852C359.846 140.284 359.281 140.652 358.577 140.955C357.872 141.258 357.012 141.409 355.997 141.409ZM356.406 139C357.467 139 358.361 138.792 359.088 138.375C359.823 137.958 360.376 137.42 360.747 136.761C361.126 136.102 361.315 135.409 361.315 134.682V132.227C361.202 132.364 360.952 132.489 360.565 132.602C360.187 132.708 359.747 132.803 359.247 132.886C358.755 132.962 358.274 133.03 357.804 133.091C357.342 133.144 356.967 133.189 356.679 133.227C355.982 133.318 355.33 133.466 354.724 133.67C354.126 133.867 353.641 134.167 353.27 134.568C352.906 134.962 352.724 135.5 352.724 136.182C352.724 137.114 353.069 137.818 353.759 138.295C354.455 138.765 355.338 139 356.406 139ZM376.028 146V138.5H377.483C377.839 138.129 378.146 137.727 378.403 137.295C378.661 136.864 378.884 136.352 379.074 135.761C379.271 135.163 379.438 134.436 379.574 133.58C379.71 132.716 379.831 131.674 379.938 130.455L380.528 123.545H391.619V138.5H394.301V146H391.619V141H378.71V146H376.028ZM380.528 138.5H388.938V126.045H383.028L382.574 130.455C382.384 132.28 382.15 133.875 381.869 135.239C381.589 136.602 381.142 137.689 380.528 138.5ZM404.952 141.364C403.376 141.364 401.993 140.989 400.804 140.239C399.622 139.489 398.698 138.439 398.031 137.091C397.372 135.742 397.043 134.167 397.043 132.364C397.043 130.545 397.372 128.958 398.031 127.602C398.698 126.246 399.622 125.193 400.804 124.443C401.993 123.693 403.376 123.318 404.952 123.318C406.527 123.318 407.906 123.693 409.088 124.443C410.277 125.193 411.202 126.246 411.861 127.602C412.527 128.958 412.861 130.545 412.861 132.364C412.861 134.167 412.527 135.742 411.861 137.091C411.202 138.439 410.277 139.489 409.088 140.239C407.906 140.989 406.527 141.364 404.952 141.364ZM404.952 138.955C406.149 138.955 407.134 138.648 407.906 138.034C408.679 137.42 409.251 136.614 409.622 135.614C409.993 134.614 410.179 133.53 410.179 132.364C410.179 131.197 409.993 130.11 409.622 129.102C409.251 128.095 408.679 127.28 407.906 126.659C407.134 126.038 406.149 125.727 404.952 125.727C403.755 125.727 402.77 126.038 401.997 126.659C401.224 127.28 400.652 128.095 400.281 129.102C399.91 130.11 399.724 131.197 399.724 132.364C399.724 133.53 399.91 134.614 400.281 135.614C400.652 136.614 401.224 137.42 401.997 138.034C402.77 138.648 403.755 138.955 404.952 138.955ZM429.909 117L431.273 118.636C430.742 119.152 430.129 119.511 429.432 119.716C428.735 119.92 427.947 120.045 427.068 120.091C426.189 120.136 425.212 120.182 424.136 120.227C422.924 120.273 421.92 120.568 421.125 121.114C420.33 121.659 419.716 122.447 419.284 123.477C418.852 124.508 418.576 125.773 418.455 127.273H418.682C419.273 126.182 420.091 125.379 421.136 124.864C422.182 124.348 423.303 124.091 424.5 124.091C425.864 124.091 427.091 124.409 428.182 125.045C429.273 125.682 430.136 126.625 430.773 127.875C431.409 129.125 431.727 130.667 431.727 132.5C431.727 134.326 431.402 135.902 430.75 137.227C430.106 138.553 429.201 139.576 428.034 140.295C426.875 141.008 425.515 141.364 423.955 141.364C422.394 141.364 421.027 140.996 419.852 140.261C418.678 139.519 417.765 138.42 417.114 136.966C416.462 135.504 416.136 133.697 416.136 131.545V129.682C416.136 125.795 416.795 122.848 418.114 120.841C419.439 118.833 421.432 117.795 424.091 117.727C425.03 117.697 425.867 117.689 426.602 117.705C427.337 117.72 427.977 117.686 428.523 117.602C429.068 117.519 429.53 117.318 429.909 117ZM423.955 138.955C425.008 138.955 425.913 138.689 426.67 138.159C427.436 137.629 428.023 136.883 428.432 135.92C428.841 134.951 429.045 133.811 429.045 132.5C429.045 131.227 428.837 130.144 428.42 129.25C428.011 128.356 427.424 127.674 426.659 127.205C425.894 126.735 424.977 126.5 423.909 126.5C423.129 126.5 422.428 126.633 421.807 126.898C421.186 127.163 420.655 127.553 420.216 128.068C419.777 128.583 419.436 129.212 419.193 129.955C418.958 130.697 418.833 131.545 418.818 132.5C418.818 134.455 419.277 136.019 420.193 137.193C421.11 138.367 422.364 138.955 423.955 138.955ZM440.966 141.409C439.86 141.409 438.856 141.201 437.955 140.784C437.053 140.36 436.337 139.75 435.807 138.955C435.277 138.152 435.011 137.182 435.011 136.045C435.011 135.045 435.208 134.235 435.602 133.614C435.996 132.985 436.523 132.492 437.182 132.136C437.841 131.78 438.568 131.515 439.364 131.341C440.167 131.159 440.973 131.015 441.784 130.909C442.845 130.773 443.705 130.67 444.364 130.602C445.03 130.527 445.515 130.402 445.818 130.227C446.129 130.053 446.284 129.75 446.284 129.318V129.227C446.284 128.106 445.977 127.235 445.364 126.614C444.758 125.992 443.837 125.682 442.602 125.682C441.322 125.682 440.318 125.962 439.591 126.523C438.864 127.083 438.352 127.682 438.057 128.318L435.511 127.409C435.966 126.348 436.572 125.523 437.33 124.932C438.095 124.333 438.928 123.917 439.83 123.682C440.739 123.439 441.633 123.318 442.511 123.318C443.072 123.318 443.716 123.386 444.443 123.523C445.178 123.652 445.886 123.92 446.568 124.33C447.258 124.739 447.83 125.356 448.284 126.182C448.739 127.008 448.966 128.114 448.966 129.5V141H446.284V138.636H446.148C445.966 139.015 445.663 139.42 445.239 139.852C444.814 140.284 444.25 140.652 443.545 140.955C442.841 141.258 441.981 141.409 440.966 141.409ZM441.375 139C442.436 139 443.33 138.792 444.057 138.375C444.792 137.958 445.345 137.42 445.716 136.761C446.095 136.102 446.284 135.409 446.284 134.682V132.227C446.17 132.364 445.92 132.489 445.534 132.602C445.155 132.708 444.716 132.803 444.216 132.886C443.723 132.962 443.242 133.03 442.773 133.091C442.311 133.144 441.936 133.189 441.648 133.227C440.951 133.318 440.299 133.466 439.693 133.67C439.095 133.867 438.61 134.167 438.239 134.568C437.875 134.962 437.693 135.5 437.693 136.182C437.693 137.114 438.038 137.818 438.727 138.295C439.424 138.765 440.307 139 441.375 139ZM453.861 141V123.545H460.997C462.876 123.545 464.368 123.97 465.474 124.818C466.58 125.667 467.134 126.788 467.134 128.182C467.134 129.242 466.819 130.064 466.19 130.648C465.562 131.223 464.755 131.614 463.77 131.818C464.414 131.909 465.039 132.136 465.645 132.5C466.259 132.864 466.766 133.364 467.168 134C467.569 134.629 467.77 135.402 467.77 136.318C467.77 137.212 467.543 138.011 467.088 138.716C466.634 139.42 465.982 139.977 465.134 140.386C464.285 140.795 463.27 141 462.088 141H453.861ZM456.406 138.545H462.088C463.012 138.545 463.736 138.326 464.259 137.886C464.781 137.447 465.043 136.848 465.043 136.091C465.043 135.189 464.781 134.481 464.259 133.966C463.736 133.443 463.012 133.182 462.088 133.182H456.406V138.545ZM456.406 130.864H460.997C461.717 130.864 462.334 130.765 462.849 130.568C463.365 130.364 463.759 130.076 464.031 129.705C464.312 129.326 464.452 128.879 464.452 128.364C464.452 127.629 464.145 127.053 463.531 126.636C462.918 126.212 462.073 126 460.997 126H456.406V130.864ZM470.284 141V138.5H470.92C471.443 138.5 471.879 138.398 472.227 138.193C472.576 137.981 472.856 137.614 473.068 137.091C473.288 136.561 473.455 135.826 473.568 134.886C473.689 133.939 473.777 132.735 473.83 131.273L474.148 123.545H485.784V141H483.102V126.045H476.693L476.42 132.273C476.36 133.705 476.231 134.966 476.034 136.057C475.845 137.14 475.553 138.049 475.159 138.784C474.773 139.519 474.258 140.072 473.614 140.443C472.97 140.814 472.163 141 471.193 141H470.284ZM498.023 141.364C496.341 141.364 494.89 140.992 493.67 140.25C492.458 139.5 491.523 138.455 490.864 137.114C490.212 135.765 489.886 134.197 489.886 132.409C489.886 130.621 490.212 129.045 490.864 127.682C491.523 126.311 492.439 125.242 493.614 124.477C494.795 123.705 496.174 123.318 497.75 123.318C498.659 123.318 499.557 123.47 500.443 123.773C501.33 124.076 502.136 124.568 502.864 125.25C503.591 125.924 504.17 126.818 504.602 127.932C505.034 129.045 505.25 130.417 505.25 132.045V133.182H491.795V130.864H502.523C502.523 129.879 502.326 129 501.932 128.227C501.545 127.455 500.992 126.845 500.273 126.398C499.561 125.951 498.72 125.727 497.75 125.727C496.682 125.727 495.758 125.992 494.977 126.523C494.205 127.045 493.61 127.727 493.193 128.568C492.777 129.409 492.568 130.311 492.568 131.273V132.818C492.568 134.136 492.795 135.254 493.25 136.17C493.712 137.08 494.352 137.773 495.17 138.25C495.989 138.72 496.939 138.955 498.023 138.955C498.727 138.955 499.364 138.856 499.932 138.659C500.508 138.455 501.004 138.152 501.42 137.75C501.837 137.341 502.159 136.833 502.386 136.227L504.977 136.955C504.705 137.833 504.246 138.606 503.602 139.273C502.958 139.932 502.163 140.447 501.216 140.818C500.269 141.182 499.205 141.364 498.023 141.364ZM521.011 131.045V133.545H511.375V131.045H521.011ZM512.011 123.545V141H509.33V123.545H512.011ZM523.057 123.545V141H520.375V123.545H523.057ZM530.636 137.045L539.045 123.545H542.136V141H539.455V127.5L531.091 141H527.955V123.545H530.636V137.045ZM554.366 141.364C552.685 141.364 551.234 140.992 550.014 140.25C548.802 139.5 547.866 138.455 547.207 137.114C546.556 135.765 546.23 134.197 546.23 132.409C546.23 130.621 546.556 129.045 547.207 127.682C547.866 126.311 548.783 125.242 549.957 124.477C551.139 123.705 552.518 123.318 554.094 123.318C555.003 123.318 555.901 123.47 556.787 123.773C557.673 124.076 558.48 124.568 559.207 125.25C559.935 125.924 560.514 126.818 560.946 127.932C561.378 129.045 561.594 130.417 561.594 132.045V133.182H548.139V130.864H558.866C558.866 129.879 558.67 129 558.276 128.227C557.889 127.455 557.336 126.845 556.616 126.398C555.904 125.951 555.063 125.727 554.094 125.727C553.026 125.727 552.101 125.992 551.321 126.523C550.548 127.045 549.954 127.727 549.537 128.568C549.12 129.409 548.912 130.311 548.912 131.273V132.818C548.912 134.136 549.139 135.254 549.594 136.17C550.056 137.08 550.696 137.773 551.514 138.25C552.332 138.72 553.283 138.955 554.366 138.955C555.071 138.955 555.707 138.856 556.276 138.659C556.851 138.455 557.348 138.152 557.764 137.75C558.181 137.341 558.503 136.833 558.73 136.227L561.321 136.955C561.048 137.833 560.59 138.606 559.946 139.273C559.302 139.932 558.507 140.447 557.56 140.818C556.613 141.182 555.548 141.364 554.366 141.364ZM116.734 175.364L122.825 161.545H125.371L117.825 179H115.643L108.234 161.545H110.734L116.734 175.364ZM109.871 161.545V179H107.189V161.545H109.871ZM123.598 179V161.545H126.28V179H123.598ZM138.507 179.364C136.825 179.364 135.375 178.992 134.155 178.25C132.943 177.5 132.007 176.455 131.348 175.114C130.696 173.765 130.371 172.197 130.371 170.409C130.371 168.621 130.696 167.045 131.348 165.682C132.007 164.311 132.924 163.242 134.098 162.477C135.28 161.705 136.659 161.318 138.234 161.318C139.143 161.318 140.041 161.47 140.928 161.773C141.814 162.076 142.621 162.568 143.348 163.25C144.075 163.924 144.655 164.818 145.087 165.932C145.518 167.045 145.734 168.417 145.734 170.045V171.182H132.28V168.864H143.007C143.007 167.879 142.81 167 142.416 166.227C142.03 165.455 141.477 164.845 140.757 164.398C140.045 163.951 139.204 163.727 138.234 163.727C137.166 163.727 136.242 163.992 135.462 164.523C134.689 165.045 134.094 165.727 133.678 166.568C133.261 167.409 133.053 168.311 133.053 169.273V170.818C133.053 172.136 133.28 173.254 133.734 174.17C134.196 175.08 134.837 175.773 135.655 176.25C136.473 176.72 137.424 176.955 138.507 176.955C139.212 176.955 139.848 176.856 140.416 176.659C140.992 176.455 141.488 176.152 141.905 175.75C142.321 175.341 142.643 174.833 142.871 174.227L145.462 174.955C145.189 175.833 144.731 176.606 144.087 177.273C143.443 177.932 142.647 178.447 141.7 178.818C140.753 179.182 139.689 179.364 138.507 179.364ZM156.905 179.364C155.268 179.364 153.859 178.977 152.678 178.205C151.496 177.432 150.587 176.367 149.95 175.011C149.314 173.655 148.996 172.106 148.996 170.364C148.996 168.591 149.321 167.027 149.973 165.67C150.632 164.307 151.549 163.242 152.723 162.477C153.905 161.705 155.284 161.318 156.859 161.318C158.087 161.318 159.193 161.545 160.178 162C161.162 162.455 161.969 163.091 162.598 163.909C163.227 164.727 163.617 165.682 163.768 166.773H161.087C160.882 165.977 160.428 165.273 159.723 164.659C159.026 164.038 158.087 163.727 156.905 163.727C155.859 163.727 154.943 164 154.155 164.545C153.375 165.083 152.765 165.845 152.325 166.83C151.893 167.807 151.678 168.955 151.678 170.273C151.678 171.621 151.89 172.795 152.314 173.795C152.746 174.795 153.352 175.572 154.132 176.125C154.92 176.678 155.844 176.955 156.905 176.955C157.602 176.955 158.234 176.833 158.803 176.591C159.371 176.348 159.852 176 160.246 175.545C160.64 175.091 160.92 174.545 161.087 173.909H163.768C163.617 174.939 163.242 175.867 162.643 176.693C162.053 177.511 161.268 178.163 160.291 178.648C159.321 179.125 158.193 179.364 156.905 179.364ZM166.314 164.045V161.545H180.496V164.045H174.768V179H172.087V164.045H166.314ZM188.638 179.409C187.532 179.409 186.528 179.201 185.626 178.784C184.725 178.36 184.009 177.75 183.479 176.955C182.948 176.152 182.683 175.182 182.683 174.045C182.683 173.045 182.88 172.235 183.274 171.614C183.668 170.985 184.195 170.492 184.854 170.136C185.513 169.78 186.24 169.515 187.036 169.341C187.839 169.159 188.645 169.015 189.456 168.909C190.517 168.773 191.376 168.67 192.036 168.602C192.702 168.527 193.187 168.402 193.49 168.227C193.801 168.053 193.956 167.75 193.956 167.318V167.227C193.956 166.106 193.649 165.235 193.036 164.614C192.429 163.992 191.509 163.682 190.274 163.682C188.994 163.682 187.99 163.962 187.263 164.523C186.536 165.083 186.024 165.682 185.729 166.318L183.183 165.409C183.638 164.348 184.244 163.523 185.001 162.932C185.767 162.333 186.6 161.917 187.501 161.682C188.411 161.439 189.304 161.318 190.183 161.318C190.744 161.318 191.388 161.386 192.115 161.523C192.85 161.652 193.558 161.92 194.24 162.33C194.929 162.739 195.501 163.356 195.956 164.182C196.411 165.008 196.638 166.114 196.638 167.5V179H193.956V176.636H193.82C193.638 177.015 193.335 177.42 192.911 177.852C192.486 178.284 191.922 178.652 191.217 178.955C190.513 179.258 189.653 179.409 188.638 179.409ZM189.047 177C190.107 177 191.001 176.792 191.729 176.375C192.464 175.958 193.017 175.42 193.388 174.761C193.767 174.102 193.956 173.409 193.956 172.682V170.227C193.842 170.364 193.592 170.489 193.206 170.602C192.827 170.708 192.388 170.803 191.888 170.886C191.395 170.962 190.914 171.03 190.445 171.091C189.982 171.144 189.607 171.189 189.32 171.227C188.623 171.318 187.971 171.466 187.365 171.67C186.767 171.867 186.282 172.167 185.911 172.568C185.547 172.962 185.365 173.5 185.365 174.182C185.365 175.114 185.71 175.818 186.399 176.295C187.096 176.765 187.979 177 189.047 177ZM223.487 155L224.851 156.636C224.321 157.152 223.707 157.511 223.01 157.716C222.313 157.92 221.525 158.045 220.646 158.091C219.768 158.136 218.79 158.182 217.714 158.227C216.502 158.273 215.499 158.568 214.703 159.114C213.908 159.659 213.294 160.447 212.862 161.477C212.43 162.508 212.154 163.773 212.033 165.273H212.26C212.851 164.182 213.669 163.379 214.714 162.864C215.76 162.348 216.881 162.091 218.078 162.091C219.442 162.091 220.669 162.409 221.76 163.045C222.851 163.682 223.714 164.625 224.351 165.875C224.987 167.125 225.305 168.667 225.305 170.5C225.305 172.326 224.98 173.902 224.328 175.227C223.684 176.553 222.779 177.576 221.612 178.295C220.453 179.008 219.093 179.364 217.533 179.364C215.972 179.364 214.605 178.996 213.43 178.261C212.256 177.519 211.343 176.42 210.692 174.966C210.04 173.504 209.714 171.697 209.714 169.545V167.682C209.714 163.795 210.374 160.848 211.692 158.841C213.018 156.833 215.01 155.795 217.669 155.727C218.608 155.697 219.446 155.689 220.18 155.705C220.915 155.72 221.555 155.686 222.101 155.602C222.646 155.519 223.108 155.318 223.487 155ZM217.533 176.955C218.586 176.955 219.491 176.689 220.249 176.159C221.014 175.629 221.601 174.883 222.01 173.92C222.419 172.951 222.624 171.811 222.624 170.5C222.624 169.227 222.415 168.144 221.999 167.25C221.589 166.356 221.002 165.674 220.237 165.205C219.472 164.735 218.555 164.5 217.487 164.5C216.707 164.5 216.006 164.633 215.385 164.898C214.764 165.163 214.233 165.553 213.794 166.068C213.355 166.583 213.014 167.212 212.771 167.955C212.536 168.697 212.411 169.545 212.396 170.5C212.396 172.455 212.855 174.019 213.771 175.193C214.688 176.367 215.942 176.955 217.533 176.955ZM231.135 185.545C230.68 185.545 230.275 185.508 229.919 185.432C229.563 185.364 229.317 185.295 229.18 185.227L229.862 182.864C230.514 183.03 231.089 183.091 231.589 183.045C232.089 183 232.533 182.777 232.919 182.375C233.313 181.981 233.673 181.341 233.999 180.455L234.499 179.091L228.044 161.545H230.953L235.771 175.455H235.953L240.771 161.545H243.68L236.271 181.545C235.938 182.447 235.525 183.193 235.033 183.784C234.54 184.383 233.968 184.826 233.317 185.114C232.673 185.402 231.946 185.545 231.135 185.545ZM243.888 184V176.5H245.342C245.698 176.129 246.005 175.727 246.263 175.295C246.52 174.864 246.744 174.352 246.933 173.761C247.13 173.163 247.297 172.436 247.433 171.58C247.57 170.716 247.691 169.674 247.797 168.455L248.388 161.545H259.479V176.5H262.161V184H259.479V179H246.57V184H243.888ZM248.388 176.5H256.797V164.045H250.888L250.433 168.455C250.244 170.28 250.009 171.875 249.729 173.239C249.448 174.602 249.001 175.689 248.388 176.5ZM273.038 179.364C271.357 179.364 269.906 178.992 268.686 178.25C267.474 177.5 266.538 176.455 265.879 175.114C265.228 173.765 264.902 172.197 264.902 170.409C264.902 168.621 265.228 167.045 265.879 165.682C266.538 164.311 267.455 163.242 268.629 162.477C269.811 161.705 271.19 161.318 272.766 161.318C273.675 161.318 274.572 161.47 275.459 161.773C276.345 162.076 277.152 162.568 277.879 163.25C278.607 163.924 279.186 164.818 279.618 165.932C280.05 167.045 280.266 168.417 280.266 170.045V171.182H266.811V168.864H277.538C277.538 167.879 277.341 167 276.947 166.227C276.561 165.455 276.008 164.845 275.288 164.398C274.576 163.951 273.735 163.727 272.766 163.727C271.697 163.727 270.773 163.992 269.993 164.523C269.22 165.045 268.625 165.727 268.209 166.568C267.792 167.409 267.584 168.311 267.584 169.273V170.818C267.584 172.136 267.811 173.254 268.266 174.17C268.728 175.08 269.368 175.773 270.186 176.25C271.004 176.72 271.955 176.955 273.038 176.955C273.743 176.955 274.379 176.856 274.947 176.659C275.523 176.455 276.019 176.152 276.436 175.75C276.853 175.341 277.175 174.833 277.402 174.227L279.993 174.955C279.72 175.833 279.262 176.606 278.618 177.273C277.974 177.932 277.179 178.447 276.232 178.818C275.285 179.182 274.22 179.364 273.038 179.364ZM282.72 164.045V161.545H296.902V164.045H291.175V179H288.493V164.045H282.72ZM309.814 185.545V161.545H312.405V164.318H312.723C312.92 164.015 313.193 163.629 313.541 163.159C313.897 162.682 314.405 162.258 315.064 161.886C315.731 161.508 316.632 161.318 317.768 161.318C319.238 161.318 320.534 161.686 321.655 162.42C322.776 163.155 323.651 164.197 324.28 165.545C324.909 166.894 325.223 168.485 325.223 170.318C325.223 172.167 324.909 173.769 324.28 175.125C323.651 176.473 322.78 177.519 321.666 178.261C320.553 178.996 319.268 179.364 317.814 179.364C316.693 179.364 315.795 179.178 315.121 178.807C314.446 178.428 313.928 178 313.564 177.523C313.2 177.038 312.92 176.636 312.723 176.318H312.496V185.545H309.814ZM312.45 170.273C312.45 171.591 312.643 172.754 313.03 173.761C313.416 174.761 313.981 175.545 314.723 176.114C315.465 176.674 316.375 176.955 317.45 176.955C318.571 176.955 319.507 176.659 320.257 176.068C321.015 175.47 321.583 174.667 321.962 173.659C322.348 172.644 322.541 171.515 322.541 170.273C322.541 169.045 322.352 167.939 321.973 166.955C321.602 165.962 321.037 165.178 320.28 164.602C319.53 164.019 318.587 163.727 317.45 163.727C316.359 163.727 315.443 164.004 314.7 164.557C313.958 165.102 313.397 165.867 313.018 166.852C312.64 167.83 312.45 168.97 312.45 170.273ZM334.45 179.409C333.344 179.409 332.34 179.201 331.439 178.784C330.537 178.36 329.821 177.75 329.291 176.955C328.761 176.152 328.496 175.182 328.496 174.045C328.496 173.045 328.693 172.235 329.087 171.614C329.481 170.985 330.007 170.492 330.666 170.136C331.325 169.78 332.053 169.515 332.848 169.341C333.651 169.159 334.458 169.015 335.268 168.909C336.329 168.773 337.189 168.67 337.848 168.602C338.515 168.527 339 168.402 339.303 168.227C339.613 168.053 339.768 167.75 339.768 167.318V167.227C339.768 166.106 339.462 165.235 338.848 164.614C338.242 163.992 337.321 163.682 336.087 163.682C334.806 163.682 333.803 163.962 333.075 164.523C332.348 165.083 331.837 165.682 331.541 166.318L328.996 165.409C329.45 164.348 330.056 163.523 330.814 162.932C331.579 162.333 332.412 161.917 333.314 161.682C334.223 161.439 335.117 161.318 335.996 161.318C336.556 161.318 337.2 161.386 337.928 161.523C338.662 161.652 339.371 161.92 340.053 162.33C340.742 162.739 341.314 163.356 341.768 164.182C342.223 165.008 342.45 166.114 342.45 167.5V179H339.768V176.636H339.632C339.45 177.015 339.147 177.42 338.723 177.852C338.299 178.284 337.734 178.652 337.03 178.955C336.325 179.258 335.465 179.409 334.45 179.409ZM334.859 177C335.92 177 336.814 176.792 337.541 176.375C338.276 175.958 338.829 175.42 339.2 174.761C339.579 174.102 339.768 173.409 339.768 172.682V170.227C339.655 170.364 339.405 170.489 339.018 170.602C338.64 170.708 338.2 170.803 337.7 170.886C337.208 170.962 336.727 171.03 336.257 171.091C335.795 171.144 335.42 171.189 335.132 171.227C334.435 171.318 333.784 171.466 333.178 171.67C332.579 171.867 332.094 172.167 331.723 172.568C331.359 172.962 331.178 173.5 331.178 174.182C331.178 175.114 331.522 175.818 332.212 176.295C332.909 176.765 333.791 177 334.859 177ZM354.436 179.364C352.8 179.364 351.391 178.977 350.209 178.205C349.027 177.432 348.118 176.367 347.482 175.011C346.845 173.655 346.527 172.106 346.527 170.364C346.527 168.591 346.853 167.027 347.504 165.67C348.163 164.307 349.08 163.242 350.254 162.477C351.436 161.705 352.815 161.318 354.391 161.318C355.618 161.318 356.724 161.545 357.709 162C358.694 162.455 359.5 163.091 360.129 163.909C360.758 164.727 361.148 165.682 361.3 166.773H358.618C358.413 165.977 357.959 165.273 357.254 164.659C356.557 164.038 355.618 163.727 354.436 163.727C353.391 163.727 352.474 164 351.686 164.545C350.906 165.083 350.296 165.845 349.857 166.83C349.425 167.807 349.209 168.955 349.209 170.273C349.209 171.621 349.421 172.795 349.845 173.795C350.277 174.795 350.883 175.572 351.663 176.125C352.451 176.678 353.375 176.955 354.436 176.955C355.133 176.955 355.766 176.833 356.334 176.591C356.902 176.348 357.383 176 357.777 175.545C358.171 175.091 358.451 174.545 358.618 173.909H361.3C361.148 174.939 360.773 175.867 360.175 176.693C359.584 177.511 358.8 178.163 357.822 178.648C356.853 179.125 355.724 179.364 354.436 179.364ZM372.311 179.364C370.675 179.364 369.266 178.977 368.084 178.205C366.902 177.432 365.993 176.367 365.357 175.011C364.72 173.655 364.402 172.106 364.402 170.364C364.402 168.591 364.728 167.027 365.379 165.67C366.038 164.307 366.955 163.242 368.129 162.477C369.311 161.705 370.69 161.318 372.266 161.318C373.493 161.318 374.599 161.545 375.584 162C376.569 162.455 377.375 163.091 378.004 163.909C378.633 164.727 379.023 165.682 379.175 166.773H376.493C376.288 165.977 375.834 165.273 375.129 164.659C374.432 164.038 373.493 163.727 372.311 163.727C371.266 163.727 370.349 164 369.561 164.545C368.781 165.083 368.171 165.845 367.732 166.83C367.3 167.807 367.084 168.955 367.084 170.273C367.084 171.621 367.296 172.795 367.72 173.795C368.152 174.795 368.758 175.572 369.538 176.125C370.326 176.678 371.25 176.955 372.311 176.955C373.008 176.955 373.641 176.833 374.209 176.591C374.777 176.348 375.258 176 375.652 175.545C376.046 175.091 376.326 174.545 376.493 173.909H379.175C379.023 174.939 378.648 175.867 378.05 176.693C377.459 177.511 376.675 178.163 375.697 178.648C374.728 179.125 373.599 179.364 372.311 179.364ZM392.641 175.364L398.732 161.545H401.277L393.732 179H391.55L384.141 161.545H386.641L392.641 175.364ZM385.777 161.545V179H383.095V161.545H385.777ZM399.504 179V161.545H402.186V179H399.504ZM412.232 179.409C411.125 179.409 410.122 179.201 409.22 178.784C408.319 178.36 407.603 177.75 407.072 176.955C406.542 176.152 406.277 175.182 406.277 174.045C406.277 173.045 406.474 172.235 406.868 171.614C407.262 170.985 407.788 170.492 408.447 170.136C409.107 169.78 409.834 169.515 410.629 169.341C411.432 169.159 412.239 169.015 413.05 168.909C414.11 168.773 414.97 168.67 415.629 168.602C416.296 168.527 416.781 168.402 417.084 168.227C417.394 168.053 417.55 167.75 417.55 167.318V167.227C417.55 166.106 417.243 165.235 416.629 164.614C416.023 163.992 415.103 163.682 413.868 163.682C412.588 163.682 411.584 163.962 410.857 164.523C410.129 165.083 409.618 165.682 409.322 166.318L406.777 165.409C407.232 164.348 407.838 163.523 408.595 162.932C409.36 162.333 410.194 161.917 411.095 161.682C412.004 161.439 412.898 161.318 413.777 161.318C414.338 161.318 414.982 161.386 415.709 161.523C416.444 161.652 417.152 161.92 417.834 162.33C418.523 162.739 419.095 163.356 419.55 164.182C420.004 165.008 420.232 166.114 420.232 167.5V179H417.55V176.636H417.413C417.232 177.015 416.929 177.42 416.504 177.852C416.08 178.284 415.516 178.652 414.811 178.955C414.107 179.258 413.247 179.409 412.232 179.409ZM412.641 177C413.701 177 414.595 176.792 415.322 176.375C416.057 175.958 416.61 175.42 416.982 174.761C417.36 174.102 417.55 173.409 417.55 172.682V170.227C417.436 170.364 417.186 170.489 416.8 170.602C416.421 170.708 415.982 170.803 415.482 170.886C414.989 170.962 414.508 171.03 414.038 171.091C413.576 171.144 413.201 171.189 412.913 171.227C412.216 171.318 411.565 171.466 410.959 171.67C410.36 171.867 409.875 172.167 409.504 172.568C409.141 172.962 408.959 173.5 408.959 174.182C408.959 175.114 409.304 175.818 409.993 176.295C410.69 176.765 411.572 177 412.641 177ZM422.751 164.045V161.545H436.933V164.045H431.206V179H428.524V164.045H422.751ZM440.845 185.545V161.545H443.436V164.318H443.754C443.951 164.015 444.224 163.629 444.572 163.159C444.929 162.682 445.436 162.258 446.095 161.886C446.762 161.508 447.663 161.318 448.8 161.318C450.269 161.318 451.565 161.686 452.686 162.42C453.807 163.155 454.682 164.197 455.311 165.545C455.94 166.894 456.254 168.485 456.254 170.318C456.254 172.167 455.94 173.769 455.311 175.125C454.682 176.473 453.811 177.519 452.697 178.261C451.584 178.996 450.3 179.364 448.845 179.364C447.724 179.364 446.826 179.178 446.152 178.807C445.478 178.428 444.959 178 444.595 177.523C444.232 177.038 443.951 176.636 443.754 176.318H443.527V185.545H440.845ZM443.482 170.273C443.482 171.591 443.675 172.754 444.061 173.761C444.447 174.761 445.012 175.545 445.754 176.114C446.497 176.674 447.406 176.955 448.482 176.955C449.603 176.955 450.538 176.659 451.288 176.068C452.046 175.47 452.614 174.667 452.993 173.659C453.379 172.644 453.572 171.515 453.572 170.273C453.572 169.045 453.383 167.939 453.004 166.955C452.633 165.962 452.069 165.178 451.311 164.602C450.561 164.019 449.618 163.727 448.482 163.727C447.391 163.727 446.474 164.004 445.732 164.557C444.989 165.102 444.429 165.867 444.05 166.852C443.671 167.83 443.482 168.97 443.482 170.273ZM463.027 175.045L471.436 161.545H474.527V179H471.845V165.5L463.482 179H460.345V161.545H463.027V175.045ZM479.439 179V161.545H486.575C488.454 161.545 489.946 161.97 491.053 162.818C492.159 163.667 492.712 164.788 492.712 166.182C492.712 167.242 492.397 168.064 491.768 168.648C491.14 169.223 490.333 169.614 489.348 169.818C489.992 169.909 490.617 170.136 491.223 170.5C491.837 170.864 492.344 171.364 492.746 172C493.147 172.629 493.348 173.402 493.348 174.318C493.348 175.212 493.121 176.011 492.666 176.716C492.212 177.42 491.56 177.977 490.712 178.386C489.863 178.795 488.848 179 487.666 179H479.439ZM481.984 176.545H487.666C488.59 176.545 489.314 176.326 489.837 175.886C490.359 175.447 490.621 174.848 490.621 174.091C490.621 173.189 490.359 172.481 489.837 171.966C489.314 171.443 488.59 171.182 487.666 171.182H481.984V176.545ZM481.984 168.864H486.575C487.295 168.864 487.912 168.765 488.428 168.568C488.943 168.364 489.337 168.076 489.609 167.705C489.89 167.326 490.03 166.879 490.03 166.364C490.03 165.629 489.723 165.053 489.109 164.636C488.496 164.212 487.651 164 486.575 164H481.984V168.864ZM502.544 179.409C501.438 179.409 500.434 179.201 499.533 178.784C498.631 178.36 497.915 177.75 497.385 176.955C496.855 176.152 496.589 175.182 496.589 174.045C496.589 173.045 496.786 172.235 497.18 171.614C497.574 170.985 498.101 170.492 498.76 170.136C499.419 169.78 500.146 169.515 500.942 169.341C501.745 169.159 502.552 169.015 503.362 168.909C504.423 168.773 505.283 168.67 505.942 168.602C506.608 168.527 507.093 168.402 507.396 168.227C507.707 168.053 507.862 167.75 507.862 167.318V167.227C507.862 166.106 507.555 165.235 506.942 164.614C506.336 163.992 505.415 163.682 504.18 163.682C502.9 163.682 501.896 163.962 501.169 164.523C500.442 165.083 499.93 165.682 499.635 166.318L497.089 165.409C497.544 164.348 498.15 163.523 498.908 162.932C499.673 162.333 500.506 161.917 501.408 161.682C502.317 161.439 503.211 161.318 504.089 161.318C504.65 161.318 505.294 161.386 506.021 161.523C506.756 161.652 507.464 161.92 508.146 162.33C508.836 162.739 509.408 163.356 509.862 164.182C510.317 165.008 510.544 166.114 510.544 167.5V179H507.862V176.636H507.726C507.544 177.015 507.241 177.42 506.817 177.852C506.393 178.284 505.828 178.652 505.124 178.955C504.419 179.258 503.559 179.409 502.544 179.409ZM502.953 177C504.014 177 504.908 176.792 505.635 176.375C506.37 175.958 506.923 175.42 507.294 174.761C507.673 174.102 507.862 173.409 507.862 172.682V170.227C507.749 170.364 507.499 170.489 507.112 170.602C506.733 170.708 506.294 170.803 505.794 170.886C505.302 170.962 504.821 171.03 504.351 171.091C503.889 171.144 503.514 171.189 503.226 171.227C502.529 171.318 501.877 171.466 501.271 171.67C500.673 171.867 500.188 172.167 499.817 172.568C499.453 172.962 499.271 173.5 499.271 174.182C499.271 175.114 499.616 175.818 500.305 176.295C501.002 176.765 501.885 177 502.953 177ZM513.064 164.045V161.545H527.246V164.045H521.518V179H518.837V164.045H513.064ZM533.476 167.864H538.476C540.521 167.864 542.086 168.383 543.169 169.42C544.252 170.458 544.794 171.773 544.794 173.364C544.794 174.409 544.552 175.36 544.067 176.216C543.582 177.064 542.87 177.742 541.93 178.25C540.991 178.75 539.839 179 538.476 179H531.158V161.545H533.839V176.5H538.476C539.536 176.5 540.408 176.22 541.089 175.659C541.771 175.098 542.112 174.379 542.112 173.5C542.112 172.576 541.771 171.822 541.089 171.239C540.408 170.655 539.536 170.364 538.476 170.364H533.476V167.864ZM555.967 179.364C554.331 179.364 552.922 178.977 551.74 178.205C550.558 177.432 549.649 176.367 549.013 175.011C548.376 173.655 548.058 172.106 548.058 170.364C548.058 168.591 548.384 167.027 549.036 165.67C549.695 164.307 550.611 163.242 551.786 162.477C552.967 161.705 554.346 161.318 555.922 161.318C557.149 161.318 558.255 161.545 559.24 162C560.225 162.455 561.032 163.091 561.661 163.909C562.289 164.727 562.679 165.682 562.831 166.773H560.149C559.945 165.977 559.49 165.273 558.786 164.659C558.089 164.038 557.149 163.727 555.967 163.727C554.922 163.727 554.005 164 553.217 164.545C552.437 165.083 551.827 165.845 551.388 166.83C550.956 167.807 550.74 168.955 550.74 170.273C550.74 171.621 550.952 172.795 551.376 173.795C551.808 174.795 552.414 175.572 553.195 176.125C553.982 176.678 554.907 176.955 555.967 176.955C556.664 176.955 557.297 176.833 557.865 176.591C558.433 176.348 558.914 176 559.308 175.545C559.702 175.091 559.982 174.545 560.149 173.909H562.831C562.679 174.939 562.304 175.867 561.706 176.693C561.115 177.511 560.331 178.163 559.354 178.648C558.384 179.125 557.255 179.364 555.967 179.364ZM577.251 179V164H572.615C571.57 164 570.748 164.242 570.149 164.727C569.551 165.212 569.251 165.879 569.251 166.727C569.251 167.561 569.52 168.216 570.058 168.693C570.604 169.17 571.35 169.409 572.297 169.409H577.933V171.909H572.297C571.115 171.909 570.096 171.701 569.24 171.284C568.384 170.867 567.725 170.273 567.263 169.5C566.801 168.72 566.57 167.795 566.57 166.727C566.57 165.652 566.812 164.727 567.297 163.955C567.782 163.182 568.475 162.587 569.376 162.17C570.286 161.754 571.365 161.545 572.615 161.545H579.797V179H577.251ZM565.615 179L570.57 170.318H573.479L568.524 179H565.615ZM195.361 217V199.545H202.497C204.376 199.545 205.868 199.97 206.974 200.818C208.08 201.667 208.634 202.788 208.634 204.182C208.634 205.242 208.319 206.064 207.69 206.648C207.062 207.223 206.255 207.614 205.27 207.818C205.914 207.909 206.539 208.136 207.145 208.5C207.759 208.864 208.266 209.364 208.668 210C209.069 210.629 209.27 211.402 209.27 212.318C209.27 213.212 209.043 214.011 208.588 214.716C208.134 215.42 207.482 215.977 206.634 216.386C205.785 216.795 204.77 217 203.588 217H195.361ZM197.906 214.545H203.588C204.512 214.545 205.236 214.326 205.759 213.886C206.281 213.447 206.543 212.848 206.543 212.091C206.543 211.189 206.281 210.481 205.759 209.966C205.236 209.443 204.512 209.182 203.588 209.182H197.906V214.545ZM197.906 206.864H202.497C203.217 206.864 203.834 206.765 204.349 206.568C204.865 206.364 205.259 206.076 205.531 205.705C205.812 205.326 205.952 204.879 205.952 204.364C205.952 203.629 205.645 203.053 205.031 202.636C204.418 202.212 203.573 202 202.497 202H197.906V206.864ZM221.33 202.045V199.545H235.511V202.045H229.784V217H227.102V202.045H221.33ZM245.835 217.364C244.153 217.364 242.703 216.992 241.483 216.25C240.271 215.5 239.335 214.455 238.676 213.114C238.025 211.765 237.699 210.197 237.699 208.409C237.699 206.621 238.025 205.045 238.676 203.682C239.335 202.311 240.252 201.242 241.426 200.477C242.608 199.705 243.987 199.318 245.562 199.318C246.472 199.318 247.369 199.47 248.256 199.773C249.142 200.076 249.949 200.568 250.676 201.25C251.403 201.924 251.983 202.818 252.415 203.932C252.847 205.045 253.062 206.417 253.062 208.045V209.182H239.608V206.864H250.335C250.335 205.879 250.138 205 249.744 204.227C249.358 203.455 248.805 202.845 248.085 202.398C247.373 201.951 246.532 201.727 245.562 201.727C244.494 201.727 243.57 201.992 242.79 202.523C242.017 203.045 241.422 203.727 241.006 204.568C240.589 205.409 240.381 206.311 240.381 207.273V208.818C240.381 210.136 240.608 211.254 241.062 212.17C241.525 213.08 242.165 213.773 242.983 214.25C243.801 214.72 244.752 214.955 245.835 214.955C246.54 214.955 247.176 214.856 247.744 214.659C248.32 214.455 248.816 214.152 249.233 213.75C249.65 213.341 249.972 212.833 250.199 212.227L252.79 212.955C252.517 213.833 252.059 214.606 251.415 215.273C250.771 215.932 249.975 216.447 249.028 216.818C248.081 217.182 247.017 217.364 245.835 217.364ZM270.597 199.545V217H267.915V199.545H270.597ZM269.551 207.864V210.364C268.945 210.591 268.343 210.792 267.744 210.966C267.146 211.133 266.517 211.265 265.858 211.364C265.199 211.455 264.475 211.5 263.688 211.5C261.71 211.5 260.123 210.966 258.926 209.898C257.737 208.83 257.142 207.227 257.142 205.091V199.5H259.824V205.091C259.824 205.985 259.994 206.72 260.335 207.295C260.676 207.871 261.138 208.299 261.722 208.58C262.305 208.86 262.96 209 263.688 209C264.824 209 265.85 208.898 266.767 208.693C267.691 208.481 268.619 208.205 269.551 207.864ZM282.835 217.364C281.153 217.364 279.703 216.992 278.483 216.25C277.271 215.5 276.335 214.455 275.676 213.114C275.025 211.765 274.699 210.197 274.699 208.409C274.699 206.621 275.025 205.045 275.676 203.682C276.335 202.311 277.252 201.242 278.426 200.477C279.608 199.705 280.987 199.318 282.562 199.318C283.472 199.318 284.369 199.47 285.256 199.773C286.142 200.076 286.949 200.568 287.676 201.25C288.403 201.924 288.983 202.818 289.415 203.932C289.847 205.045 290.062 206.417 290.062 208.045V209.182H276.608V206.864H287.335C287.335 205.879 287.138 205 286.744 204.227C286.358 203.455 285.805 202.845 285.085 202.398C284.373 201.951 283.532 201.727 282.562 201.727C281.494 201.727 280.57 201.992 279.79 202.523C279.017 203.045 278.422 203.727 278.006 204.568C277.589 205.409 277.381 206.311 277.381 207.273V208.818C277.381 210.136 277.608 211.254 278.062 212.17C278.525 213.08 279.165 213.773 279.983 214.25C280.801 214.72 281.752 214.955 282.835 214.955C283.54 214.955 284.176 214.856 284.744 214.659C285.32 214.455 285.816 214.152 286.233 213.75C286.65 213.341 286.972 212.833 287.199 212.227L289.79 212.955C289.517 213.833 289.059 214.606 288.415 215.273C287.771 215.932 286.975 216.447 286.028 216.818C285.081 217.182 284.017 217.364 282.835 217.364ZM305.824 207.045V209.545H296.188V207.045H305.824ZM296.824 199.545V217H294.142V199.545H296.824ZM307.869 199.545V217H305.188V199.545H307.869ZM315.449 213.045L323.858 199.545H326.949V217H324.267V203.5L315.903 217H312.767V199.545H315.449V213.045ZM339.179 217.364C337.497 217.364 336.046 216.992 334.827 216.25C333.615 215.5 332.679 214.455 332.02 213.114C331.368 211.765 331.043 210.197 331.043 208.409C331.043 206.621 331.368 205.045 332.02 203.682C332.679 202.311 333.596 201.242 334.77 200.477C335.952 199.705 337.33 199.318 338.906 199.318C339.815 199.318 340.713 199.47 341.599 199.773C342.486 200.076 343.293 200.568 344.02 201.25C344.747 201.924 345.327 202.818 345.759 203.932C346.19 205.045 346.406 206.417 346.406 208.045V209.182H332.952V206.864H343.679C343.679 205.879 343.482 205 343.088 204.227C342.702 203.455 342.149 202.845 341.429 202.398C340.717 201.951 339.876 201.727 338.906 201.727C337.838 201.727 336.914 201.992 336.134 202.523C335.361 203.045 334.766 203.727 334.349 204.568C333.933 205.409 333.724 206.311 333.724 207.273V208.818C333.724 210.136 333.952 211.254 334.406 212.17C334.868 213.08 335.509 213.773 336.327 214.25C337.145 214.72 338.096 214.955 339.179 214.955C339.884 214.955 340.52 214.856 341.088 214.659C341.664 214.455 342.16 214.152 342.577 213.75C342.993 213.341 343.315 212.833 343.543 212.227L346.134 212.955C345.861 213.833 345.402 214.606 344.759 215.273C344.115 215.932 343.319 216.447 342.372 216.818C341.425 217.182 340.361 217.364 339.179 217.364ZM366.713 217.318C365.38 217.318 364.179 217.053 363.111 216.523C362.043 215.992 361.187 215.265 360.543 214.341C359.899 213.417 359.546 212.364 359.486 211.182H362.213C362.319 212.235 362.796 213.106 363.645 213.795C364.501 214.477 365.524 214.818 366.713 214.818C367.668 214.818 368.516 214.595 369.259 214.148C370.009 213.701 370.596 213.087 371.02 212.307C371.452 211.519 371.668 210.629 371.668 209.636C371.668 208.621 371.444 207.716 370.997 206.92C370.558 206.117 369.952 205.485 369.179 205.023C368.406 204.561 367.524 204.326 366.531 204.318C365.819 204.311 365.088 204.42 364.338 204.648C363.588 204.867 362.971 205.152 362.486 205.5L359.849 205.182L361.259 193.727H373.349V196.227H363.622L362.804 203.091H362.94C363.418 202.712 364.016 202.398 364.736 202.148C365.455 201.898 366.205 201.773 366.986 201.773C368.41 201.773 369.679 202.114 370.793 202.795C371.914 203.47 372.793 204.394 373.429 205.568C374.073 206.742 374.395 208.083 374.395 209.591C374.395 211.076 374.062 212.402 373.395 213.568C372.736 214.727 371.827 215.644 370.668 216.318C369.509 216.985 368.19 217.318 366.713 217.318ZM388.955 204.114V206.614H378.773V204.114H388.955ZM393.636 217L404.045 196.409V196.227H392.045V193.727H406.955V196.364L396.591 217H393.636ZM418.372 222V214.5H419.827C420.183 214.129 420.49 213.727 420.747 213.295C421.005 212.864 421.228 212.352 421.418 211.761C421.615 211.163 421.781 210.436 421.918 209.58C422.054 208.716 422.175 207.674 422.281 206.455L422.872 199.545H433.963V214.5H436.645V222H433.963V217H421.054V222H418.372ZM422.872 214.5H431.281V202.045H425.372L424.918 206.455C424.728 208.28 424.493 209.875 424.213 211.239C423.933 212.602 423.486 213.689 422.872 214.5ZM451.886 207.045V209.545H442.25V207.045H451.886ZM442.886 199.545V217H440.205V199.545H442.886ZM453.932 199.545V217H451.25V199.545H453.932ZM466.148 217.364C464.466 217.364 463.015 216.992 461.795 216.25C460.583 215.5 459.648 214.455 458.989 213.114C458.337 211.765 458.011 210.197 458.011 208.409C458.011 206.621 458.337 205.045 458.989 203.682C459.648 202.311 460.564 201.242 461.739 200.477C462.92 199.705 464.299 199.318 465.875 199.318C466.784 199.318 467.682 199.47 468.568 199.773C469.455 200.076 470.261 200.568 470.989 201.25C471.716 201.924 472.295 202.818 472.727 203.932C473.159 205.045 473.375 206.417 473.375 208.045V209.182H459.92V206.864H470.648C470.648 205.879 470.451 205 470.057 204.227C469.67 203.455 469.117 202.845 468.398 202.398C467.686 201.951 466.845 201.727 465.875 201.727C464.807 201.727 463.883 201.992 463.102 202.523C462.33 203.045 461.735 203.727 461.318 204.568C460.902 205.409 460.693 206.311 460.693 207.273V208.818C460.693 210.136 460.92 211.254 461.375 212.17C461.837 213.08 462.477 213.773 463.295 214.25C464.114 214.72 465.064 214.955 466.148 214.955C466.852 214.955 467.489 214.856 468.057 214.659C468.633 214.455 469.129 214.152 469.545 213.75C469.962 213.341 470.284 212.833 470.511 212.227L473.102 212.955C472.83 213.833 472.371 214.606 471.727 215.273C471.083 215.932 470.288 216.447 469.341 216.818C468.394 217.182 467.33 217.364 466.148 217.364ZM480.136 213.045L488.545 199.545H491.636V217H488.955V203.5L480.591 217H477.455V199.545H480.136V213.045ZM486.773 193.727H489.273C489.273 194.955 488.848 195.958 488 196.739C487.152 197.519 486 197.909 484.545 197.909C483.114 197.909 481.973 197.519 481.125 196.739C480.284 195.958 479.864 194.955 479.864 193.727H482.364C482.364 194.318 482.527 194.837 482.852 195.284C483.186 195.731 483.75 195.955 484.545 195.955C485.341 195.955 485.909 195.731 486.25 195.284C486.598 194.837 486.773 194.318 486.773 193.727Z" fill="black"/>
<path d="M325.473 270.45L329.656 265.93L341.306 278.877L370.929 246.51L375.115 251.033L341.306 287.208L325.473 270.45Z" fill="#BAE0BD"/>
<path d="M370.931 247.02L374.644 251.031L341.305 286.703L325.947 270.447L329.653 266.443L340.831 278.865L341.304 279.391L341.781 278.869L370.931 247.02ZM370.928 246L341.308 278.363L329.659 265.418L325 270.452L341.308 287.713L375.588 251.034L370.928 246Z" fill="#5E9C76"/>
<defs>
<filter id="filter0_d_282_311" x="0" y="0" width="674" height="395" filterUnits="userSpaceOnUse" color-interpolation-filters="sRGB">
<feFlood flood-opacity="0" result="BackgroundImageFix"/>
<feColorMatrix in="SourceAlpha" type="matrix" values="0 0 0 0 0 0 0 0 0 0 0 0 0 0 0 0 0 0 127 0" result="hardAlpha"/>
<feOffset dy="4"/>
<feGaussianBlur stdDeviation="2"/>
<feComposite in2="hardAlpha" operator="out"/>
<feColorMatrix type="matrix" values="0 0 0 0 0 0 0 0 0 0 0 0 0 0 0 0 0 0 0.25 0"/>
<feBlend mode="normal" in2="BackgroundImageFix" result="effect1_dropShadow_282_311"/>
<feBlend mode="normal" in="SourceGraphic" in2="effect1_dropShadow_282_311" result="shape"/>
</filter>
</defs>
</svg>
