<svg width="563" height="300" viewBox="0 0 563 300" fill="none" xmlns="http://www.w3.org/2000/svg">
<g filter="url(#filter0_d_675_318)">
<rect x="4" width="555" height="292" rx="27" fill="white"/>
</g>
<path d="M159.875 105V87.5455H165.978C167.194 87.5455 168.196 87.7557 168.986 88.1761C169.776 88.5909 170.364 89.1506 170.75 89.8551C171.137 90.554 171.33 91.3295 171.33 92.1818C171.33 92.9318 171.196 93.5511 170.929 94.0398C170.668 94.5284 170.321 94.9148 169.89 95.1989C169.463 95.483 169 95.6932 168.5 95.8295V96C169.034 96.0341 169.571 96.2216 170.111 96.5625C170.651 96.9034 171.103 97.392 171.466 98.0284C171.83 98.6648 172.012 99.4432 172.012 100.364C172.012 101.239 171.813 102.026 171.415 102.724C171.017 103.423 170.39 103.977 169.532 104.386C168.674 104.795 167.557 105 166.182 105H159.875ZM161.989 103.125H166.182C167.563 103.125 168.543 102.858 169.123 102.324C169.708 101.784 170 101.131 170 100.364C170 99.7727 169.85 99.2273 169.549 98.7273C169.248 98.2216 168.819 97.8182 168.262 97.517C167.705 97.2102 167.046 97.0568 166.284 97.0568H161.989V103.125ZM161.989 95.2159H165.909C166.546 95.2159 167.12 95.0909 167.631 94.8409C168.148 94.5909 168.557 94.2386 168.858 93.7841C169.165 93.3295 169.319 92.7955 169.319 92.1818C169.319 91.4148 169.051 90.7642 168.517 90.2301C167.983 89.6903 167.137 89.4205 165.978 89.4205H161.989V95.2159ZM176.951 96.6477H180.701C182.235 96.6477 183.408 97.0369 184.221 97.8153C185.033 98.5937 185.439 99.5795 185.439 100.773C185.439 101.557 185.257 102.27 184.894 102.912C184.53 103.548 183.996 104.057 183.292 104.438C182.587 104.812 181.723 105 180.701 105H175.212V91.9091H177.223V103.125H180.701C181.496 103.125 182.15 102.915 182.661 102.494C183.172 102.074 183.428 101.534 183.428 100.875C183.428 100.182 183.172 99.6165 182.661 99.179C182.15 98.7415 181.496 98.5227 180.701 98.5227H176.951V96.6477ZM187.519 105V91.9091H189.53V105H187.519ZM201.257 109.909C200.917 109.909 200.613 109.881 200.346 109.824C200.078 109.773 199.894 109.722 199.792 109.67L200.303 107.898C200.792 108.023 201.223 108.068 201.598 108.034C201.973 108 202.306 107.832 202.596 107.531C202.891 107.236 203.161 106.756 203.405 106.091L203.78 105.068L198.939 91.9091H201.121L204.735 102.341H204.871L208.485 91.9091H210.667L205.11 106.909C204.86 107.585 204.55 108.145 204.181 108.588C203.811 109.037 203.382 109.369 202.894 109.585C202.411 109.801 201.865 109.909 201.257 109.909ZM218.171 105.273C216.944 105.273 215.887 104.983 215 104.403C214.114 103.824 213.432 103.026 212.955 102.009C212.478 100.991 212.239 99.8295 212.239 98.5227C212.239 97.1932 212.483 96.0199 212.972 95.0028C213.466 93.9801 214.154 93.1818 215.034 92.608C215.921 92.0284 216.955 91.7386 218.137 91.7386C219.057 91.7386 219.887 91.9091 220.625 92.25C221.364 92.5909 221.969 93.0682 222.441 93.6818C222.912 94.2955 223.205 95.0114 223.319 95.8295H221.307C221.154 95.233 220.813 94.7045 220.284 94.2443C219.762 93.7784 219.057 93.5455 218.171 93.5455C217.387 93.5455 216.699 93.75 216.108 94.1591C215.523 94.5625 215.066 95.1335 214.736 95.8722C214.412 96.6051 214.25 97.4659 214.25 98.4545C214.25 99.4659 214.409 100.347 214.728 101.097C215.051 101.847 215.506 102.429 216.091 102.844C216.682 103.259 217.375 103.466 218.171 103.466C218.694 103.466 219.168 103.375 219.594 103.193C220.02 103.011 220.381 102.75 220.676 102.409C220.972 102.068 221.182 101.659 221.307 101.182H223.319C223.205 101.955 222.924 102.651 222.475 103.27C222.032 103.884 221.444 104.372 220.711 104.736C219.983 105.094 219.137 105.273 218.171 105.273ZM226.259 105V91.9091H236.554V105H234.543V93.7841H228.27V105H226.259ZM245.716 105.273C244.455 105.273 243.367 104.994 242.452 104.438C241.543 103.875 240.841 103.091 240.347 102.085C239.858 101.074 239.614 99.8977 239.614 98.5568C239.614 97.2159 239.858 96.0341 240.347 95.0114C240.841 93.983 241.529 93.1818 242.409 92.608C243.296 92.0284 244.33 91.7386 245.512 91.7386C246.194 91.7386 246.867 91.8523 247.532 92.0795C248.196 92.3068 248.801 92.6761 249.347 93.1875C249.892 93.6932 250.327 94.3636 250.651 95.1989C250.975 96.0341 251.137 97.0625 251.137 98.2841V99.1364H241.046V97.3977H249.091C249.091 96.6591 248.944 96 248.648 95.4205C248.358 94.8409 247.944 94.3835 247.404 94.0483C246.87 93.7131 246.239 93.5455 245.512 93.5455C244.711 93.5455 244.017 93.7443 243.432 94.142C242.853 94.5341 242.407 95.0455 242.094 95.6761C241.782 96.3068 241.625 96.983 241.625 97.7045V98.8636C241.625 99.8523 241.796 100.69 242.137 101.378C242.483 102.06 242.963 102.58 243.577 102.938C244.191 103.29 244.904 103.466 245.716 103.466C246.245 103.466 246.722 103.392 247.148 103.244C247.58 103.091 247.952 102.864 248.265 102.562C248.577 102.256 248.819 101.875 248.989 101.42L250.932 101.966C250.728 102.625 250.384 103.205 249.901 103.705C249.418 104.199 248.821 104.585 248.111 104.864C247.401 105.136 246.603 105.273 245.716 105.273ZM254.196 91.9091H256.208V103.125H261.151V91.9091H263.162V103.125H268.105V91.9091H270.117V105H254.196V91.9091ZM282.551 97.5341V99.4091H275.324V97.5341H282.551ZM275.801 91.9091V105H273.79V91.9091H275.801ZM284.086 91.9091V105H282.074V91.9091H284.086ZM293.077 105.273C291.895 105.273 290.858 104.991 289.966 104.429C289.08 103.866 288.387 103.08 287.887 102.068C287.392 101.057 287.145 99.875 287.145 98.5227C287.145 97.1591 287.392 95.9687 287.887 94.9517C288.387 93.9347 289.08 93.1449 289.966 92.5824C290.858 92.0199 291.895 91.7386 293.077 91.7386C294.259 91.7386 295.293 92.0199 296.179 92.5824C297.071 93.1449 297.765 93.9347 298.259 94.9517C298.759 95.9687 299.009 97.1591 299.009 98.5227C299.009 99.875 298.759 101.057 298.259 102.068C297.765 103.08 297.071 103.866 296.179 104.429C295.293 104.991 294.259 105.273 293.077 105.273ZM293.077 103.466C293.975 103.466 294.713 103.236 295.293 102.776C295.873 102.315 296.301 101.71 296.58 100.96C296.858 100.21 296.998 99.3977 296.998 98.5227C296.998 97.6477 296.858 96.8324 296.58 96.0767C296.301 95.321 295.873 94.7102 295.293 94.2443C294.713 93.7784 293.975 93.5455 293.077 93.5455C292.179 93.5455 291.441 93.7784 290.861 94.2443C290.282 94.7102 289.853 95.321 289.574 96.0767C289.296 96.8324 289.157 97.6477 289.157 98.5227C289.157 99.3977 289.296 100.21 289.574 100.96C289.853 101.71 290.282 102.315 290.861 102.776C291.441 103.236 292.179 103.466 293.077 103.466ZM307.431 108.75V103.125H308.522C308.789 102.847 309.02 102.545 309.213 102.222C309.406 101.898 309.574 101.514 309.716 101.071C309.863 100.622 309.988 100.077 310.091 99.4347C310.193 98.7869 310.284 98.0057 310.363 97.0909L310.806 91.9091H319.125V103.125H321.136V108.75H319.125V105H309.443V108.75H307.431ZM310.806 103.125H317.113V93.7841H312.681L312.341 97.0909C312.199 98.4602 312.022 99.6562 311.812 100.679C311.602 101.702 311.267 102.517 310.806 103.125ZM329.124 105.273C327.942 105.273 326.905 104.991 326.013 104.429C325.127 103.866 324.434 103.08 323.934 102.068C323.439 101.057 323.192 99.875 323.192 98.5227C323.192 97.1591 323.439 95.9687 323.934 94.9517C324.434 93.9347 325.127 93.1449 326.013 92.5824C326.905 92.0199 327.942 91.7386 329.124 91.7386C330.306 91.7386 331.34 92.0199 332.226 92.5824C333.118 93.1449 333.811 93.9347 334.306 94.9517C334.806 95.9687 335.056 97.1591 335.056 98.5227C335.056 99.875 334.806 101.057 334.306 102.068C333.811 103.08 333.118 103.866 332.226 104.429C331.34 104.991 330.306 105.273 329.124 105.273ZM329.124 103.466C330.022 103.466 330.76 103.236 331.34 102.776C331.919 102.315 332.348 101.71 332.627 100.96C332.905 100.21 333.044 99.3977 333.044 98.5227C333.044 97.6477 332.905 96.8324 332.627 96.0767C332.348 95.321 331.919 94.7102 331.34 94.2443C330.76 93.7784 330.022 93.5455 329.124 93.5455C328.226 93.5455 327.488 93.7784 326.908 94.2443C326.328 94.7102 325.9 95.321 325.621 96.0767C325.343 96.8324 325.203 97.6477 325.203 98.5227C325.203 99.3977 325.343 100.21 325.621 100.96C325.9 101.71 326.328 102.315 326.908 102.776C327.488 103.236 328.226 103.466 329.124 103.466ZM347.842 87L348.865 88.2273C348.467 88.6136 348.007 88.8835 347.484 89.0369C346.961 89.1903 346.37 89.2841 345.711 89.3182C345.052 89.3523 344.319 89.3864 343.512 89.4205C342.603 89.4545 341.85 89.6761 341.254 90.0852C340.657 90.4943 340.197 91.0852 339.873 91.858C339.549 92.6307 339.342 93.5795 339.251 94.7045H339.422C339.865 93.8864 340.478 93.2841 341.262 92.8977C342.047 92.5114 342.887 92.3182 343.785 92.3182C344.808 92.3182 345.728 92.5568 346.547 93.0341C347.365 93.5114 348.012 94.2188 348.49 95.1562C348.967 96.0938 349.206 97.25 349.206 98.625C349.206 99.9943 348.961 101.176 348.473 102.17C347.99 103.165 347.311 103.932 346.436 104.472C345.566 105.006 344.547 105.273 343.376 105.273C342.206 105.273 341.18 104.997 340.299 104.446C339.419 103.889 338.734 103.065 338.245 101.974C337.757 100.878 337.512 99.5227 337.512 97.9091V96.5114C337.512 93.5966 338.007 91.3864 338.995 89.8807C339.99 88.375 341.484 87.5966 343.478 87.5455C344.183 87.5227 344.811 87.517 345.362 87.5284C345.913 87.5398 346.393 87.5142 346.802 87.4517C347.211 87.3892 347.558 87.2386 347.842 87ZM343.376 103.466C344.166 103.466 344.845 103.267 345.413 102.869C345.987 102.472 346.427 101.912 346.734 101.19C347.041 100.463 347.194 99.608 347.194 98.625C347.194 97.6705 347.038 96.858 346.725 96.1875C346.419 95.517 345.978 95.0057 345.404 94.6534C344.831 94.3011 344.143 94.125 343.342 94.125C342.757 94.125 342.231 94.2244 341.765 94.4233C341.299 94.6222 340.902 94.9148 340.572 95.3011C340.243 95.6875 339.987 96.1591 339.805 96.7159C339.629 97.2727 339.535 97.9091 339.524 98.625C339.524 100.091 339.868 101.264 340.555 102.145C341.243 103.026 342.183 103.466 343.376 103.466ZM356.135 105.307C355.305 105.307 354.552 105.151 353.876 104.838C353.2 104.52 352.663 104.062 352.265 103.466C351.868 102.864 351.669 102.136 351.669 101.284C351.669 100.534 351.816 99.9261 352.112 99.4602C352.407 98.9886 352.802 98.6193 353.297 98.3523C353.791 98.0852 354.336 97.8864 354.933 97.7557C355.535 97.6193 356.14 97.5114 356.748 97.4318C357.544 97.3295 358.189 97.2528 358.683 97.2017C359.183 97.1449 359.547 97.0511 359.774 96.9205C360.007 96.7898 360.123 96.5625 360.123 96.2386V96.1705C360.123 95.3295 359.893 94.6761 359.433 94.2102C358.978 93.7443 358.288 93.5114 357.362 93.5114C356.402 93.5114 355.649 93.7216 355.103 94.142C354.558 94.5625 354.174 95.0114 353.953 95.4886L352.044 94.8068C352.385 94.0114 352.839 93.392 353.407 92.9489C353.981 92.5 354.606 92.1875 355.282 92.0114C355.964 91.8295 356.635 91.7386 357.294 91.7386C357.714 91.7386 358.197 91.7898 358.743 91.892C359.294 91.9886 359.825 92.1903 360.336 92.4972C360.853 92.804 361.282 93.267 361.623 93.8864C361.964 94.5057 362.135 95.3352 362.135 96.375V105H360.123V103.227H360.021C359.885 103.511 359.657 103.815 359.339 104.139C359.021 104.463 358.598 104.739 358.069 104.966C357.541 105.193 356.896 105.307 356.135 105.307ZM356.441 103.5C357.237 103.5 357.907 103.344 358.453 103.031C359.004 102.719 359.419 102.315 359.697 101.821C359.981 101.327 360.123 100.807 360.123 100.261V98.4205C360.038 98.5227 359.85 98.6165 359.561 98.7017C359.277 98.7812 358.947 98.8523 358.572 98.9148C358.203 98.9716 357.842 99.0227 357.49 99.0682C357.143 99.108 356.862 99.142 356.646 99.1705C356.123 99.2386 355.635 99.3494 355.18 99.5028C354.731 99.6506 354.368 99.875 354.089 100.176C353.816 100.472 353.68 100.875 353.68 101.386C353.68 102.085 353.939 102.614 354.456 102.972C354.978 103.324 355.64 103.5 356.441 103.5ZM365.806 105V91.9091H371.158C372.567 91.9091 373.686 92.2273 374.516 92.8636C375.346 93.5 375.76 94.3409 375.76 95.3864C375.76 96.1818 375.525 96.7983 375.053 97.2358C374.581 97.6676 373.976 97.9602 373.238 98.1136C373.721 98.1818 374.189 98.3523 374.644 98.625C375.104 98.8977 375.485 99.2727 375.786 99.75C376.087 100.222 376.238 100.801 376.238 101.489C376.238 102.159 376.067 102.759 375.726 103.287C375.385 103.815 374.897 104.233 374.26 104.54C373.624 104.847 372.863 105 371.976 105H365.806ZM367.715 103.159H371.976C372.669 103.159 373.212 102.994 373.604 102.665C373.996 102.335 374.192 101.886 374.192 101.318C374.192 100.642 373.996 100.111 373.604 99.7244C373.212 99.3324 372.669 99.1364 371.976 99.1364H367.715V103.159ZM367.715 97.3977H371.158C371.698 97.3977 372.161 97.3239 372.547 97.1761C372.934 97.0227 373.229 96.8068 373.434 96.5284C373.644 96.2443 373.749 95.9091 373.749 95.5227C373.749 94.9716 373.519 94.5398 373.059 94.2273C372.598 93.9091 371.965 93.75 371.158 93.75H367.715V97.3977ZM381.294 102.034L387.6 91.9091H389.919V105H387.907V94.875L381.635 105H379.282V91.9091H381.294V102.034ZM392.444 105V103.125H392.921C393.313 103.125 393.64 103.048 393.901 102.895C394.162 102.736 394.373 102.46 394.532 102.068C394.696 101.67 394.821 101.119 394.907 100.415C394.998 99.7045 395.063 98.8011 395.103 97.7045L395.341 91.9091H404.069V105H402.057V93.7841H397.25L397.046 98.4545C397 99.5284 396.904 100.474 396.756 101.293C396.614 102.105 396.395 102.787 396.1 103.338C395.81 103.889 395.424 104.304 394.941 104.582C394.458 104.861 393.853 105 393.125 105H392.444ZM409.77 102.034L416.077 91.9091H418.395V105H416.384V94.875L410.111 105H407.759V91.9091H409.77V102.034ZM224.667 130.659H226.815C226.86 131.25 227.127 131.699 227.616 132.006C228.11 132.312 228.752 132.466 229.542 132.466C230.349 132.466 231.039 132.301 231.613 131.972C232.187 131.636 232.474 131.097 232.474 130.352C232.474 129.915 232.366 129.534 232.15 129.21C231.934 128.881 231.63 128.625 231.238 128.443C230.846 128.261 230.383 128.17 229.849 128.17H227.599V126.364H229.849C230.65 126.364 231.241 126.182 231.622 125.818C232.008 125.455 232.201 125 232.201 124.455C232.201 123.869 231.994 123.401 231.579 123.048C231.164 122.69 230.576 122.511 229.815 122.511C229.048 122.511 228.409 122.685 227.897 123.031C227.386 123.372 227.116 123.812 227.088 124.352H224.974C224.997 123.648 225.213 123.026 225.622 122.486C226.031 121.94 226.588 121.514 227.292 121.207C227.997 120.895 228.804 120.739 229.713 120.739C230.633 120.739 231.431 120.901 232.108 121.224C232.789 121.543 233.315 121.977 233.684 122.528C234.059 123.074 234.247 123.693 234.247 124.386C234.247 125.125 234.039 125.722 233.625 126.176C233.21 126.631 232.69 126.955 232.065 127.148V127.284C232.559 127.318 232.988 127.477 233.352 127.761C233.721 128.04 234.008 128.406 234.213 128.861C234.417 129.31 234.52 129.807 234.52 130.352C234.52 131.148 234.306 131.841 233.88 132.432C233.454 133.017 232.869 133.472 232.125 133.795C231.38 134.114 230.531 134.273 229.576 134.273C228.65 134.273 227.821 134.122 227.088 133.821C226.355 133.514 225.772 133.091 225.341 132.551C224.914 132.006 224.69 131.375 224.667 130.659ZM241.197 134.307C240.368 134.307 239.615 134.151 238.939 133.838C238.262 133.52 237.725 133.062 237.328 132.466C236.93 131.864 236.731 131.136 236.731 130.284C236.731 129.534 236.879 128.926 237.174 128.46C237.47 127.989 237.865 127.619 238.359 127.352C238.853 127.085 239.399 126.886 239.995 126.756C240.598 126.619 241.203 126.511 241.811 126.432C242.606 126.33 243.251 126.253 243.745 126.202C244.245 126.145 244.609 126.051 244.836 125.92C245.069 125.79 245.186 125.562 245.186 125.239V125.17C245.186 124.33 244.956 123.676 244.495 123.21C244.041 122.744 243.35 122.511 242.424 122.511C241.464 122.511 240.711 122.722 240.166 123.142C239.62 123.562 239.237 124.011 239.015 124.489L237.106 123.807C237.447 123.011 237.902 122.392 238.47 121.949C239.044 121.5 239.669 121.187 240.345 121.011C241.027 120.83 241.697 120.739 242.356 120.739C242.777 120.739 243.26 120.79 243.805 120.892C244.356 120.989 244.887 121.19 245.399 121.497C245.916 121.804 246.345 122.267 246.686 122.886C247.027 123.506 247.197 124.335 247.197 125.375V134H245.186V132.227H245.083C244.947 132.511 244.72 132.815 244.402 133.139C244.083 133.463 243.66 133.739 243.132 133.966C242.603 134.193 241.958 134.307 241.197 134.307ZM241.504 132.5C242.299 132.5 242.97 132.344 243.515 132.031C244.066 131.719 244.481 131.315 244.76 130.821C245.044 130.327 245.186 129.807 245.186 129.261V127.42C245.1 127.523 244.913 127.616 244.623 127.702C244.339 127.781 244.01 127.852 243.635 127.915C243.265 127.972 242.904 128.023 242.552 128.068C242.206 128.108 241.924 128.142 241.708 128.17C241.186 128.239 240.697 128.349 240.243 128.503C239.794 128.651 239.43 128.875 239.152 129.176C238.879 129.472 238.743 129.875 238.743 130.386C238.743 131.085 239.001 131.614 239.518 131.972C240.041 132.324 240.703 132.5 241.504 132.5ZM250.868 134V120.909H256.221C257.63 120.909 258.749 121.227 259.578 121.864C260.408 122.5 260.823 123.341 260.823 124.386C260.823 125.182 260.587 125.798 260.115 126.236C259.644 126.668 259.039 126.96 258.3 127.114C258.783 127.182 259.252 127.352 259.706 127.625C260.167 127.898 260.547 128.273 260.848 128.75C261.15 129.222 261.3 129.801 261.3 130.489C261.3 131.159 261.13 131.759 260.789 132.287C260.448 132.815 259.959 133.233 259.323 133.54C258.686 133.847 257.925 134 257.039 134H250.868ZM252.777 132.159H257.039C257.732 132.159 258.275 131.994 258.667 131.665C259.059 131.335 259.255 130.886 259.255 130.318C259.255 129.642 259.059 129.111 258.667 128.724C258.275 128.332 257.732 128.136 257.039 128.136H252.777V132.159ZM252.777 126.398H256.221C256.76 126.398 257.223 126.324 257.61 126.176C257.996 126.023 258.292 125.807 258.496 125.528C258.706 125.244 258.811 124.909 258.811 124.523C258.811 123.972 258.581 123.54 258.121 123.227C257.661 122.909 257.027 122.75 256.221 122.75H252.777V126.398ZM269.833 134.273C268.572 134.273 267.484 133.994 266.569 133.438C265.66 132.875 264.958 132.091 264.464 131.085C263.975 130.074 263.731 128.898 263.731 127.557C263.731 126.216 263.975 125.034 264.464 124.011C264.958 122.983 265.646 122.182 266.527 121.608C267.413 121.028 268.447 120.739 269.629 120.739C270.311 120.739 270.984 120.852 271.649 121.08C272.314 121.307 272.919 121.676 273.464 122.188C274.01 122.693 274.444 123.364 274.768 124.199C275.092 125.034 275.254 126.062 275.254 127.284V128.136H265.163V126.398H273.208C273.208 125.659 273.061 125 272.765 124.42C272.475 123.841 272.061 123.384 271.521 123.048C270.987 122.713 270.356 122.545 269.629 122.545C268.828 122.545 268.135 122.744 267.549 123.142C266.97 123.534 266.524 124.045 266.211 124.676C265.899 125.307 265.743 125.983 265.743 126.705V127.864C265.743 128.852 265.913 129.69 266.254 130.378C266.6 131.06 267.081 131.58 267.694 131.938C268.308 132.29 269.021 132.466 269.833 132.466C270.362 132.466 270.839 132.392 271.265 132.244C271.697 132.091 272.069 131.864 272.382 131.562C272.694 131.256 272.936 130.875 273.106 130.42L275.049 130.966C274.845 131.625 274.501 132.205 274.018 132.705C273.535 133.199 272.939 133.585 272.228 133.864C271.518 134.136 270.72 134.273 269.833 134.273ZM276.916 137.75V132.125H278.007C278.274 131.847 278.504 131.545 278.697 131.222C278.89 130.898 279.058 130.514 279.2 130.071C279.348 129.622 279.473 129.077 279.575 128.435C279.677 127.787 279.768 127.006 279.848 126.091L280.291 120.909H288.609V132.125H290.62V137.75H288.609V134H278.927V137.75H276.916ZM280.291 132.125H286.598V122.784H282.166L281.825 126.091C281.683 127.46 281.507 128.656 281.297 129.679C281.086 130.702 280.751 131.517 280.291 132.125ZM298.779 134.273C297.517 134.273 296.429 133.994 295.515 133.438C294.605 132.875 293.904 132.091 293.409 131.085C292.921 130.074 292.676 128.898 292.676 127.557C292.676 126.216 292.921 125.034 293.409 124.011C293.904 122.983 294.591 122.182 295.472 121.608C296.358 121.028 297.392 120.739 298.574 120.739C299.256 120.739 299.929 120.852 300.594 121.08C301.259 121.307 301.864 121.676 302.409 122.188C302.955 122.693 303.39 123.364 303.713 124.199C304.037 125.034 304.199 126.062 304.199 127.284V128.136H294.108V126.398H302.154C302.154 125.659 302.006 125 301.711 124.42C301.421 123.841 301.006 123.384 300.466 123.048C299.932 122.713 299.301 122.545 298.574 122.545C297.773 122.545 297.08 122.744 296.495 123.142C295.915 123.534 295.469 124.045 295.157 124.676C294.844 125.307 294.688 125.983 294.688 126.705V127.864C294.688 128.852 294.858 129.69 295.199 130.378C295.546 131.06 296.026 131.58 296.64 131.938C297.253 132.29 297.966 132.466 298.779 132.466C299.307 132.466 299.784 132.392 300.211 132.244C300.642 132.091 301.015 131.864 301.327 131.562C301.64 131.256 301.881 130.875 302.051 130.42L303.995 130.966C303.79 131.625 303.446 132.205 302.963 132.705C302.48 133.199 301.884 133.585 301.174 133.864C300.463 134.136 299.665 134.273 298.779 134.273ZM316.02 126.534V128.409H308.793V126.534H316.02ZM309.27 120.909V134H307.259V120.909H309.27ZM317.554 120.909V134H315.543V120.909H317.554ZM323.239 131.034L329.546 120.909H331.864V134H329.853V123.875L323.58 134H321.228V120.909H323.239V131.034ZM341.037 134.273C339.775 134.273 338.687 133.994 337.772 133.438C336.863 132.875 336.162 132.091 335.667 131.085C335.179 130.074 334.934 128.898 334.934 127.557C334.934 126.216 335.179 125.034 335.667 124.011C336.162 122.983 336.849 122.182 337.73 121.608C338.616 121.028 339.65 120.739 340.832 120.739C341.514 120.739 342.187 120.852 342.852 121.08C343.517 121.307 344.122 121.676 344.667 122.188C345.213 122.693 345.647 123.364 345.971 124.199C346.295 125.034 346.457 126.062 346.457 127.284V128.136H336.366V126.398H344.412C344.412 125.659 344.264 125 343.968 124.42C343.679 123.841 343.264 123.384 342.724 123.048C342.19 122.713 341.559 122.545 340.832 122.545C340.031 122.545 339.338 122.744 338.752 123.142C338.173 123.534 337.727 124.045 337.414 124.676C337.102 125.307 336.946 125.983 336.946 126.705V127.864C336.946 128.852 337.116 129.69 337.457 130.378C337.804 131.06 338.284 131.58 338.897 131.938C339.511 132.29 340.224 132.466 341.037 132.466C341.565 132.466 342.042 132.392 342.468 132.244C342.9 132.091 343.272 131.864 343.585 131.562C343.897 131.256 344.139 130.875 344.309 130.42L346.252 130.966C346.048 131.625 345.704 132.205 345.221 132.705C344.738 133.199 344.142 133.585 343.431 133.864C342.721 134.136 341.923 134.273 341.037 134.273ZM352.176 116.545L352.005 129.091H350.028L349.858 116.545H352.176ZM351.017 134.136C350.596 134.136 350.235 133.986 349.934 133.685C349.633 133.384 349.483 133.023 349.483 132.602C349.483 132.182 349.633 131.821 349.934 131.52C350.235 131.219 350.596 131.068 351.017 131.068C351.437 131.068 351.798 131.219 352.099 131.52C352.4 131.821 352.551 132.182 352.551 132.602C352.551 132.881 352.48 133.136 352.338 133.369C352.201 133.602 352.017 133.79 351.784 133.932C351.556 134.068 351.301 134.136 351.017 134.136Z" fill="black"/>
<path d="M271.812 183.734L274.568 180.873L282.244 189.069L301.764 168.578L304.522 171.441L282.244 194.343L271.812 183.734Z" fill="#BAE0BD"/>
<path d="M301.765 168.901L304.211 171.441L282.244 194.025L272.124 183.733L274.566 181.198L281.931 189.063L282.243 189.396L282.557 189.066L301.765 168.901ZM301.763 168.256L282.246 188.745L274.57 180.549L271.5 183.737L282.246 194.664L304.833 171.443L301.763 168.256Z" fill="#5E9C76"/>
<defs>
<filter id="filter0_d_675_318" x="0" y="0" width="563" height="300" filterUnits="userSpaceOnUse" color-interpolation-filters="sRGB">
<feFlood flood-opacity="0" result="BackgroundImageFix"/>
<feColorMatrix in="SourceAlpha" type="matrix" values="0 0 0 0 0 0 0 0 0 0 0 0 0 0 0 0 0 0 127 0" result="hardAlpha"/>
<feOffset dy="4"/>
<feGaussianBlur stdDeviation="2"/>
<feComposite in2="hardAlpha" operator="out"/>
<feColorMatrix type="matrix" values="0 0 0 0 0 0 0 0 0 0 0 0 0 0 0 0 0 0 0.25 0"/>
<feBlend mode="normal" in2="BackgroundImageFix" result="effect1_dropShadow_675_318"/>
<feBlend mode="normal" in="SourceGraphic" in2="effect1_dropShadow_675_318" result="shape"/>
</filter>
</defs>
</svg>
