<svg width="563" height="300" viewBox="0 0 563 300" fill="none" xmlns="http://www.w3.org/2000/svg">
<g filter="url(#filter0_d_645_319)">
<rect x="4" width="555" height="292" rx="27" fill="white"/>
</g>
<path d="M147.078 117.321V99.8663H153.181C154.397 99.8663 155.4 100.076 156.189 100.497C156.979 100.912 157.567 101.471 157.953 102.176C158.34 102.875 158.533 103.65 158.533 104.503C158.533 105.253 158.4 105.872 158.132 106.361C157.871 106.849 157.525 107.236 157.093 107.52C156.667 107.804 156.203 108.014 155.703 108.15V108.321C156.238 108.355 156.775 108.542 157.314 108.883C157.854 109.224 158.306 109.713 158.669 110.349C159.033 110.986 159.215 111.764 159.215 112.684C159.215 113.559 159.016 114.346 158.618 115.045C158.221 115.744 157.593 116.298 156.735 116.707C155.877 117.116 154.76 117.321 153.385 117.321H147.078ZM149.192 115.446H153.385C154.766 115.446 155.746 115.179 156.326 114.645C156.911 114.105 157.203 113.451 157.203 112.684C157.203 112.094 157.053 111.548 156.752 111.048C156.451 110.542 156.022 110.139 155.465 109.838C154.908 109.531 154.249 109.378 153.488 109.378H149.192V115.446ZM149.192 107.537H153.113C153.749 107.537 154.323 107.412 154.834 107.162C155.351 106.912 155.76 106.559 156.061 106.105C156.368 105.65 156.522 105.116 156.522 104.503C156.522 103.736 156.255 103.085 155.721 102.551C155.186 102.011 154.34 101.741 153.181 101.741H149.192V107.537ZM164.154 108.969H167.904C169.438 108.969 170.611 109.358 171.424 110.136C172.236 110.915 172.642 111.9 172.642 113.094C172.642 113.878 172.461 114.591 172.097 115.233C171.733 115.869 171.199 116.378 170.495 116.758C169.79 117.133 168.926 117.321 167.904 117.321H162.415V104.23H164.426V115.446H167.904C168.699 115.446 169.353 115.236 169.864 114.815C170.375 114.395 170.631 113.855 170.631 113.196C170.631 112.503 170.375 111.937 169.864 111.5C169.353 111.062 168.699 110.844 167.904 110.844H164.154V108.969ZM174.722 117.321V104.23H176.733V117.321H174.722ZM188.461 122.23C188.12 122.23 187.816 122.201 187.549 122.145C187.282 122.094 187.097 122.042 186.995 121.991L187.506 120.219C187.995 120.344 188.426 120.389 188.801 120.355C189.176 120.321 189.509 120.153 189.799 119.852C190.094 119.557 190.364 119.076 190.608 118.412L190.983 117.389L186.142 104.23H188.324L191.938 114.662H192.074L195.688 104.23H197.87L192.313 119.23C192.063 119.906 191.753 120.466 191.384 120.909C191.015 121.358 190.586 121.69 190.097 121.906C189.614 122.122 189.069 122.23 188.461 122.23ZM205.374 117.594C204.147 117.594 203.09 117.304 202.203 116.724C201.317 116.145 200.635 115.346 200.158 114.329C199.681 113.312 199.442 112.15 199.442 110.844C199.442 109.514 199.686 108.341 200.175 107.324C200.669 106.301 201.357 105.503 202.238 104.929C203.124 104.349 204.158 104.059 205.34 104.059C206.26 104.059 207.09 104.23 207.828 104.571C208.567 104.912 209.172 105.389 209.644 106.003C210.115 106.616 210.408 107.332 210.522 108.15H208.51C208.357 107.554 208.016 107.025 207.488 106.565C206.965 106.099 206.26 105.866 205.374 105.866C204.59 105.866 203.902 106.071 203.311 106.48C202.726 106.883 202.269 107.454 201.939 108.193C201.615 108.926 201.453 109.787 201.453 110.775C201.453 111.787 201.613 112.667 201.931 113.417C202.255 114.167 202.709 114.75 203.294 115.165C203.885 115.579 204.578 115.787 205.374 115.787C205.897 115.787 206.371 115.696 206.797 115.514C207.223 115.332 207.584 115.071 207.88 114.73C208.175 114.389 208.385 113.98 208.51 113.503H210.522C210.408 114.275 210.127 114.971 209.678 115.591C209.235 116.204 208.647 116.693 207.914 117.057C207.186 117.415 206.34 117.594 205.374 117.594ZM213.462 117.321V104.23H223.757V117.321H221.746V106.105H215.473V117.321H213.462ZM232.919 117.594C231.658 117.594 230.57 117.315 229.655 116.758C228.746 116.196 228.044 115.412 227.55 114.406C227.061 113.395 226.817 112.219 226.817 110.878C226.817 109.537 227.061 108.355 227.55 107.332C228.044 106.304 228.732 105.503 229.613 104.929C230.499 104.349 231.533 104.059 232.715 104.059C233.397 104.059 234.07 104.173 234.735 104.4C235.4 104.628 236.005 104.997 236.55 105.508C237.096 106.014 237.53 106.684 237.854 107.52C238.178 108.355 238.34 109.383 238.34 110.605V111.457H228.249V109.719H236.294C236.294 108.98 236.147 108.321 235.851 107.741C235.561 107.162 235.147 106.704 234.607 106.369C234.073 106.034 233.442 105.866 232.715 105.866C231.914 105.866 231.221 106.065 230.635 106.463C230.056 106.855 229.61 107.366 229.297 107.997C228.985 108.628 228.828 109.304 228.828 110.025V111.184C228.828 112.173 228.999 113.011 229.34 113.699C229.686 114.38 230.167 114.9 230.78 115.258C231.394 115.611 232.107 115.787 232.919 115.787C233.448 115.787 233.925 115.713 234.351 115.565C234.783 115.412 235.155 115.184 235.468 114.883C235.78 114.576 236.022 114.196 236.192 113.741L238.135 114.287C237.931 114.946 237.587 115.525 237.104 116.025C236.621 116.52 236.025 116.906 235.314 117.184C234.604 117.457 233.806 117.594 232.919 117.594ZM241.4 104.23H243.411V115.446H248.354V104.23H250.365V115.446H255.309V104.23H257.32V117.321H241.4V104.23ZM269.755 109.855V111.73H262.527V109.855H269.755ZM263.005 104.23V117.321H260.993V104.23H263.005ZM271.289 104.23V117.321H269.277V104.23H271.289ZM280.28 117.594C279.098 117.594 278.061 117.312 277.169 116.75C276.283 116.187 275.59 115.4 275.09 114.389C274.596 113.378 274.348 112.196 274.348 110.844C274.348 109.48 274.596 108.29 275.09 107.273C275.59 106.255 276.283 105.466 277.169 104.903C278.061 104.341 279.098 104.059 280.28 104.059C281.462 104.059 282.496 104.341 283.382 104.903C284.275 105.466 284.968 106.255 285.462 107.273C285.962 108.29 286.212 109.48 286.212 110.844C286.212 112.196 285.962 113.378 285.462 114.389C284.968 115.4 284.275 116.187 283.382 116.75C282.496 117.312 281.462 117.594 280.28 117.594ZM280.28 115.787C281.178 115.787 281.917 115.557 282.496 115.096C283.076 114.636 283.505 114.031 283.783 113.281C284.061 112.531 284.201 111.719 284.201 110.844C284.201 109.969 284.061 109.153 283.783 108.398C283.505 107.642 283.076 107.031 282.496 106.565C281.917 106.099 281.178 105.866 280.28 105.866C279.382 105.866 278.644 106.099 278.064 106.565C277.485 107.031 277.056 107.642 276.777 108.398C276.499 109.153 276.36 109.969 276.36 110.844C276.36 111.719 276.499 112.531 276.777 113.281C277.056 114.031 277.485 114.636 278.064 115.096C278.644 115.557 279.382 115.787 280.28 115.787ZM296.032 117.321V104.23H306.328V117.321H304.316V106.105H298.044V117.321H296.032ZM315.49 117.594C314.228 117.594 313.14 117.315 312.225 116.758C311.316 116.196 310.615 115.412 310.12 114.406C309.632 113.395 309.387 112.219 309.387 110.878C309.387 109.537 309.632 108.355 310.12 107.332C310.615 106.304 311.302 105.503 312.183 104.929C313.069 104.349 314.103 104.059 315.285 104.059C315.967 104.059 316.64 104.173 317.305 104.4C317.97 104.628 318.575 104.997 319.12 105.508C319.666 106.014 320.1 106.684 320.424 107.52C320.748 108.355 320.91 109.383 320.91 110.605V111.457H310.819V109.719H318.865C318.865 108.98 318.717 108.321 318.422 107.741C318.132 107.162 317.717 106.704 317.177 106.369C316.643 106.034 316.012 105.866 315.285 105.866C314.484 105.866 313.791 106.065 313.206 106.463C312.626 106.855 312.18 107.366 311.868 107.997C311.555 108.628 311.399 109.304 311.399 110.025V111.184C311.399 112.173 311.569 113.011 311.91 113.699C312.257 114.38 312.737 114.9 313.35 115.258C313.964 115.611 314.677 115.787 315.49 115.787C316.018 115.787 316.495 115.713 316.922 115.565C317.353 115.412 317.725 115.184 318.038 114.883C318.35 114.576 318.592 114.196 318.762 113.741L320.706 114.287C320.501 114.946 320.157 115.525 319.674 116.025C319.191 116.52 318.595 116.906 317.885 117.184C317.174 117.457 316.376 117.594 315.49 117.594ZM323.97 122.23V104.23H325.913V106.309H326.152C326.299 106.082 326.504 105.792 326.765 105.44C327.032 105.082 327.413 104.764 327.907 104.486C328.407 104.201 329.083 104.059 329.936 104.059C331.038 104.059 332.01 104.335 332.85 104.886C333.691 105.437 334.348 106.219 334.819 107.23C335.291 108.241 335.527 109.434 335.527 110.809C335.527 112.196 335.291 113.398 334.819 114.415C334.348 115.426 333.694 116.21 332.859 116.767C332.024 117.318 331.061 117.594 329.97 117.594C329.129 117.594 328.456 117.454 327.95 117.176C327.444 116.892 327.055 116.571 326.782 116.213C326.51 115.849 326.299 115.548 326.152 115.309H325.981V122.23H323.97ZM325.947 110.775C325.947 111.764 326.092 112.636 326.382 113.392C326.672 114.142 327.095 114.73 327.652 115.156C328.208 115.576 328.89 115.787 329.697 115.787C330.538 115.787 331.24 115.565 331.802 115.122C332.37 114.673 332.797 114.071 333.081 113.315C333.37 112.554 333.515 111.707 333.515 110.775C333.515 109.855 333.373 109.025 333.089 108.287C332.811 107.542 332.387 106.954 331.819 106.523C331.257 106.085 330.549 105.866 329.697 105.866C328.879 105.866 328.191 106.074 327.635 106.488C327.078 106.898 326.657 107.471 326.373 108.21C326.089 108.943 325.947 109.798 325.947 110.775ZM344.083 117.594C342.822 117.594 341.734 117.315 340.819 116.758C339.91 116.196 339.208 115.412 338.714 114.406C338.225 113.395 337.981 112.219 337.981 110.878C337.981 109.537 338.225 108.355 338.714 107.332C339.208 106.304 339.896 105.503 340.777 104.929C341.663 104.349 342.697 104.059 343.879 104.059C344.561 104.059 345.234 104.173 345.899 104.4C346.564 104.628 347.169 104.997 347.714 105.508C348.26 106.014 348.694 106.684 349.018 107.52C349.342 108.355 349.504 109.383 349.504 110.605V111.457H339.413V109.719H347.458C347.458 108.98 347.311 108.321 347.015 107.741C346.725 107.162 346.311 106.704 345.771 106.369C345.237 106.034 344.606 105.866 343.879 105.866C343.078 105.866 342.385 106.065 341.799 106.463C341.22 106.855 340.774 107.366 340.461 107.997C340.149 108.628 339.993 109.304 339.993 110.025V111.184C339.993 112.173 340.163 113.011 340.504 113.699C340.85 114.38 341.331 114.9 341.944 115.258C342.558 115.611 343.271 115.787 344.083 115.787C344.612 115.787 345.089 115.713 345.515 115.565C345.947 115.412 346.319 115.184 346.632 114.883C346.944 114.576 347.186 114.196 347.356 113.741L349.299 114.287C349.095 114.946 348.751 115.525 348.268 116.025C347.785 116.52 347.189 116.906 346.478 117.184C345.768 117.457 344.97 117.594 344.083 117.594ZM352.564 104.23H354.575V115.446H359.518V104.23H361.529V115.446H366.473V104.23H368.484V117.321H352.564V104.23ZM370.998 117.321V115.446H371.475C371.868 115.446 372.194 115.369 372.456 115.216C372.717 115.057 372.927 114.781 373.086 114.389C373.251 113.991 373.376 113.44 373.461 112.736C373.552 112.025 373.618 111.122 373.657 110.025L373.896 104.23H382.623V117.321H380.612V106.105H375.805L375.6 110.775C375.555 111.849 375.458 112.795 375.311 113.613C375.169 114.426 374.95 115.108 374.654 115.659C374.365 116.21 373.978 116.625 373.495 116.903C373.012 117.182 372.407 117.321 371.68 117.321H370.998ZM388.325 114.355L394.632 104.23H396.95V117.321H394.939V107.196L388.666 117.321H386.314V104.23H388.325V114.355ZM416.145 109.855V111.73H408.918V109.855H416.145ZM409.395 104.23V117.321H407.384V104.23H409.395ZM417.679 104.23V117.321H415.668V104.23H417.679ZM425.205 117.628C424.375 117.628 423.623 117.471 422.946 117.159C422.27 116.841 421.733 116.383 421.336 115.787C420.938 115.184 420.739 114.457 420.739 113.605C420.739 112.855 420.887 112.247 421.182 111.781C421.478 111.309 421.873 110.94 422.367 110.673C422.861 110.406 423.407 110.207 424.003 110.076C424.605 109.94 425.211 109.832 425.819 109.753C426.614 109.65 427.259 109.574 427.753 109.523C428.253 109.466 428.617 109.372 428.844 109.241C429.077 109.111 429.194 108.883 429.194 108.559V108.491C429.194 107.65 428.963 106.997 428.503 106.531C428.049 106.065 427.358 105.832 426.432 105.832C425.472 105.832 424.719 106.042 424.174 106.463C423.628 106.883 423.245 107.332 423.023 107.809L421.114 107.128C421.455 106.332 421.909 105.713 422.478 105.27C423.051 104.821 423.676 104.508 424.353 104.332C425.034 104.15 425.705 104.059 426.364 104.059C426.784 104.059 427.267 104.111 427.813 104.213C428.364 104.309 428.895 104.511 429.407 104.818C429.924 105.125 430.353 105.588 430.694 106.207C431.034 106.826 431.205 107.656 431.205 108.696V117.321H429.194V115.548H429.091C428.955 115.832 428.728 116.136 428.409 116.46C428.091 116.784 427.668 117.059 427.14 117.287C426.611 117.514 425.966 117.628 425.205 117.628ZM425.512 115.821C426.307 115.821 426.978 115.665 427.523 115.352C428.074 115.04 428.489 114.636 428.767 114.142C429.051 113.648 429.194 113.128 429.194 112.582V110.741C429.108 110.844 428.921 110.937 428.631 111.023C428.347 111.102 428.017 111.173 427.642 111.236C427.273 111.292 426.912 111.344 426.56 111.389C426.213 111.429 425.932 111.463 425.716 111.491C425.194 111.559 424.705 111.67 424.25 111.824C423.801 111.971 423.438 112.196 423.159 112.497C422.887 112.792 422.75 113.196 422.75 113.707C422.75 114.406 423.009 114.934 423.526 115.292C424.049 115.645 424.711 115.821 425.512 115.821ZM205.119 128.321L206.142 129.548C205.744 129.934 205.284 130.204 204.761 130.358C204.239 130.511 203.648 130.605 202.989 130.639C202.33 130.673 201.597 130.707 200.79 130.741C199.881 130.775 199.128 130.997 198.531 131.406C197.935 131.815 197.474 132.406 197.151 133.179C196.827 133.951 196.619 134.9 196.528 136.025H196.699C197.142 135.207 197.756 134.605 198.54 134.219C199.324 133.832 200.165 133.639 201.062 133.639C202.085 133.639 203.006 133.878 203.824 134.355C204.642 134.832 205.29 135.54 205.767 136.477C206.244 137.415 206.483 138.571 206.483 139.946C206.483 141.315 206.239 142.497 205.75 143.491C205.267 144.486 204.588 145.253 203.713 145.792C202.844 146.326 201.824 146.594 200.653 146.594C199.483 146.594 198.457 146.318 197.577 145.767C196.696 145.21 196.011 144.386 195.523 143.295C195.034 142.199 194.79 140.844 194.79 139.23V137.832C194.79 134.917 195.284 132.707 196.273 131.201C197.267 129.696 198.761 128.917 200.756 128.866C201.46 128.844 202.088 128.838 202.639 128.849C203.19 128.861 203.67 128.835 204.08 128.773C204.489 128.71 204.835 128.559 205.119 128.321ZM200.653 144.787C201.443 144.787 202.122 144.588 202.69 144.19C203.264 143.792 203.705 143.233 204.011 142.511C204.318 141.784 204.472 140.929 204.472 139.946C204.472 138.991 204.315 138.179 204.003 137.508C203.696 136.838 203.256 136.326 202.682 135.974C202.108 135.622 201.42 135.446 200.619 135.446C200.034 135.446 199.509 135.545 199.043 135.744C198.577 135.943 198.179 136.236 197.849 136.622C197.52 137.008 197.264 137.48 197.082 138.037C196.906 138.594 196.812 139.23 196.801 139.946C196.801 141.412 197.145 142.585 197.832 143.466C198.52 144.346 199.46 144.787 200.653 144.787ZM211.571 143.355L217.878 133.23H220.196V146.321H218.185V136.196L211.912 146.321H209.56V133.23H211.571V143.355ZM223.062 142.98H225.21C225.255 143.571 225.522 144.02 226.011 144.326C226.505 144.633 227.147 144.787 227.937 144.787C228.744 144.787 229.434 144.622 230.008 144.292C230.582 143.957 230.869 143.417 230.869 142.673C230.869 142.236 230.761 141.855 230.545 141.531C230.329 141.201 230.025 140.946 229.633 140.764C229.241 140.582 228.778 140.491 228.244 140.491H225.994V138.684H228.244C229.045 138.684 229.636 138.503 230.016 138.139C230.403 137.775 230.596 137.321 230.596 136.775C230.596 136.19 230.388 135.721 229.974 135.369C229.559 135.011 228.971 134.832 228.21 134.832C227.442 134.832 226.803 135.005 226.292 135.352C225.781 135.693 225.511 136.133 225.482 136.673H223.369C223.391 135.969 223.607 135.346 224.016 134.807C224.425 134.261 224.982 133.835 225.687 133.528C226.391 133.216 227.198 133.059 228.107 133.059C229.028 133.059 229.826 133.221 230.502 133.545C231.184 133.863 231.71 134.298 232.079 134.849C232.454 135.395 232.641 136.014 232.641 136.707C232.641 137.446 232.434 138.042 232.019 138.497C231.604 138.951 231.085 139.275 230.46 139.469V139.605C230.954 139.639 231.383 139.798 231.746 140.082C232.116 140.361 232.403 140.727 232.607 141.182C232.812 141.63 232.914 142.128 232.914 142.673C232.914 143.469 232.701 144.162 232.275 144.753C231.849 145.338 231.263 145.792 230.519 146.116C229.775 146.434 228.925 146.594 227.971 146.594C227.045 146.594 226.215 146.443 225.482 146.142C224.749 145.835 224.167 145.412 223.735 144.872C223.309 144.326 223.085 143.696 223.062 142.98ZM244.501 138.855V140.73H237.273V138.855H244.501ZM237.751 133.23V146.321H235.739V133.23H237.751ZM246.035 133.23V146.321H244.023V133.23H246.035ZM255.197 146.594C253.935 146.594 252.847 146.315 251.933 145.758C251.023 145.196 250.322 144.412 249.827 143.406C249.339 142.395 249.094 141.219 249.094 139.878C249.094 138.537 249.339 137.355 249.827 136.332C250.322 135.304 251.009 134.503 251.89 133.929C252.776 133.349 253.81 133.059 254.992 133.059C255.674 133.059 256.347 133.173 257.012 133.4C257.677 133.628 258.282 133.997 258.827 134.508C259.373 135.014 259.808 135.684 260.131 136.52C260.455 137.355 260.617 138.383 260.617 139.605V140.457H250.526V138.719H258.572C258.572 137.98 258.424 137.321 258.129 136.741C257.839 136.162 257.424 135.704 256.884 135.369C256.35 135.034 255.719 134.866 254.992 134.866C254.191 134.866 253.498 135.065 252.913 135.463C252.333 135.855 251.887 136.366 251.575 136.997C251.262 137.628 251.106 138.304 251.106 139.025V140.184C251.106 141.173 251.276 142.011 251.617 142.699C251.964 143.38 252.444 143.9 253.058 144.258C253.671 144.611 254.384 144.787 255.197 144.787C255.725 144.787 256.202 144.713 256.629 144.565C257.06 144.412 257.433 144.184 257.745 143.883C258.058 143.576 258.299 143.196 258.469 142.741L260.413 143.287C260.208 143.946 259.864 144.525 259.381 145.025C258.898 145.52 258.302 145.906 257.592 146.184C256.881 146.457 256.083 146.594 255.197 146.594ZM268.995 146.594C267.768 146.594 266.711 146.304 265.825 145.724C264.938 145.145 264.256 144.346 263.779 143.329C263.302 142.312 263.063 141.15 263.063 139.844C263.063 138.514 263.308 137.341 263.796 136.324C264.29 135.301 264.978 134.503 265.859 133.929C266.745 133.349 267.779 133.059 268.961 133.059C269.881 133.059 270.711 133.23 271.45 133.571C272.188 133.912 272.793 134.389 273.265 135.003C273.737 135.616 274.029 136.332 274.143 137.15H272.131C271.978 136.554 271.637 136.025 271.109 135.565C270.586 135.099 269.881 134.866 268.995 134.866C268.211 134.866 267.523 135.071 266.933 135.48C266.347 135.883 265.89 136.454 265.56 137.193C265.237 137.926 265.075 138.787 265.075 139.775C265.075 140.787 265.234 141.667 265.552 142.417C265.876 143.167 266.33 143.75 266.915 144.165C267.506 144.579 268.2 144.787 268.995 144.787C269.518 144.787 269.992 144.696 270.418 144.514C270.844 144.332 271.205 144.071 271.501 143.73C271.796 143.389 272.006 142.98 272.131 142.503H274.143C274.029 143.275 273.748 143.971 273.299 144.591C272.856 145.204 272.268 145.693 271.535 146.057C270.808 146.415 269.961 146.594 268.995 146.594ZM284.583 137.9V139.775H276.947V137.9H284.583ZM291.974 146.628C291.145 146.628 290.392 146.471 289.716 146.159C289.04 145.841 288.503 145.383 288.105 144.787C287.707 144.184 287.509 143.457 287.509 142.605C287.509 141.855 287.656 141.247 287.952 140.781C288.247 140.309 288.642 139.94 289.136 139.673C289.631 139.406 290.176 139.207 290.773 139.076C291.375 138.94 291.98 138.832 292.588 138.753C293.384 138.65 294.028 138.574 294.523 138.523C295.023 138.466 295.386 138.372 295.614 138.241C295.847 138.111 295.963 137.883 295.963 137.559V137.491C295.963 136.65 295.733 135.997 295.273 135.531C294.818 135.065 294.128 134.832 293.202 134.832C292.241 134.832 291.489 135.042 290.943 135.463C290.398 135.883 290.014 136.332 289.793 136.809L287.884 136.128C288.224 135.332 288.679 134.713 289.247 134.27C289.821 133.821 290.446 133.508 291.122 133.332C291.804 133.15 292.474 133.059 293.134 133.059C293.554 133.059 294.037 133.111 294.582 133.213C295.134 133.309 295.665 133.511 296.176 133.818C296.693 134.125 297.122 134.588 297.463 135.207C297.804 135.826 297.974 136.656 297.974 137.696V146.321H295.963V144.548H295.861C295.724 144.832 295.497 145.136 295.179 145.46C294.861 145.784 294.438 146.059 293.909 146.287C293.381 146.514 292.736 146.628 291.974 146.628ZM292.281 144.821C293.077 144.821 293.747 144.665 294.293 144.352C294.844 144.04 295.259 143.636 295.537 143.142C295.821 142.648 295.963 142.128 295.963 141.582V139.741C295.878 139.844 295.69 139.937 295.401 140.023C295.116 140.102 294.787 140.173 294.412 140.236C294.043 140.292 293.682 140.344 293.33 140.389C292.983 140.429 292.702 140.463 292.486 140.491C291.963 140.559 291.474 140.67 291.02 140.824C290.571 140.971 290.207 141.196 289.929 141.497C289.656 141.792 289.52 142.196 289.52 142.707C289.52 143.406 289.778 143.934 290.295 144.292C290.818 144.645 291.48 144.821 292.281 144.821ZM301.646 146.321V133.23H303.657V138.923H304.987L309.691 133.23H312.282L306.998 139.537L312.35 146.321H309.759L305.464 140.798H303.657V146.321H301.646ZM314.536 146.321V133.23H316.548V138.923H317.877L322.582 133.23H325.173L319.888 139.537L325.241 146.321H322.65L318.354 140.798H316.548V146.321H314.536ZM331.279 146.628C330.45 146.628 329.697 146.471 329.021 146.159C328.344 145.841 327.808 145.383 327.41 144.787C327.012 144.184 326.813 143.457 326.813 142.605C326.813 141.855 326.961 141.247 327.256 140.781C327.552 140.309 327.947 139.94 328.441 139.673C328.935 139.406 329.481 139.207 330.077 139.076C330.68 138.94 331.285 138.832 331.893 138.753C332.688 138.65 333.333 138.574 333.827 138.523C334.327 138.466 334.691 138.372 334.918 138.241C335.151 138.111 335.268 137.883 335.268 137.559V137.491C335.268 136.65 335.038 135.997 334.577 135.531C334.123 135.065 333.433 134.832 332.506 134.832C331.546 134.832 330.793 135.042 330.248 135.463C329.702 135.883 329.319 136.332 329.097 136.809L327.188 136.128C327.529 135.332 327.984 134.713 328.552 134.27C329.126 133.821 329.751 133.508 330.427 133.332C331.109 133.15 331.779 133.059 332.438 133.059C332.859 133.059 333.342 133.111 333.887 133.213C334.438 133.309 334.969 133.511 335.481 133.818C335.998 134.125 336.427 134.588 336.768 135.207C337.109 135.826 337.279 136.656 337.279 137.696V146.321H335.268V144.548H335.165C335.029 144.832 334.802 145.136 334.484 145.46C334.165 145.784 333.742 146.059 333.214 146.287C332.685 146.514 332.04 146.628 331.279 146.628ZM331.586 144.821C332.381 144.821 333.052 144.665 333.597 144.352C334.148 144.04 334.563 143.636 334.842 143.142C335.126 142.648 335.268 142.128 335.268 141.582V139.741C335.183 139.844 334.995 139.937 334.705 140.023C334.421 140.102 334.092 140.173 333.717 140.236C333.347 140.292 332.987 140.344 332.634 140.389C332.288 140.429 332.006 140.463 331.79 140.491C331.268 140.559 330.779 140.67 330.325 140.824C329.876 140.971 329.512 141.196 329.234 141.497C328.961 141.792 328.825 142.196 328.825 142.707C328.825 143.406 329.083 143.934 329.6 144.292C330.123 144.645 330.785 144.821 331.586 144.821ZM341.777 151.23C341.436 151.23 341.132 151.201 340.865 151.145C340.598 151.094 340.413 151.042 340.311 150.991L340.822 149.219C341.311 149.344 341.743 149.389 342.118 149.355C342.493 149.321 342.825 149.153 343.115 148.852C343.411 148.557 343.68 148.076 343.925 147.412L344.3 146.389L339.459 133.23H341.641L345.254 143.662H345.391L349.004 133.23H351.186L345.629 148.23C345.379 148.906 345.07 149.466 344.7 149.909C344.331 150.358 343.902 150.69 343.413 150.906C342.93 151.122 342.385 151.23 341.777 151.23ZM362.602 138.855V140.73H355.375V138.855H362.602ZM355.852 133.23V146.321H353.841V133.23H355.852ZM364.136 133.23V146.321H362.125V133.23H364.136ZM366.028 135.105V133.23H376.665V135.105H372.369V146.321H370.358V135.105H366.028ZM382.258 128.866L382.087 141.412H380.11L379.94 128.866H382.258ZM381.099 146.457C380.678 146.457 380.317 146.307 380.016 146.005C379.715 145.704 379.565 145.344 379.565 144.923C379.565 144.503 379.715 144.142 380.016 143.841C380.317 143.54 380.678 143.389 381.099 143.389C381.519 143.389 381.88 143.54 382.181 143.841C382.482 144.142 382.633 144.503 382.633 144.923C382.633 145.201 382.562 145.457 382.42 145.69C382.283 145.923 382.099 146.111 381.866 146.253C381.638 146.389 381.383 146.457 381.099 146.457Z" fill="black"/>
<path d="M271.812 183.734L274.568 180.873L282.244 189.069L301.764 168.578L304.522 171.441L282.244 194.343L271.812 183.734Z" fill="#BAE0BD"/>
<path d="M301.765 168.901L304.211 171.441L282.244 194.025L272.124 183.733L274.566 181.198L281.931 189.063L282.243 189.396L282.557 189.066L301.765 168.901ZM301.763 168.256L282.246 188.745L274.57 180.549L271.5 183.737L282.246 194.664L304.833 171.443L301.763 168.256Z" fill="#5E9C76"/>
<defs>
<filter id="filter0_d_645_319" x="0" y="0" width="563" height="300" filterUnits="userSpaceOnUse" color-interpolation-filters="sRGB">
<feFlood flood-opacity="0" result="BackgroundImageFix"/>
<feColorMatrix in="SourceAlpha" type="matrix" values="0 0 0 0 0 0 0 0 0 0 0 0 0 0 0 0 0 0 127 0" result="hardAlpha"/>
<feOffset dy="4"/>
<feGaussianBlur stdDeviation="2"/>
<feComposite in2="hardAlpha" operator="out"/>
<feColorMatrix type="matrix" values="0 0 0 0 0 0 0 0 0 0 0 0 0 0 0 0 0 0 0.25 0"/>
<feBlend mode="normal" in2="BackgroundImageFix" result="effect1_dropShadow_645_319"/>
<feBlend mode="normal" in="SourceGraphic" in2="effect1_dropShadow_645_319" result="shape"/>
</filter>
</defs>
</svg>
