<svg width="563" height="300" viewBox="0 0 563 300" fill="none" xmlns="http://www.w3.org/2000/svg">
<g filter="url(#filter0_d_652_318)">
<rect x="4" width="555" height="292" rx="27" fill="white"/>
</g>
<path d="M128.6 114.545V132H126.487V116.42H117.691V132H115.577V114.545H128.6ZM134.602 129.034L140.909 118.909H143.227V132H141.216V121.875L134.943 132H132.591V118.909H134.602V129.034ZM152.229 132.273C151.002 132.273 149.945 131.983 149.059 131.403C148.173 130.824 147.491 130.026 147.013 129.009C146.536 127.991 146.298 126.83 146.298 125.523C146.298 124.193 146.542 123.02 147.031 122.003C147.525 120.98 148.212 120.182 149.093 119.608C149.979 119.028 151.013 118.739 152.195 118.739C153.116 118.739 153.945 118.909 154.684 119.25C155.423 119.591 156.028 120.068 156.499 120.682C156.971 121.295 157.263 122.011 157.377 122.83H155.366C155.212 122.233 154.871 121.705 154.343 121.244C153.82 120.778 153.116 120.545 152.229 120.545C151.445 120.545 150.758 120.75 150.167 121.159C149.582 121.562 149.124 122.134 148.795 122.872C148.471 123.605 148.309 124.466 148.309 125.455C148.309 126.466 148.468 127.347 148.786 128.097C149.11 128.847 149.565 129.429 150.15 129.844C150.741 130.259 151.434 130.466 152.229 130.466C152.752 130.466 153.227 130.375 153.653 130.193C154.079 130.011 154.44 129.75 154.735 129.409C155.031 129.068 155.241 128.659 155.366 128.182H157.377C157.263 128.955 156.982 129.651 156.533 130.27C156.09 130.884 155.502 131.372 154.769 131.736C154.042 132.094 153.195 132.273 152.229 132.273ZM162.056 123.648H165.806C167.34 123.648 168.513 124.037 169.326 124.815C170.138 125.594 170.545 126.58 170.545 127.773C170.545 128.557 170.363 129.27 169.999 129.912C169.636 130.548 169.102 131.057 168.397 131.438C167.692 131.812 166.829 132 165.806 132H160.317V118.909H162.329V130.125H165.806C166.602 130.125 167.255 129.915 167.766 129.494C168.278 129.074 168.533 128.534 168.533 127.875C168.533 127.182 168.278 126.616 167.766 126.179C167.255 125.741 166.602 125.523 165.806 125.523H162.056V123.648ZM180.766 129.273L185.334 118.909H187.243L181.584 132H179.947L174.391 118.909H176.266L180.766 129.273ZM175.618 118.909V132H173.607V118.909H175.618ZM185.913 132V118.909H187.925V132H185.913ZM196.925 132.273C195.743 132.273 194.706 131.991 193.814 131.429C192.928 130.866 192.234 130.08 191.734 129.068C191.24 128.057 190.993 126.875 190.993 125.523C190.993 124.159 191.24 122.969 191.734 121.952C192.234 120.935 192.928 120.145 193.814 119.582C194.706 119.02 195.743 118.739 196.925 118.739C198.107 118.739 199.141 119.02 200.027 119.582C200.919 120.145 201.612 120.935 202.107 121.952C202.607 122.969 202.857 124.159 202.857 125.523C202.857 126.875 202.607 128.057 202.107 129.068C201.612 130.08 200.919 130.866 200.027 131.429C199.141 131.991 198.107 132.273 196.925 132.273ZM196.925 130.466C197.822 130.466 198.561 130.236 199.141 129.776C199.72 129.315 200.149 128.71 200.428 127.96C200.706 127.21 200.845 126.398 200.845 125.523C200.845 124.648 200.706 123.832 200.428 123.077C200.149 122.321 199.72 121.71 199.141 121.244C198.561 120.778 197.822 120.545 196.925 120.545C196.027 120.545 195.288 120.778 194.709 121.244C194.129 121.71 193.7 122.321 193.422 123.077C193.143 123.832 193.004 124.648 193.004 125.523C193.004 126.398 193.143 127.21 193.422 127.96C193.7 128.71 194.129 129.315 194.709 129.776C195.288 130.236 196.027 130.466 196.925 130.466ZM213.972 136.909C213.631 136.909 213.327 136.881 213.06 136.824C212.793 136.773 212.609 136.722 212.506 136.67L213.018 134.898C213.506 135.023 213.938 135.068 214.313 135.034C214.688 135 215.021 134.832 215.31 134.531C215.606 134.236 215.876 133.756 216.12 133.091L216.495 132.068L211.654 118.909H213.836L217.45 129.341H217.586L221.2 118.909H223.381L217.825 133.909C217.575 134.585 217.265 135.145 216.896 135.588C216.526 136.037 216.097 136.369 215.609 136.585C215.126 136.801 214.58 136.909 213.972 136.909ZM230.886 132.273C229.658 132.273 228.602 131.983 227.715 131.403C226.829 130.824 226.147 130.026 225.67 129.009C225.192 127.991 224.954 126.83 224.954 125.523C224.954 124.193 225.198 123.02 225.687 122.003C226.181 120.98 226.869 120.182 227.749 119.608C228.636 119.028 229.67 118.739 230.852 118.739C231.772 118.739 232.602 118.909 233.34 119.25C234.079 119.591 234.684 120.068 235.156 120.682C235.627 121.295 235.92 122.011 236.033 122.83H234.022C233.869 122.233 233.528 121.705 232.999 121.244C232.477 120.778 231.772 120.545 230.886 120.545C230.102 120.545 229.414 120.75 228.823 121.159C228.238 121.562 227.781 122.134 227.451 122.872C227.127 123.605 226.965 124.466 226.965 125.455C226.965 126.466 227.124 127.347 227.442 128.097C227.766 128.847 228.221 129.429 228.806 129.844C229.397 130.259 230.09 130.466 230.886 130.466C231.408 130.466 231.883 130.375 232.309 130.193C232.735 130.011 233.096 129.75 233.391 129.409C233.687 129.068 233.897 128.659 234.022 128.182H236.033C235.92 128.955 235.638 129.651 235.19 130.27C234.746 130.884 234.158 131.372 233.425 131.736C232.698 132.094 231.852 132.273 230.886 132.273ZM238.974 132V118.909H249.269V132H247.258V120.784H240.985V132H238.974ZM258.431 132.273C257.17 132.273 256.082 131.994 255.167 131.438C254.258 130.875 253.556 130.091 253.062 129.085C252.573 128.074 252.329 126.898 252.329 125.557C252.329 124.216 252.573 123.034 253.062 122.011C253.556 120.983 254.244 120.182 255.124 119.608C256.011 119.028 257.045 118.739 258.227 118.739C258.908 118.739 259.582 118.852 260.246 119.08C260.911 119.307 261.516 119.676 262.062 120.188C262.607 120.693 263.042 121.364 263.366 122.199C263.69 123.034 263.852 124.062 263.852 125.284V126.136H253.761V124.398H261.806C261.806 123.659 261.658 123 261.363 122.42C261.073 121.841 260.658 121.384 260.119 121.048C259.585 120.713 258.954 120.545 258.227 120.545C257.425 120.545 256.732 120.744 256.147 121.142C255.567 121.534 255.121 122.045 254.809 122.676C254.496 123.307 254.34 123.983 254.34 124.705V125.864C254.34 126.852 254.511 127.69 254.852 128.378C255.198 129.06 255.678 129.58 256.292 129.938C256.906 130.29 257.619 130.466 258.431 130.466C258.96 130.466 259.437 130.392 259.863 130.244C260.295 130.091 260.667 129.864 260.979 129.562C261.292 129.256 261.533 128.875 261.704 128.42L263.647 128.966C263.442 129.625 263.099 130.205 262.616 130.705C262.133 131.199 261.536 131.585 260.826 131.864C260.116 132.136 259.317 132.273 258.431 132.273ZM266.911 118.909H268.923V130.125H273.866V118.909H275.877V130.125H280.82V118.909H282.832V132H266.911V118.909ZM295.266 124.534V126.409H288.039V124.534H295.266ZM288.516 118.909V132H286.505V118.909H288.516ZM296.8 118.909V132H294.789V118.909H296.8ZM305.792 132.273C304.61 132.273 303.573 131.991 302.681 131.429C301.795 130.866 301.102 130.08 300.602 129.068C300.107 128.057 299.86 126.875 299.86 125.523C299.86 124.159 300.107 122.969 300.602 121.952C301.102 120.935 301.795 120.145 302.681 119.582C303.573 119.02 304.61 118.739 305.792 118.739C306.974 118.739 308.008 119.02 308.894 119.582C309.786 120.145 310.479 120.935 310.974 121.952C311.474 122.969 311.724 124.159 311.724 125.523C311.724 126.875 311.474 128.057 310.974 129.068C310.479 130.08 309.786 130.866 308.894 131.429C308.008 131.991 306.974 132.273 305.792 132.273ZM305.792 130.466C306.69 130.466 307.428 130.236 308.008 129.776C308.587 129.315 309.016 128.71 309.295 127.96C309.573 127.21 309.712 126.398 309.712 125.523C309.712 124.648 309.573 123.832 309.295 123.077C309.016 122.321 308.587 121.71 308.008 121.244C307.428 120.778 306.69 120.545 305.792 120.545C304.894 120.545 304.156 120.778 303.576 121.244C302.996 121.71 302.567 122.321 302.289 123.077C302.011 123.832 301.871 124.648 301.871 125.523C301.871 126.398 302.011 127.21 302.289 127.96C302.567 128.71 302.996 129.315 303.576 129.776C304.156 130.236 304.894 130.466 305.792 130.466ZM326.862 132.273C325.68 132.273 324.643 131.991 323.751 131.429C322.865 130.866 322.172 130.08 321.672 129.068C321.178 128.057 320.93 126.875 320.93 125.523C320.93 124.159 321.178 122.969 321.672 121.952C322.172 120.935 322.865 120.145 323.751 119.582C324.643 119.02 325.68 118.739 326.862 118.739C328.044 118.739 329.078 119.02 329.964 119.582C330.857 120.145 331.55 120.935 332.044 121.952C332.544 122.969 332.794 124.159 332.794 125.523C332.794 126.875 332.544 128.057 332.044 129.068C331.55 130.08 330.857 130.866 329.964 131.429C329.078 131.991 328.044 132.273 326.862 132.273ZM326.862 130.466C327.76 130.466 328.499 130.236 329.078 129.776C329.658 129.315 330.087 128.71 330.365 127.96C330.643 127.21 330.783 126.398 330.783 125.523C330.783 124.648 330.643 123.832 330.365 123.077C330.087 122.321 329.658 121.71 329.078 121.244C328.499 120.778 327.76 120.545 326.862 120.545C325.964 120.545 325.226 120.778 324.646 121.244C324.067 121.71 323.638 122.321 323.359 123.077C323.081 123.832 322.942 124.648 322.942 125.523C322.942 126.398 323.081 127.21 323.359 127.96C323.638 128.71 324.067 129.315 324.646 129.776C325.226 130.236 325.964 130.466 326.862 130.466ZM334.153 120.784V118.909H344.79V120.784H340.494V132H338.483V120.784H334.153ZM347.724 132V118.909H358.019V132H356.008V120.784H349.735V132H347.724ZM361.692 136.909V118.909H363.636V120.989H363.874C364.022 120.761 364.227 120.472 364.488 120.119C364.755 119.761 365.136 119.443 365.63 119.165C366.13 118.881 366.806 118.739 367.658 118.739C368.761 118.739 369.732 119.014 370.573 119.565C371.414 120.116 372.07 120.898 372.542 121.909C373.013 122.92 373.249 124.114 373.249 125.489C373.249 126.875 373.013 128.077 372.542 129.094C372.07 130.105 371.417 130.889 370.582 131.446C369.746 131.997 368.783 132.273 367.692 132.273C366.852 132.273 366.178 132.134 365.673 131.855C365.167 131.571 364.778 131.25 364.505 130.892C364.232 130.528 364.022 130.227 363.874 129.989H363.704V136.909H361.692ZM363.67 125.455C363.67 126.443 363.815 127.315 364.104 128.071C364.394 128.821 364.817 129.409 365.374 129.835C365.931 130.256 366.613 130.466 367.42 130.466C368.261 130.466 368.962 130.244 369.525 129.801C370.093 129.352 370.519 128.75 370.803 127.994C371.093 127.233 371.238 126.386 371.238 125.455C371.238 124.534 371.096 123.705 370.812 122.966C370.533 122.222 370.11 121.634 369.542 121.202C368.979 120.764 368.272 120.545 367.42 120.545C366.602 120.545 365.914 120.753 365.357 121.168C364.8 121.577 364.38 122.151 364.096 122.889C363.812 123.622 363.67 124.477 363.67 125.455ZM380.17 132.307C379.34 132.307 378.587 132.151 377.911 131.838C377.235 131.52 376.698 131.062 376.3 130.466C375.903 129.864 375.704 129.136 375.704 128.284C375.704 127.534 375.852 126.926 376.147 126.46C376.442 125.989 376.837 125.619 377.332 125.352C377.826 125.085 378.371 124.886 378.968 124.756C379.57 124.619 380.175 124.511 380.783 124.432C381.579 124.33 382.224 124.253 382.718 124.202C383.218 124.145 383.582 124.051 383.809 123.92C384.042 123.79 384.158 123.562 384.158 123.239V123.17C384.158 122.33 383.928 121.676 383.468 121.21C383.013 120.744 382.323 120.511 381.397 120.511C380.437 120.511 379.684 120.722 379.138 121.142C378.593 121.562 378.21 122.011 377.988 122.489L376.079 121.807C376.42 121.011 376.874 120.392 377.442 119.949C378.016 119.5 378.641 119.187 379.317 119.011C379.999 118.83 380.67 118.739 381.329 118.739C381.749 118.739 382.232 118.79 382.778 118.892C383.329 118.989 383.86 119.19 384.371 119.497C384.888 119.804 385.317 120.267 385.658 120.886C385.999 121.506 386.17 122.335 386.17 123.375V132H384.158V130.227H384.056C383.92 130.511 383.692 130.815 383.374 131.139C383.056 131.463 382.633 131.739 382.104 131.966C381.576 132.193 380.931 132.307 380.17 132.307ZM380.477 130.5C381.272 130.5 381.942 130.344 382.488 130.031C383.039 129.719 383.454 129.315 383.732 128.821C384.016 128.327 384.158 127.807 384.158 127.261V125.42C384.073 125.523 383.886 125.616 383.596 125.702C383.312 125.781 382.982 125.852 382.607 125.915C382.238 125.972 381.877 126.023 381.525 126.068C381.178 126.108 380.897 126.142 380.681 126.17C380.158 126.239 379.67 126.349 379.215 126.503C378.766 126.651 378.403 126.875 378.124 127.176C377.852 127.472 377.715 127.875 377.715 128.386C377.715 129.085 377.974 129.614 378.491 129.972C379.013 130.324 379.675 130.5 380.477 130.5ZM389.841 132V118.909H395.193C396.602 118.909 397.722 119.227 398.551 119.864C399.381 120.5 399.795 121.341 399.795 122.386C399.795 123.182 399.56 123.798 399.088 124.236C398.616 124.668 398.011 124.96 397.273 125.114C397.756 125.182 398.224 125.352 398.679 125.625C399.139 125.898 399.52 126.273 399.821 126.75C400.122 127.222 400.273 127.801 400.273 128.489C400.273 129.159 400.102 129.759 399.761 130.287C399.42 130.815 398.932 131.233 398.295 131.54C397.659 131.847 396.898 132 396.011 132H389.841ZM391.75 130.159H396.011C396.705 130.159 397.247 129.994 397.639 129.665C398.031 129.335 398.227 128.886 398.227 128.318C398.227 127.642 398.031 127.111 397.639 126.724C397.247 126.332 396.705 126.136 396.011 126.136H391.75V130.159ZM391.75 124.398H395.193C395.733 124.398 396.196 124.324 396.582 124.176C396.969 124.023 397.264 123.807 397.469 123.528C397.679 123.244 397.784 122.909 397.784 122.523C397.784 121.972 397.554 121.54 397.094 121.227C396.634 120.909 396 120.75 395.193 120.75H391.75V124.398ZM402.158 132V130.125H402.636C403.028 130.125 403.354 130.048 403.616 129.895C403.877 129.736 404.087 129.46 404.246 129.068C404.411 128.67 404.536 128.119 404.621 127.415C404.712 126.705 404.778 125.801 404.817 124.705L405.056 118.909H413.783V132H411.772V120.784H406.965L406.761 125.455C406.715 126.528 406.619 127.474 406.471 128.293C406.329 129.105 406.11 129.787 405.815 130.338C405.525 130.889 405.138 131.304 404.656 131.582C404.173 131.861 403.567 132 402.84 132H402.158ZM422.962 132.273C421.701 132.273 420.613 131.994 419.698 131.438C418.789 130.875 418.087 130.091 417.593 129.085C417.104 128.074 416.86 126.898 416.86 125.557C416.86 124.216 417.104 123.034 417.593 122.011C418.087 120.983 418.775 120.182 419.656 119.608C420.542 119.028 421.576 118.739 422.758 118.739C423.44 118.739 424.113 118.852 424.778 119.08C425.442 119.307 426.048 119.676 426.593 120.188C427.138 120.693 427.573 121.364 427.897 122.199C428.221 123.034 428.383 124.062 428.383 125.284V126.136H418.292V124.398H426.337C426.337 123.659 426.19 123 425.894 122.42C425.604 121.841 425.19 121.384 424.65 121.048C424.116 120.713 423.485 120.545 422.758 120.545C421.957 120.545 421.263 120.744 420.678 121.142C420.099 121.534 419.653 122.045 419.34 122.676C419.028 123.307 418.871 123.983 418.871 124.705V125.864C418.871 126.852 419.042 127.69 419.383 128.378C419.729 129.06 420.21 129.58 420.823 129.938C421.437 130.29 422.15 130.466 422.962 130.466C423.491 130.466 423.968 130.392 424.394 130.244C424.826 130.091 425.198 129.864 425.511 129.562C425.823 129.256 426.065 128.875 426.235 128.42L428.178 128.966C427.974 129.625 427.63 130.205 427.147 130.705C426.664 131.199 426.067 131.585 425.357 131.864C424.647 132.136 423.849 132.273 422.962 132.273ZM440.204 124.534V126.409H432.977V124.534H440.204ZM433.454 118.909V132H431.442V118.909H433.454ZM441.738 118.909V132H439.727V118.909H441.738ZM450.729 132.273C449.548 132.273 448.511 131.991 447.619 131.429C446.732 130.866 446.039 130.08 445.539 129.068C445.045 128.057 444.798 126.875 444.798 125.523C444.798 124.159 445.045 122.969 445.539 121.952C446.039 120.935 446.732 120.145 447.619 119.582C448.511 119.02 449.548 118.739 450.729 118.739C451.911 118.739 452.945 119.02 453.832 119.582C454.724 120.145 455.417 120.935 455.911 121.952C456.411 122.969 456.661 124.159 456.661 125.523C456.661 126.875 456.411 128.057 455.911 129.068C455.417 130.08 454.724 130.866 453.832 131.429C452.945 131.991 451.911 132.273 450.729 132.273ZM450.729 130.466C451.627 130.466 452.366 130.236 452.945 129.776C453.525 129.315 453.954 128.71 454.232 127.96C454.511 127.21 454.65 126.398 454.65 125.523C454.65 124.648 454.511 123.832 454.232 123.077C453.954 122.321 453.525 121.71 452.945 121.244C452.366 120.778 451.627 120.545 450.729 120.545C449.832 120.545 449.093 120.778 448.513 121.244C447.934 121.71 447.505 122.321 447.227 123.077C446.948 123.832 446.809 124.648 446.809 125.523C446.809 126.398 446.948 127.21 447.227 127.96C447.505 128.71 447.934 129.315 448.513 129.776C449.093 130.236 449.832 130.466 450.729 130.466ZM462.391 114.545L462.22 127.091H460.243L460.072 114.545H462.391ZM461.232 132.136C460.811 132.136 460.45 131.986 460.149 131.685C459.848 131.384 459.697 131.023 459.697 130.602C459.697 130.182 459.848 129.821 460.149 129.52C460.45 129.219 460.811 129.068 461.232 129.068C461.652 129.068 462.013 129.219 462.314 129.52C462.615 129.821 462.766 130.182 462.766 130.602C462.766 130.881 462.695 131.136 462.553 131.369C462.416 131.602 462.232 131.79 461.999 131.932C461.771 132.068 461.516 132.136 461.232 132.136Z" fill="black"/>
<path d="M271.812 183.734L274.568 180.873L282.244 189.069L301.764 168.578L304.522 171.441L282.244 194.343L271.812 183.734Z" fill="#BAE0BD"/>
<path d="M301.765 168.901L304.211 171.441L282.244 194.025L272.124 183.733L274.566 181.198L281.931 189.063L282.243 189.396L282.557 189.066L301.765 168.901ZM301.763 168.256L282.246 188.745L274.57 180.549L271.5 183.737L282.246 194.664L304.833 171.443L301.763 168.256Z" fill="#5E9C76"/>
<defs>
<filter id="filter0_d_652_318" x="0" y="0" width="563" height="300" filterUnits="userSpaceOnUse" color-interpolation-filters="sRGB">
<feFlood flood-opacity="0" result="BackgroundImageFix"/>
<feColorMatrix in="SourceAlpha" type="matrix" values="0 0 0 0 0 0 0 0 0 0 0 0 0 0 0 0 0 0 127 0" result="hardAlpha"/>
<feOffset dy="4"/>
<feGaussianBlur stdDeviation="2"/>
<feComposite in2="hardAlpha" operator="out"/>
<feColorMatrix type="matrix" values="0 0 0 0 0 0 0 0 0 0 0 0 0 0 0 0 0 0 0.25 0"/>
<feBlend mode="normal" in2="BackgroundImageFix" result="effect1_dropShadow_652_318"/>
<feBlend mode="normal" in="SourceGraphic" in2="effect1_dropShadow_652_318" result="shape"/>
</filter>
</defs>
</svg>
