<svg width="27" height="27" viewBox="0 0 27 27" fill="none" xmlns="http://www.w3.org/2000/svg">
<path d="M13.5 27C6.05302 27 0 20.947 0 13.5C0 6.05302 6.05302 0 13.5 0C20.947 0 27 6.05302 27 13.5C27 20.947 20.947 27 13.5 27ZM13.5 1.88372C7.09535 1.88372 1.88372 7.09535 1.88372 13.5C1.88372 19.9047 7.09535 25.1163 13.5 25.1163C19.9047 25.1163 25.1163 19.9047 25.1163 13.5C25.1163 7.09535 19.9047 1.88372 13.5 1.88372Z" fill="#292D32"/>
<path d="M18.1819 18.4372C18.0187 18.4372 17.8554 18.3995 17.7047 18.299L13.8117 15.9758C12.8447 15.3981 12.1289 14.1297 12.1289 13.0121V7.86325C12.1289 7.34836 12.5559 6.92139 13.0708 6.92139C13.5857 6.92139 14.0126 7.34836 14.0126 7.86325V13.0121C14.0126 13.4642 14.3894 14.1297 14.7787 14.3558L18.6717 16.679C19.1238 16.9428 19.2619 17.5204 18.9982 17.9725C18.8098 18.2739 18.4959 18.4372 18.1819 18.4372Z" fill="#292D32"/>
</svg>
