<svg width="11" height="11" viewBox="0 0 11 11" fill="none" xmlns="http://www.w3.org/2000/svg">
<path fill-rule="evenodd" clip-rule="evenodd" d="M2.6646 0.293041C2.476 0.110883 2.2234 0.0100885 1.9612 0.0123669C1.699 0.0146453 1.44819 0.119815 1.26278 0.305223C1.07737 0.490631 0.972205 0.741444 0.969927 1.00364C0.967648 1.26584 1.06844 1.51844 1.2506 1.70704L4.5436 5.00004L1.2506 8.29304C1.15509 8.38529 1.07891 8.49563 1.0265 8.61764C0.97409 8.73964 0.946504 8.87086 0.94535 9.00364C0.944196 9.13642 0.969498 9.2681 1.01978 9.39099C1.07006 9.51389 1.14431 9.62554 1.23821 9.71944C1.3321 9.81333 1.44375 9.88758 1.56665 9.93786C1.68954 9.98814 1.82122 10.0134 1.954 10.0123C2.08678 10.0111 2.218 9.98355 2.34 9.93114C2.46201 9.87873 2.57235 9.80255 2.6646 9.70704L5.9576 6.41404L9.2506 9.70704C9.4392 9.8892 9.6918 9.98999 9.954 9.98772C10.2162 9.98544 10.467 9.88027 10.6524 9.69486C10.8378 9.50945 10.943 9.25864 10.9453 8.99644C10.9476 8.73425 10.8468 8.48164 10.6646 8.29304L7.3716 5.00004L10.6646 1.70704C10.8468 1.51844 10.9476 1.26584 10.9453 1.00364C10.943 0.741444 10.8378 0.490631 10.6524 0.305223C10.467 0.119815 10.2162 0.0146453 9.954 0.0123669C9.6918 0.0100885 9.4392 0.110883 9.2506 0.293041L5.9576 3.58604L2.6646 0.293041Z" fill="black"/>
</svg>
