<svg width="22" height="22" viewBox="0 0 22 22" fill="none" xmlns="http://www.w3.org/2000/svg">
<path fill-rule="evenodd" clip-rule="evenodd" d="M11 0C4.92472 0 0 4.92472 0 11C0 17.0753 4.92472 22 11 22C17.0753 22 22 17.0753 22 11C22 4.92472 17.0753 0 11 0ZM2 11C2 6.02928 6.02928 2 11 2C15.9707 2 20 6.02928 20 11C20 15.9707 15.9707 20 11 20C6.02928 20 2 15.9707 2 11ZM12 5C12 4.44772 11.5523 4 11 4C10.4477 4 10 4.44772 10 5V11C10 11.3788 10.214 11.725 10.5528 11.8944L14.5528 13.8944C15.0468 14.1414 15.6474 13.9412 15.8944 13.4472C16.1414 12.9532 15.9412 12.3526 15.4472 12.1056L12 10.382V5Z" fill="black"/>
</svg>
