<svg width="23" height="21" viewBox="0 0 23 21" fill="none" xmlns="http://www.w3.org/2000/svg">
<path fill-rule="evenodd" clip-rule="evenodd" d="M11.4512 2.27604C12.7099 1.09823 14.2329 0.00012207 16.401 0.00012207C18.1112 0.00012207 19.7889 0.69525 20.998 1.90468C23.4813 4.38725 23.5071 8.59108 20.9981 11.0991C20.9981 11.0991 20.9982 11.099 20.9981 11.0991L12.1581 19.9391C11.9706 20.1266 11.7163 20.2319 11.451 20.2319C11.1858 20.2319 10.9315 20.1266 10.7439 19.9391L1.90393 11.0991C-0.605347 8.58978 -0.605347 4.41412 1.90393 1.90484C3.12316 0.685612 4.77679 0.000657082 6.50104 0.000657082C8.6732 0.000657082 10.1922 1.0971 11.4512 2.27604ZM16.401 2.00012C14.7157 2.00012 13.5743 2.96286 12.1581 4.37905C11.9706 4.56659 11.7163 4.67195 11.451 4.67195C11.1858 4.67195 10.9315 4.56659 10.7439 4.37905C9.325 2.96012 8.19044 2.00066 6.50104 2.00066C5.30722 2.00066 4.1623 2.4749 3.31815 3.31905C1.58992 5.04728 1.58992 7.95661 3.31815 9.68484L11.451 17.8177L19.5839 9.68484C21.3068 7.96274 21.2912 5.02553 19.5841 3.31922C18.7501 2.48487 17.5807 2.00012 16.401 2.00012Z" fill="black"/>
</svg>
