<svg width="20" height="24" viewBox="0 0 20 24" fill="none" xmlns="http://www.w3.org/2000/svg">
<path fill-rule="evenodd" clip-rule="evenodd" d="M6.93853 2.60896C7.90914 2.20693 8.94942 2 10 2C11.0506 2 12.0909 2.20693 13.0615 2.60896C14.0321 3.011 14.914 3.60028 15.6569 4.34315C16.3997 5.08601 16.989 5.96793 17.391 6.93853C17.7931 7.90914 18 8.94942 18 10C18 13.0981 15.9843 16.1042 13.774 18.4373C12.6894 19.5822 11.6013 20.5195 10.7833 21.1708C10.4789 21.4133 10.213 21.6152 10 21.7726C9.78702 21.6152 9.52111 21.4133 9.21668 21.1708C8.39867 20.5195 7.31061 19.5822 6.22595 18.4373C4.01574 16.1042 2 13.0981 2 10C2 8.94942 2.20693 7.90914 2.60896 6.93853C3.011 5.96793 3.60028 5.08601 4.34315 4.34315C5.08601 3.60028 5.96793 3.011 6.93853 2.60896ZM9.44476 23.8317C9.44505 23.8319 9.4453 23.8321 10 23L10.5547 23.8321C10.2188 24.056 9.78066 24.0556 9.44476 23.8317ZM9.44476 23.8317L10 23C10.5547 23.8321 10.5557 23.8314 10.556 23.8312L10.5581 23.8298L10.5648 23.8253L10.5877 23.8098C10.6072 23.7966 10.6349 23.7776 10.6704 23.753C10.7415 23.7038 10.8435 23.6321 10.9722 23.5392C11.2295 23.3534 11.5936 23.0822 12.0292 22.7354C12.8987 22.043 14.0606 21.0428 15.226 19.8127C17.5157 17.3958 20 13.9019 20 10C20 8.68678 19.7413 7.38642 19.2388 6.17317C18.7362 4.95991 17.9997 3.85752 17.0711 2.92893C16.1425 2.00035 15.0401 1.26375 13.8268 0.761205C12.6136 0.258658 11.3132 0 10 0C8.68678 0 7.38642 0.258658 6.17317 0.761205C4.95991 1.26375 3.85752 2.00035 2.92893 2.92893C2.00035 3.85752 1.26375 4.95991 0.761205 6.17317C0.258658 7.38642 0 8.68678 0 10C0 13.9019 2.48426 17.3958 4.77405 19.8127C5.93939 21.0428 7.10133 22.043 7.97082 22.7354C8.40636 23.0822 8.77055 23.3534 9.02779 23.5392C9.15646 23.6321 9.25853 23.7038 9.32956 23.753C9.36508 23.7776 9.39285 23.7966 9.41232 23.8098L9.43524 23.8253L9.4419 23.8298L9.44476 23.8317ZM10 6C8.93913 6 7.92172 6.42143 7.17157 7.17157C6.42143 7.92172 6 8.93913 6 10C6 11.0609 6.42143 12.0783 7.17157 12.8284C7.92172 13.5786 8.93913 14 10 14C11.0609 14 12.0783 13.5786 12.8284 12.8284C13.5786 12.0783 14 11.0609 14 10C14 8.93913 13.5786 7.92172 12.8284 7.17157C12.0783 6.42143 11.0609 6 10 6ZM11.4142 11.4142C11.0391 11.7893 10.5304 12 10 12C9.46957 12 8.96086 11.7893 8.58579 11.4142C8.21071 11.0391 8 10.5304 8 10C8 9.46957 8.21071 8.96086 8.58579 8.58579C8.96086 8.21071 9.46957 8 10 8C10.5304 8 11.0391 8.21071 11.4142 8.58579C11.7893 8.96086 12 9.46957 12 10C12 10.5304 11.7893 11.0391 11.4142 11.4142Z" fill="black"/>
</svg>
