<svg width="27" height="27" viewBox="0 0 27 27" fill="none" xmlns="http://www.w3.org/2000/svg">
<path d="M13.5 0C6.0615 0 0 5.867 0 13.0668C0 20.2666 6.0615 26.1336 13.5 26.1336C20.9385 26.1336 27 20.2666 27 13.0668C27 5.867 20.9385 0 13.5 0ZM18.036 16.0722C18.4275 16.4511 18.4275 17.0783 18.036 17.4573C17.8335 17.6533 17.577 17.7447 17.3205 17.7447C17.064 17.7447 16.8075 17.6533 16.605 17.4573L13.5 14.4519L10.395 17.4573C10.1925 17.6533 9.936 17.7447 9.6795 17.7447C9.423 17.7447 9.1665 17.6533 8.964 17.4573C8.5725 17.0783 8.5725 16.4511 8.964 16.0722L12.069 13.0668L8.964 10.0615C8.5725 9.68252 8.5725 9.05531 8.964 8.67637C9.3555 8.29743 10.0035 8.29743 10.395 8.67637L13.5 11.6817L16.605 8.67637C16.9965 8.29743 17.6445 8.29743 18.036 8.67637C18.4275 9.05531 18.4275 9.68252 18.036 10.0615L14.931 13.0668L18.036 16.0722Z" fill="#292D32"/>
</svg>
