<svg width="27" height="27" viewBox="0 0 27 27" fill="none" xmlns="http://www.w3.org/2000/svg">
<path d="M13.5 0C6.0615 0 0 6.0615 0 13.5C0 20.9385 6.0615 27 13.5 27C20.9385 27 27 20.9385 27 13.5C27 6.0615 20.9385 0 13.5 0ZM18.036 16.605C18.4275 16.9965 18.4275 17.6445 18.036 18.036C17.8335 18.2385 17.577 18.333 17.3205 18.333C17.064 18.333 16.8075 18.2385 16.605 18.036L13.5 14.931L10.395 18.036C10.1925 18.2385 9.936 18.333 9.6795 18.333C9.423 18.333 9.1665 18.2385 8.964 18.036C8.5725 17.6445 8.5725 16.9965 8.964 16.605L12.069 13.5L8.964 10.395C8.5725 10.0035 8.5725 9.3555 8.964 8.964C9.3555 8.5725 10.0035 8.5725 10.395 8.964L13.5 12.069L16.605 8.964C16.9965 8.5725 17.6445 8.5725 18.036 8.964C18.4275 9.3555 18.4275 10.0035 18.036 10.395L14.931 13.5L18.036 16.605Z" fill="#292D32"/>
</svg>
