<svg width="22" height="22" viewBox="0 0 22 22" fill="none" xmlns="http://www.w3.org/2000/svg">
<path fill-rule="evenodd" clip-rule="evenodd" d="M0 11C0 4.92472 4.92472 0 11 0C17.0753 0 22 4.92472 22 11C22 17.0753 17.0753 22 11 22C4.92472 22 0 17.0753 0 11ZM11 2C6.02928 2 2 6.02928 2 11C2 15.9707 6.02928 20 11 20C15.9707 20 20 15.9707 20 11C20 6.02928 15.9707 2 11 2Z" fill="#4AC99B"/>
<path fill-rule="evenodd" clip-rule="evenodd" d="M15.169 7.75671C15.5795 8.12617 15.6128 8.75846 15.2433 9.16897L10.7433 14.169C10.5653 14.3668 10.3158 14.4854 10.05 14.4988C9.78428 14.5121 9.52417 14.4189 9.32729 14.2399L6.82729 11.9669C6.41865 11.5954 6.38858 10.9629 6.76011 10.5543C7.13164 10.1457 7.76409 10.1156 8.17272 10.4871L9.92907 12.084L13.7567 7.83104C14.1262 7.42053 14.7585 7.38726 15.169 7.75671Z" fill="#4AC99B"/>
</svg>
