<svg width="14" height="16" viewBox="0 0 14 16" fill="none" xmlns="http://www.w3.org/2000/svg">
<path fill-rule="evenodd" clip-rule="evenodd" d="M2 6.72704C2 5.48978 2.51388 4.29361 3.44564 3.40215C4.40572 2.49704 5.67673 1.9951 6.99626 2.00004V2.00004H7C8.34047 2.00004 9.61745 2.50851 10.5528 3.40066L10.5528 3.40067L10.5569 3.40452C11.0103 3.83222 11.3721 4.34766 11.6202 4.91952C11.868 5.49078 11.9972 6.10643 12 6.72912C11.9991 8.53627 10.754 10.3548 9.29023 11.8297C8.58152 12.5438 7.86907 13.1298 7.33237 13.5377C7.21153 13.6296 7.10003 13.7121 7 13.7847C6.89997 13.7121 6.78847 13.6296 6.66763 13.5377C6.13093 13.1298 5.41848 12.5438 4.70977 11.8297C3.24542 10.3543 2 8.53488 2 6.72704ZM14 6.72704H13L14 6.72304C13.9964 5.82855 13.811 4.94414 13.455 4.12354C13.0994 3.30383 12.581 2.56489 11.9312 1.95155C10.6152 0.697303 8.84181 0.000515139 7.00187 4.33082e-05C5.16895 -0.00633326 3.40358 0.691656 2.0706 1.94982L2.07058 1.94981L2.06614 1.95405C0.749302 3.21237 0 4.92728 0 6.72704C0 9.37421 1.75458 11.6913 3.29023 13.2386C4.08152 14.0359 4.86907 14.6828 5.45737 15.13C5.75237 15.3542 5.9994 15.5298 6.17461 15.6506C6.26227 15.711 6.3321 15.7579 6.38115 15.7903C6.40567 15.8065 6.42501 15.8191 6.4388 15.828L6.45527 15.8387L6.4603 15.8419L6.462 15.843L6.46264 15.8434C6.4629 15.8436 6.46314 15.8437 7 15L6.46314 15.8437C6.7907 16.0522 7.2093 16.0522 7.53686 15.8437L7 15C7.53686 15.8437 7.5371 15.8436 7.53736 15.8434L7.538 15.843L7.5397 15.8419L7.54473 15.8387L7.5612 15.828C7.57499 15.8191 7.59433 15.8065 7.61885 15.7903C7.6679 15.7579 7.73773 15.711 7.82539 15.6506C8.0006 15.5298 8.24763 15.3542 8.54263 15.13C9.13093 14.6828 9.91848 14.0359 10.7098 13.2386C12.2454 11.6913 14 9.37421 14 6.72704ZM7 4C6.20435 4 5.44129 4.31607 4.87868 4.87868C4.31607 5.44129 4 6.20435 4 7C4 7.79565 4.31607 8.55871 4.87868 9.12132C5.44129 9.68393 6.20435 10 7 10C7.79565 10 8.55871 9.68393 9.12132 9.12132C9.68393 8.55871 10 7.79565 10 7C10 6.20435 9.68393 5.44129 9.12132 4.87868C8.55871 4.31607 7.79565 4 7 4ZM7.70711 7.70711C7.51957 7.89464 7.26522 8 7 8C6.73478 8 6.48043 7.89464 6.29289 7.70711C6.10536 7.51957 6 7.26522 6 7C6 6.73478 6.10536 6.48043 6.29289 6.29289C6.48043 6.10536 6.73478 6 7 6C7.26522 6 7.51957 6.10536 7.70711 6.29289C7.89464 6.48043 8 6.73478 8 7C8 7.26522 7.89464 7.51957 7.70711 7.70711Z" fill="black"/>
</svg>
