<svg width="116" height="88" viewBox="0 0 116 88" fill="none" xmlns="http://www.w3.org/2000/svg">
<g clip-path="url(#clip0_81_1150)">
<path d="M116 58.096C116 90.1813 87.4222 87.4345 55.39 87.4345C23.3575 87.4345 0 90.1813 0 58.096C0 26.0105 25.9675 0 58 0C90.0322 0 116 26.0105 116 58.096Z" fill="white"/>
<path d="M101.5 58.0961C101.5 82.16 87 87.4346 58 87.4346C27.84 87.4346 14.5 82.16 14.5 58.0961C14.5 34.0319 33.9756 14.524 58 14.524C82.0242 14.524 101.5 34.0319 101.5 58.0961Z" fill="#F7F2EF"/>
<path d="M28.9999 51.1245H28.4199V87.144H28.9999V51.1245Z" fill="black"/>
<path d="M33.0605 51.1245H32.4805V64.4866H33.0605V51.1245Z" fill="black"/>
<path d="M81.2001 51.1245H80.6201V64.4866H81.2001V51.1245Z" fill="black"/>
<path d="M30.1602 87.0521L30.7373 87.1097L32.58 68.6109L32.0029 68.5532L30.1602 87.0521Z" fill="black"/>
<path d="M83.043 87.1099L83.6201 87.0522L81.7767 68.5534L81.1996 68.6111L83.043 87.1099Z" fill="black"/>
<path d="M85.2598 51.7055V50.5436H28.4198V51.7055H85.2598Z" fill="black"/>
<path d="M85.2597 51.1245H84.6797V87.144H85.2597V51.1245Z" fill="black"/>
<path d="M28.5452 64.6318C28.6512 64.5383 28.7876 64.4866 28.9289 64.4866H42.3894C42.9061 64.4866 43.1649 65.1123 42.7995 65.4783L39.6095 68.6736C39.5008 68.7828 39.3532 68.8438 39.1994 68.8438H34.5096H25.3136C24.7793 68.8438 24.5292 68.1815 24.9298 67.8271L28.5452 64.6318Z" fill="black"/>
<path d="M85.4248 64.6318C85.3186 64.5383 85.1823 64.4866 85.0408 64.4866H71.5802C71.0634 64.4866 70.8047 65.1123 71.1701 65.4783L74.3601 68.6736C74.4691 68.7828 74.6165 68.8438 74.7702 68.8438H79.46H88.6559C89.1907 68.8438 89.4407 68.1815 89.0399 67.8271L85.4248 64.6318Z" fill="black"/>
<path fill-rule="evenodd" clip-rule="evenodd" d="M57.9996 50.5436V29.629L55.0996 31.9529V50.5436H57.9996Z" fill="white"/>
<path fill-rule="evenodd" clip-rule="evenodd" d="M62.6402 50.5436V27.3052L59.7402 29.8872V50.5436H62.6402Z" fill="white"/>
<path d="M77.1395 37.1814H69.0195V50.5435H77.1395V37.1814Z" fill="white"/>
<path d="M33.0596 34.9739C33.0596 34.6111 33.388 34.337 33.7443 34.4025L47.0843 36.8548C47.3596 36.9055 47.5596 37.1458 47.5596 37.4263V48.8007C47.5596 49.1215 47.2999 49.3816 46.9796 49.3816H33.6396C33.3192 49.3816 33.0596 49.1215 33.0596 48.8007V34.9739Z" fill="black"/>
<path d="M40.0204 49.3816H38.8604V50.5435H40.0204V49.3816Z" fill="black"/>
<path d="M46.4002 38.3434C46.4002 38.0226 46.1406 37.7625 45.8202 37.7625C45.4999 37.7625 45.2402 38.0226 45.2402 38.3434V47.6388C45.2402 47.9596 45.4999 48.2197 45.8202 48.2197C46.1406 48.2197 46.4002 47.9596 46.4002 47.6388V38.3434Z" fill="white"/>
<path d="M71.6297 42.9911H76.2697L74.8197 49.9626H70.1797L71.6297 42.9911Z" fill="black"/>
<path d="M72.5603 40.3633C72.5121 40.2103 72.3492 40.1255 72.1965 40.1738C72.0437 40.2221 71.959 40.3852 72.0072 40.5382L72.8805 43.3082C72.9287 43.4612 73.0916 43.546 73.2444 43.4977C73.3971 43.4494 73.4818 43.2862 73.4336 43.1333L72.5603 40.3633Z" fill="black"/>
<path d="M71.9754 41.477C71.8768 41.3506 71.6946 41.3282 71.5684 41.427C71.4422 41.5258 71.4198 41.7083 71.5184 41.8347L73.3039 44.1237C73.4025 44.2501 73.5848 44.2725 73.711 44.1737C73.8372 44.075 73.8595 43.8924 73.7609 43.766L71.9754 41.477Z" fill="black"/>
<path d="M75.3253 41.2302C75.4138 41.0965 75.3772 40.9163 75.2437 40.8277C75.1102 40.7391 74.9302 40.7757 74.8418 40.9094L73.2403 43.3311C73.1518 43.4648 73.1883 43.645 73.3219 43.7336C73.4554 43.8222 73.6353 43.7856 73.7238 43.6519L75.3253 41.2302Z" fill="black"/>
<path d="M74.5656 40.42C74.6037 40.2642 74.5085 40.1069 74.353 40.0688C74.1974 40.0306 74.0404 40.126 74.0023 40.2818L73.1489 43.7707C73.1108 43.9265 73.206 44.0838 73.3616 44.122C73.5172 44.1601 73.6742 44.0648 73.7123 43.9089L74.5656 40.42Z" fill="black"/>
<path d="M73.6439 39.2051C73.6409 39.0447 73.5087 38.9171 73.3485 38.9201C73.1884 38.923 73.061 39.0554 73.0639 39.2158L73.1391 43.2918C73.1421 43.4522 73.2743 43.5798 73.4344 43.5768C73.5945 43.5739 73.722 43.4414 73.719 43.281L73.6439 39.2051Z" fill="black"/>
<path d="M44.3584 62.0465L46.6598 68.5533H47.2166L48.9891 63.4687H49.0355L50.7523 68.5533H51.2998L53.6013 62.0465H53.1744L51.2534 67.475H51.2163L49.4067 62.0465H49.0077L47.161 67.4471H47.1238L45.2122 62.0465H44.3584ZM59.1478 66.2387C59.1478 66.5611 59.0921 66.8708 58.9808 67.1683C58.8694 67.4593 58.7082 67.7167 58.4982 67.9398C58.2941 68.1629 58.0435 68.3395 57.7463 68.4696C57.4556 68.5997 57.1277 68.6648 56.7626 68.6648C56.3914 68.6648 56.0543 68.5997 55.7511 68.4696C55.4541 68.3331 55.2005 68.1536 54.9901 67.9305C54.786 67.7074 54.6252 67.45 54.5076 67.159C54.3962 66.8615 54.3405 66.5548 54.3405 66.2387C54.3405 65.9163 54.3962 65.6095 54.5076 65.3185C54.6252 65.021 54.786 64.7608 54.9901 64.5377C55.2005 64.3146 55.4541 64.138 55.7511 64.0078C56.0543 63.8713 56.3914 63.8033 56.7626 63.8033C57.1277 63.8033 57.4556 63.8713 57.7463 64.0078C58.0435 64.138 58.2941 64.3146 58.4982 64.5377C58.7082 64.7608 58.8694 65.021 58.9808 65.3185C59.0921 65.6095 59.1478 65.9163 59.1478 66.2387ZM58.2662 66.2387C58.2662 65.8047 58.2198 65.455 58.127 65.1883C58.0342 64.9159 57.9133 64.705 57.7649 64.5563C57.6164 64.4075 57.4525 64.3082 57.273 64.2588C57.0936 64.203 56.9204 64.1751 56.7533 64.1751C56.5863 64.1751 56.4131 64.203 56.2337 64.2588C56.0543 64.3082 55.8872 64.4075 55.7325 64.5563C55.5841 64.705 55.4604 64.9159 55.3613 65.1883C55.2685 65.455 55.2221 65.8047 55.2221 66.2387C55.2221 66.6663 55.2685 67.0166 55.3613 67.2891C55.4604 67.5558 55.5841 67.7632 55.7325 67.9119C55.8872 68.0606 56.0543 68.1629 56.2337 68.2186C56.4131 68.268 56.5863 68.293 56.7533 68.293C56.9204 68.293 57.0936 68.268 57.273 68.2186C57.4525 68.1629 57.6164 68.0606 57.7649 67.9119C57.9133 67.7632 58.0342 67.5558 58.127 67.2891C58.2198 67.0166 58.2662 66.6663 58.2662 66.2387ZM60.3554 63.9056V68.5533H61.1442V65.7461C61.1442 65.4922 61.172 65.2784 61.2277 65.1047C61.2898 64.9252 61.3669 64.7793 61.4597 64.6678C61.5525 64.5563 61.6546 64.4755 61.7659 64.4261C61.8773 64.3767 61.9858 64.3518 62.0907 64.3518C62.2334 64.3518 62.3633 64.3982 62.4805 64.4912C62.6046 64.5841 62.6939 64.6707 62.7496 64.7515L63.0651 64.1751C63.0095 64.1008 62.9416 64.0386 62.861 63.9892C62.7867 63.9399 62.7096 63.9027 62.629 63.8777C62.5547 63.8469 62.484 63.8283 62.4155 63.8219C62.3541 63.8097 62.3077 63.8033 62.2763 63.8033C62.0165 63.8033 61.8002 63.8748 61.6267 64.0171C61.4539 64.1595 61.3112 64.3703 61.1999 64.6492H61.1442V63.9056H60.3554ZM64.688 62.0465H63.8992V68.5533H64.688V66.8057L65.2262 66.2573L67.0915 68.5533H68.1309L65.8016 65.6903L67.5741 63.9056H66.9709L64.688 66.2108V62.0465Z" fill="black"/>
<path d="M47.2205 76.2964C47.3813 76.34 47.5545 76.3771 47.7401 76.4079C47.9257 76.4329 48.1299 76.4451 48.3526 76.4451C48.73 76.4451 49.064 76.3922 49.3549 76.2871C49.6456 76.1819 49.8869 76.039 50.0787 75.8595C50.2767 75.6736 50.4251 75.4627 50.5241 75.2274C50.6231 74.9857 50.6726 74.7284 50.6726 74.4559C50.6726 74.1956 50.6293 73.9476 50.5427 73.7123C50.456 73.4706 50.3231 73.2632 50.1437 73.0895C49.9704 72.91 49.7508 72.7671 49.4848 72.6619C49.2187 72.5567 48.9063 72.5039 48.5475 72.5039H46.376V79.0106H47.2205V76.2964ZM47.2205 72.9129H48.1949C48.4547 72.9129 48.6836 72.9594 48.8816 73.0523C49.0795 73.1453 49.2435 73.269 49.3734 73.4241C49.5033 73.5728 49.5992 73.7431 49.6611 73.9354C49.7291 74.1213 49.7632 74.3072 49.7632 74.4931C49.7632 74.6726 49.7322 74.8556 49.6704 75.0415C49.6147 75.221 49.5219 75.3854 49.392 75.5342C49.2621 75.6829 49.0981 75.8037 48.9001 75.8967C48.7021 75.9896 48.464 76.0361 48.1856 76.0361C47.9938 76.0361 47.8175 76.0297 47.6566 76.0175C47.4957 75.9989 47.3504 75.9647 47.2205 75.9153V72.9129ZM56.2247 76.6961C56.2247 77.0185 56.169 77.3282 56.0576 77.6256C55.9463 77.9167 55.7854 78.174 55.5751 78.3971C55.3709 78.6202 55.1203 78.7968 54.8234 78.927C54.5326 79.0571 54.2047 79.1222 53.8397 79.1222C53.4685 79.1222 53.1313 79.0571 52.8282 78.927C52.5312 78.7904 52.2775 78.6109 52.0672 78.3878C51.8631 78.1648 51.7022 77.9074 51.5847 77.6163C51.4733 77.3189 51.4176 77.0121 51.4176 76.6961C51.4176 76.3737 51.4733 76.0669 51.5847 75.7758C51.7022 75.4784 51.8631 75.2181 52.0672 74.995C52.2775 74.7719 52.5312 74.5953 52.8282 74.4652C53.1313 74.3287 53.4685 74.2607 53.8397 74.2607C54.2047 74.2607 54.5326 74.3287 54.8234 74.4652C55.1203 74.5953 55.3709 74.7719 55.5751 74.995C55.7854 75.2181 55.9463 75.4784 56.0576 75.7758C56.169 76.0669 56.2247 76.3737 56.2247 76.6961ZM55.3431 76.6961C55.3431 76.2621 55.2967 75.9124 55.2039 75.6457C55.1111 75.3732 54.9904 75.1623 54.8419 75.0136C54.6935 74.8649 54.5295 74.7656 54.3501 74.7162C54.1707 74.6604 53.9975 74.6325 53.8304 74.6325C53.6634 74.6325 53.4901 74.6604 53.3108 74.7162C53.1313 74.7656 52.9643 74.8649 52.8096 75.0136C52.6611 75.1623 52.5374 75.3732 52.4384 75.6457C52.3456 75.9124 52.2992 76.2621 52.2992 76.6961C52.2992 77.1237 52.3456 77.474 52.4384 77.7465C52.5374 78.0131 52.6611 78.2205 52.8096 78.3692C52.9643 78.518 53.1313 78.6202 53.3108 78.676C53.4901 78.7254 53.6634 78.7504 53.8304 78.7504C53.9975 78.7504 54.1707 78.7254 54.3501 78.676C54.5295 78.6202 54.6935 78.518 54.8419 78.3692C54.9904 78.2205 55.1111 78.0131 55.2039 77.7465C55.2967 77.474 55.3431 77.1237 55.3431 76.6961ZM57.7295 74.363V79.0106H58.5182V74.363H57.7295ZM57.6182 72.8943C57.6182 73.0308 57.6676 73.1482 57.7667 73.2475C57.8657 73.3469 57.9832 73.3962 58.1192 73.3962C58.2555 73.3962 58.3732 73.3469 58.4718 73.2475C58.571 73.1482 58.6203 73.0308 58.6203 72.8943C58.6203 72.7578 58.571 72.6404 58.4718 72.5411C58.3732 72.4417 58.2555 72.3923 58.1192 72.3923C57.9832 72.3923 57.8657 72.4417 57.7667 72.5411C57.6676 72.6404 57.6182 72.7578 57.6182 72.8943ZM64.1663 79.0106V75.9989C64.1663 75.8874 64.157 75.7358 64.1384 75.5435C64.1199 75.3454 64.0578 75.1531 63.9528 74.9671C63.8536 74.7748 63.693 74.611 63.4703 74.4745C63.2475 74.3322 62.932 74.2607 62.5237 74.2607C62.3445 74.2543 62.1432 74.2915 61.9205 74.3722C61.6978 74.4466 61.478 74.5924 61.2616 74.8091L61.1131 74.9579H61.076V74.363H60.2872V79.0106H61.076V76.1384C61.076 75.8967 61.1102 75.6893 61.1781 75.5156C61.246 75.3419 61.3388 75.1966 61.4565 75.0787C61.5742 74.9608 61.7071 74.8742 61.8555 74.8184C62.0104 74.7626 62.1682 74.7348 62.3288 74.7348C62.5887 74.7348 62.7899 74.7876 62.932 74.8928C63.0741 74.9921 63.1762 75.1095 63.2383 75.246C63.3061 75.3825 63.3467 75.5185 63.3589 75.655C63.3711 75.7915 63.3775 75.8903 63.3775 75.9525V79.0106H64.1663ZM65.2155 74.7348V74.363H66.0228V72.9315H66.8116V74.363H67.9345V74.7348H66.8116V77.8208C66.8116 77.8952 66.8145 77.9817 66.8209 78.0811C66.8273 78.174 66.8459 78.2641 66.8766 78.3507C66.9073 78.4314 66.9537 78.4994 67.0158 78.5552C67.0837 78.6109 67.1765 78.6388 67.2942 78.6388C67.4427 78.6388 67.5662 78.583 67.6654 78.4715C67.7646 78.36 67.8446 78.2391 67.9067 78.109L68.3428 78.5552C68.0395 78.859 67.6961 79.0106 67.3128 79.0106C67.1521 79.0106 66.9943 78.9827 66.8395 78.927C66.6846 78.8712 66.5454 78.7875 66.4219 78.676C66.3041 78.5581 66.2084 78.4093 66.1342 78.2298C66.06 78.0503 66.0228 77.8394 66.0228 77.5977V74.7348H65.2155Z" fill="black"/>
</g>
<defs>
<clipPath id="clip0_81_1150">
<rect width="116" height="87.725" fill="white"/>
</clipPath>
</defs>
</svg>
