<svg width="25" height="29" viewBox="0 0 25 29" fill="none" xmlns="http://www.w3.org/2000/svg">
<path d="M23.7509 21.1996V25.261C23.7524 25.6382 23.688 26.0117 23.5616 26.3574C23.4353 26.703 23.2498 27.0133 23.0172 27.2682C22.7846 27.5231 22.51 27.7171 22.211 27.8376C21.9119 27.9581 21.5951 28.0025 21.2809 27.9679C17.7962 27.515 14.4489 26.0912 11.508 23.8111C8.77174 21.7325 6.45183 18.9593 4.71308 15.6882C2.79892 12.1565 1.60764 8.13542 1.23576 3.95075C1.20745 3.57635 1.24468 3.19901 1.34509 2.84277C1.4455 2.48652 1.60687 2.15918 1.81894 1.8816C2.03101 1.60402 2.28911 1.38228 2.57682 1.23052C2.86452 1.07876 3.17552 1.0003 3.48998 1.00013H6.88746C7.43709 0.993706 7.96991 1.22648 8.38655 1.65505C8.80319 2.08361 9.07521 2.67871 9.15188 3.32935C9.29551 4.62889 9.56164 5.90484 9.94519 7.13287C10.0978 7.6175 10.1308 8.14428 10.0405 8.65071C9.95017 9.15714 9.74023 9.62198 9.43557 9.99007L7.99674 11.7081C9.60893 15.0973 11.9565 17.9036 14.7917 19.8309L16.2305 18.1129C16.5386 17.7489 16.9274 17.4981 17.351 17.3901C17.7746 17.2822 18.2152 17.3216 18.6207 17.5037C19.648 17.9615 20.7154 18.279 21.8024 18.45C22.3527 18.5429 22.8553 18.8744 23.2145 19.3813C23.5738 19.8883 23.7646 20.5354 23.7509 21.1996V21.1996Z" stroke="black" stroke-width="2" stroke-linecap="round" stroke-linejoin="round"/>
</svg>
