<svg width="161" height="24" viewBox="0 0 161 24" fill="none" xmlns="http://www.w3.org/2000/svg">
<path fill-rule="evenodd" clip-rule="evenodd" d="M11.8967 1.55738C11.7283 1.21607 11.3806 1 11 1C10.6194 1 10.2718 1.21607 10.1033 1.55738L7.24577 7.34647L0.855401 8.28051C0.478841 8.33555 0.166161 8.59956 0.0487831 8.96157C-0.0685946 9.32358 0.0296782 9.72083 0.302296 9.98636L4.92551 14.4894L3.83442 20.851C3.77007 21.2261 3.92432 21.6053 4.2323 21.8291C4.54027 22.0528 4.94856 22.0823 5.28548 21.9051L11 18.8998L16.7146 21.9051C17.0515 22.0823 17.4598 22.0528 17.7678 21.8291C18.0757 21.6053 18.23 21.2261 18.1656 20.851L17.0745 14.4894L21.6978 9.98636C21.9704 9.72083 22.0687 9.32358 21.9513 8.96157C21.8339 8.59956 21.5212 8.33555 21.1447 8.28051L14.7543 7.34647L11.8967 1.55738Z" fill="#FE2D2D"/>
<path fill-rule="evenodd" clip-rule="evenodd" d="M46 1C46.3806 1 46.7283 1.21607 46.8967 1.55738L49.7543 7.34647L56.1447 8.28051C56.5212 8.33555 56.8339 8.59956 56.9513 8.96157C57.0687 9.32358 56.9704 9.72083 56.6978 9.98636L52.0746 14.4894L53.1656 20.851C53.23 21.2261 53.0757 21.6053 52.7678 21.8291C52.4598 22.0528 52.0515 22.0823 51.7146 21.9051L46 18.8998L40.2855 21.9051C39.9486 22.0823 39.5403 22.0528 39.2323 21.8291C38.9243 21.6053 38.7701 21.2261 38.8344 20.851L39.9255 14.4894L35.3023 9.98636C35.0297 9.72083 34.9314 9.32358 35.0488 8.96157C35.1662 8.59956 35.4788 8.33555 35.8554 8.28051L42.2458 7.34647L45.1033 1.55738C45.2718 1.21607 45.6194 1 46 1ZM46 4.25925L43.8067 8.70262C43.6612 8.99747 43.38 9.20193 43.0547 9.24949L38.1484 9.9666L41.6978 13.4236C41.9336 13.6534 42.0413 13.9845 41.9856 14.309L41.1482 19.1917L45.5346 16.8849C45.826 16.7317 46.1741 16.7317 46.4655 16.8849L50.8518 19.1917L50.0144 14.309C49.9588 13.9845 50.0664 13.6534 50.3023 13.4236L53.8516 9.9666L48.9454 9.24949C48.62 9.20193 48.3389 8.99747 48.1933 8.70262L46 4.25925Z" fill="black" fill-opacity="0.4"/>
<path fill-rule="evenodd" clip-rule="evenodd" d="M81 1C81.3806 1 81.7283 1.21607 81.8967 1.55738L84.7543 7.34647L91.1447 8.28051C91.5212 8.33555 91.8339 8.59956 91.9513 8.96157C92.0687 9.32358 91.9704 9.72083 91.6978 9.98636L87.0746 14.4894L88.1656 20.851C88.23 21.2261 88.0757 21.6053 87.7678 21.8291C87.4598 22.0528 87.0515 22.0823 86.7146 21.9051L81 18.8998L75.2855 21.9051C74.9486 22.0823 74.5403 22.0528 74.2323 21.8291C73.9243 21.6053 73.7701 21.2261 73.8344 20.851L74.9255 14.4894L70.3023 9.98636C70.0297 9.72083 69.9314 9.32358 70.0488 8.96157C70.1662 8.59956 70.4788 8.33555 70.8554 8.28051L77.2458 7.34647L80.1033 1.55738C80.2718 1.21607 80.6194 1 81 1ZM81 4.25925L78.8067 8.70262C78.6612 8.99747 78.38 9.20193 78.0547 9.24949L73.1484 9.9666L76.6978 13.4236C76.9336 13.6534 77.0413 13.9845 76.9856 14.309L76.1482 19.1917L80.5346 16.8849C80.826 16.7317 81.1741 16.7317 81.4655 16.8849L85.8518 19.1917L85.0144 14.309C84.9588 13.9845 85.0664 13.6534 85.3023 13.4236L88.8516 9.9666L83.9454 9.24949C83.62 9.20193 83.3389 8.99747 83.1933 8.70262L81 4.25925Z" fill="black" fill-opacity="0.4"/>
<path fill-rule="evenodd" clip-rule="evenodd" d="M149 1C149.381 1 149.728 1.21607 149.897 1.55738L152.754 7.34647L159.145 8.28051C159.521 8.33555 159.834 8.59956 159.951 8.96157C160.069 9.32358 159.97 9.72083 159.698 9.98636L155.075 14.4894L156.166 20.851C156.23 21.2261 156.076 21.6053 155.768 21.8291C155.46 22.0528 155.051 22.0823 154.715 21.9051L149 18.8998L143.285 21.9051C142.949 22.0823 142.54 22.0528 142.232 21.8291C141.924 21.6053 141.77 21.2261 141.834 20.851L142.926 14.4894L138.302 9.98636C138.03 9.72083 137.931 9.32358 138.049 8.96157C138.166 8.59956 138.479 8.33555 138.855 8.28051L145.246 7.34647L148.103 1.55738C148.272 1.21607 148.619 1 149 1ZM149 4.25925L146.807 8.70262C146.661 8.99747 146.38 9.20193 146.055 9.24949L141.148 9.9666L144.698 13.4236C144.934 13.6534 145.041 13.9845 144.986 14.309L144.148 19.1917L148.535 16.8849C148.826 16.7317 149.174 16.7317 149.465 16.8849L153.852 19.1917L153.014 14.309C152.959 13.9845 153.066 13.6534 153.302 13.4236L156.852 9.9666L151.945 9.24949C151.62 9.20193 151.339 8.99747 151.193 8.70262L149 4.25925Z" fill="black" fill-opacity="0.4"/>
<path fill-rule="evenodd" clip-rule="evenodd" d="M116 1C116.381 1 116.728 1.21607 116.897 1.55738L119.754 7.34647L126.145 8.28051C126.521 8.33555 126.834 8.59956 126.951 8.96157C127.069 9.32358 126.97 9.72083 126.698 9.98636L122.075 14.4894L123.166 20.851C123.23 21.2261 123.076 21.6053 122.768 21.8291C122.46 22.0528 122.051 22.0823 121.715 21.9051L116 18.8998L110.285 21.9051C109.949 22.0823 109.54 22.0528 109.232 21.8291C108.924 21.6053 108.77 21.2261 108.834 20.851L109.926 14.4894L105.302 9.98636C105.03 9.72083 104.931 9.32358 105.049 8.96157C105.166 8.59956 105.479 8.33555 105.855 8.28051L112.246 7.34647L115.103 1.55738C115.272 1.21607 115.619 1 116 1ZM116 4.25925L113.807 8.70262C113.661 8.99747 113.38 9.20193 113.055 9.24949L108.148 9.9666L111.698 13.4236C111.934 13.6534 112.041 13.9845 111.986 14.309L111.148 19.1917L115.535 16.8849C115.826 16.7317 116.174 16.7317 116.465 16.8849L120.852 19.1917L120.014 14.309C119.959 13.9845 120.066 13.6534 120.302 13.4236L123.852 9.9666L118.945 9.24949C118.62 9.20193 118.339 8.99747 118.193 8.70262L116 4.25925Z" fill="black" fill-opacity="0.4"/>
</svg>
