<svg width="162" height="22" viewBox="0 0 162 22" fill="none" xmlns="http://www.w3.org/2000/svg">
<path fill-rule="evenodd" clip-rule="evenodd" d="M11.8967 0.557376C11.7283 0.216072 11.3806 0 11 0C10.6194 0 10.2718 0.216072 10.1033 0.557376L7.24577 6.34647L0.855401 7.28051C0.478841 7.33555 0.166161 7.59956 0.0487831 7.96157C-0.0685946 8.32358 0.0296782 8.72083 0.302296 8.98636L4.92551 13.4894L3.83442 19.851C3.77007 20.2261 3.92432 20.6053 4.2323 20.8291C4.54027 21.0528 4.94856 21.0823 5.28548 20.9051L11 17.8998L16.7146 20.9051C17.0515 21.0823 17.4598 21.0528 17.7678 20.8291C18.0757 20.6053 18.23 20.2261 18.1656 19.851L17.0745 13.4894L21.6978 8.98636C21.9704 8.72083 22.0687 8.32358 21.9513 7.96157C21.8339 7.59956 21.5212 7.33555 21.1447 7.28051L14.7543 6.34647L11.8967 0.557376Z" fill="#FEDD2D"/>
<path fill-rule="evenodd" clip-rule="evenodd" d="M46.8967 0.557376C46.7283 0.216072 46.3806 0 46 0C45.6194 0 45.2718 0.216072 45.1033 0.557376L42.2458 6.34647L35.8554 7.28051C35.4788 7.33555 35.1662 7.59956 35.0488 7.96157C34.9314 8.32358 35.0297 8.72083 35.3023 8.98636L39.9255 13.4894L38.8344 19.851C38.7701 20.2261 38.9243 20.6053 39.2323 20.8291C39.5403 21.0528 39.9486 21.0823 40.2855 20.9051L46 17.8998L51.7146 20.9051C52.0515 21.0823 52.4598 21.0528 52.7678 20.8291C53.0757 20.6053 53.23 20.2261 53.1656 19.851L52.0745 13.4894L56.6978 8.98636C56.9704 8.72083 57.0687 8.32358 56.9513 7.96157C56.8339 7.59956 56.5212 7.33555 56.1447 7.28051L49.7543 6.34647L46.8967 0.557376Z" fill="#FEDD2D"/>
<path fill-rule="evenodd" clip-rule="evenodd" d="M81.8967 0.557376C81.7283 0.216072 81.3806 0 81 0C80.6194 0 80.2718 0.216072 80.1033 0.557376L77.2458 6.34647L70.8554 7.28051C70.4788 7.33555 70.1662 7.59956 70.0488 7.96157C69.9314 8.32358 70.0297 8.72083 70.3023 8.98636L74.9255 13.4894L73.8344 19.851C73.7701 20.2261 73.9243 20.6053 74.2323 20.8291C74.5403 21.0528 74.9486 21.0823 75.2855 20.9051L81 17.8998L86.7146 20.9051C87.0515 21.0823 87.4598 21.0528 87.7678 20.8291C88.0757 20.6053 88.23 20.2261 88.1656 19.851L87.0746 13.4894L91.6978 8.98636C91.9704 8.72083 92.0687 8.32358 91.9513 7.96157C91.8339 7.59956 91.5212 7.33555 91.1447 7.28051L84.7543 6.34647L81.8967 0.557376Z" fill="#FEDD2D"/>
<path fill-rule="evenodd" clip-rule="evenodd" d="M116.897 0.557376C116.728 0.216072 116.381 0 116 0C115.619 0 115.272 0.216072 115.103 0.557376L112.246 6.34647L105.855 7.28051C105.479 7.33555 105.166 7.59956 105.049 7.96157C104.931 8.32358 105.03 8.72083 105.302 8.98636L109.926 13.4894L108.834 19.851C108.77 20.2261 108.924 20.6053 109.232 20.8291C109.54 21.0528 109.949 21.0823 110.285 20.9051L116 17.8998L121.715 20.9051C122.051 21.0823 122.46 21.0528 122.768 20.8291C123.076 20.6053 123.23 20.2261 123.166 19.851L122.075 13.4894L126.698 8.98636C126.97 8.72083 127.069 8.32358 126.951 7.96157C126.834 7.59956 126.521 7.33555 126.145 7.28051L119.754 6.34647L116.897 0.557376Z" fill="#FEDD2D"/>
<path fill-rule="evenodd" clip-rule="evenodd" d="M151.897 0.557376C151.728 0.216072 151.381 0 151 0C150.619 0 150.272 0.216072 150.103 0.557376L147.246 6.34647L140.855 7.28051C140.479 7.33555 140.166 7.59956 140.049 7.96157C139.931 8.32358 140.03 8.72083 140.302 8.98636L144.926 13.4894L143.834 19.851C143.77 20.2261 143.924 20.6053 144.232 20.8291C144.54 21.0528 144.949 21.0823 145.285 20.9051L151 17.8998L156.715 20.9051C157.051 21.0823 157.46 21.0528 157.768 20.8291C158.076 20.6053 158.23 20.2261 158.166 19.851L157.075 13.4894L161.698 8.98636C161.97 8.72083 162.069 8.32358 161.951 7.96157C161.834 7.59956 161.521 7.33555 161.145 7.28051L154.754 6.34647L151.897 0.557376Z" fill="#FEDD2D"/>
<path fill-rule="evenodd" clip-rule="evenodd" d="M116.897 0.557376C116.728 0.216072 116.381 0 116 0C115.619 0 115.272 0.216072 115.103 0.557376L112.246 6.34647L105.855 7.28051C105.479 7.33555 105.166 7.59956 105.049 7.96157C104.931 8.32358 105.03 8.72083 105.302 8.98636L109.926 13.4894L108.834 19.851C108.77 20.2261 108.924 20.6053 109.232 20.8291C109.54 21.0528 109.949 21.0823 110.285 20.9051L116 17.8998L121.715 20.9051C122.051 21.0823 122.46 21.0528 122.768 20.8291C123.076 20.6053 123.23 20.2261 123.166 19.851L122.075 13.4894L126.698 8.98636C126.97 8.72083 127.069 8.32358 126.951 7.96157C126.834 7.59956 126.521 7.33555 126.145 7.28051L119.754 6.34647L116.897 0.557376Z" fill="#FEDD2D"/>
</svg>
