<svg width="24" height="21" viewBox="0 0 24 21" fill="none" xmlns="http://www.w3.org/2000/svg">
<path d="M13.5021 2.54141L13.5023 2.54124C13.9719 2.04946 14.5269 1.66191 15.1345 1.3984C15.742 1.13494 16.3914 1 17.046 1C17.7006 1 18.35 1.13494 18.9574 1.3984C19.565 1.66191 20.1201 2.04946 20.5897 2.54124L20.59 2.54158C21.0599 3.03321 21.435 3.61939 21.6916 4.26774C21.9483 4.91614 22.0809 5.6126 22.0809 6.31694C22.0809 7.02129 21.9483 7.71775 21.6916 8.36615C21.435 9.0145 21.0599 9.60068 20.59 10.0923L20.5898 10.0925L19.4271 11.3095L11.6163 19.4853L3.80554 11.3095L2.64283 10.0925C1.69333 9.09861 1.15234 7.74128 1.15234 6.31694C1.15234 4.8926 1.69333 3.53527 2.64283 2.54141C3.59084 1.54909 4.86662 1.00061 6.18669 1.00061C7.50677 1.00061 8.78255 1.54909 9.73056 2.54141L10.8933 3.75845C11.082 3.95594 11.3432 4.06767 11.6163 4.06767C11.8895 4.06767 12.1507 3.95594 12.3394 3.75845L13.5021 2.54141Z" fill="#FF2E2E" stroke="#FF2E2E" stroke-width="2" stroke-linecap="round" stroke-linejoin="round"/>
</svg>
