<svg width="18" height="18" viewBox="0 0 18 18" fill="none" xmlns="http://www.w3.org/2000/svg">
<path fill-rule="evenodd" clip-rule="evenodd" d="M2.1967 2.1967C3.60322 0.790176 5.51088 0 7.5 0C9.48912 0 11.3968 0.790176 12.8033 2.1967C14.2098 3.60322 15 5.51088 15 7.5C15 9.15278 14.4545 10.7493 13.4631 12.0489L17.7071 16.2929C18.0976 16.6834 18.0976 17.3166 17.7071 17.7071C17.3166 18.0976 16.6834 18.0976 16.2929 17.7071L12.0489 13.4631C10.7493 14.4545 9.15278 15 7.5 15C5.51088 15 3.60322 14.2098 2.1967 12.8033C0.790176 11.3968 0 9.48912 0 7.5C0 5.51088 0.790176 3.60322 2.1967 2.1967ZM7.5 2C6.04131 2 4.64236 2.57946 3.61091 3.61091C2.57946 4.64236 2 6.04131 2 7.5C2 8.95869 2.57946 10.3576 3.61091 11.3891C4.64236 12.4205 6.04131 13 7.5 13C8.95869 13 10.3576 12.4205 11.3891 11.3891C12.4205 10.3576 13 8.95869 13 7.5C13 6.04131 12.4205 4.64236 11.3891 3.61091C10.3576 2.57946 8.95869 2 7.5 2Z" fill="#1B1F3B" fill-opacity="0.4"/>
</svg>
