<svg width="563" height="300" viewBox="0 0 563 300" fill="none" xmlns="http://www.w3.org/2000/svg">
<g filter="url(#filter0_d_675_324)">
<rect x="4" width="555" height="292" rx="27" fill="white"/>
</g>
<path d="M159.981 105V87.5455H166.083C167.299 87.5455 168.302 87.7557 169.092 88.1761C169.881 88.5909 170.469 89.1506 170.856 89.8551C171.242 90.554 171.435 91.3295 171.435 92.1818C171.435 92.9318 171.302 93.5511 171.035 94.0398C170.773 94.5284 170.427 94.9148 169.995 95.1989C169.569 95.483 169.106 95.6932 168.606 95.8295V96C169.14 96.0341 169.677 96.2216 170.217 96.5625C170.756 96.9034 171.208 97.392 171.572 98.0284C171.935 98.6648 172.117 99.4432 172.117 100.364C172.117 101.239 171.918 102.026 171.521 102.724C171.123 103.423 170.495 103.977 169.637 104.386C168.779 104.795 167.663 105 166.288 105H159.981ZM162.094 103.125H166.288C167.668 103.125 168.648 102.858 169.228 102.324C169.813 101.784 170.106 101.131 170.106 100.364C170.106 99.7727 169.955 99.2273 169.654 98.7273C169.353 98.2216 168.924 97.8182 168.367 97.517C167.81 97.2102 167.151 97.0568 166.39 97.0568H162.094V103.125ZM162.094 95.2159H166.015C166.651 95.2159 167.225 95.0909 167.737 94.8409C168.254 94.5909 168.663 94.2386 168.964 93.7841C169.271 93.3295 169.424 92.7955 169.424 92.1818C169.424 91.4148 169.157 90.7642 168.623 90.2301C168.089 89.6903 167.242 89.4205 166.083 89.4205H162.094V95.2159ZM177.056 96.6477H180.806C182.34 96.6477 183.513 97.0369 184.326 97.8153C185.138 98.5937 185.545 99.5795 185.545 100.773C185.545 101.557 185.363 102.27 184.999 102.912C184.636 103.548 184.102 104.057 183.397 104.438C182.692 104.812 181.829 105 180.806 105H175.317V91.9091H177.329V103.125H180.806C181.602 103.125 182.255 102.915 182.766 102.494C183.278 102.074 183.533 101.534 183.533 100.875C183.533 100.182 183.278 99.6165 182.766 99.179C182.255 98.7415 181.602 98.5227 180.806 98.5227H177.056V96.6477ZM187.624 105V91.9091H189.636V105H187.624ZM201.363 109.909C201.022 109.909 200.718 109.881 200.451 109.824C200.184 109.773 199.999 109.722 199.897 109.67L200.408 107.898C200.897 108.023 201.329 108.068 201.704 108.034C202.079 108 202.411 107.832 202.701 107.531C202.996 107.236 203.266 106.756 203.511 106.091L203.886 105.068L199.045 91.9091H201.227L204.84 102.341H204.977L208.59 91.9091H210.772L205.215 106.909C204.965 107.585 204.656 108.145 204.286 108.588C203.917 109.037 203.488 109.369 202.999 109.585C202.516 109.801 201.971 109.909 201.363 109.909ZM218.276 105.273C217.049 105.273 215.992 104.983 215.106 104.403C214.219 103.824 213.538 103.026 213.06 102.009C212.583 100.991 212.344 99.8295 212.344 98.5227C212.344 97.1932 212.589 96.0199 213.077 95.0028C213.572 93.9801 214.259 93.1818 215.14 92.608C216.026 92.0284 217.06 91.7386 218.242 91.7386C219.163 91.7386 219.992 91.9091 220.731 92.25C221.469 92.5909 222.075 93.0682 222.546 93.6818C223.018 94.2955 223.31 95.0114 223.424 95.8295H221.413C221.259 95.233 220.918 94.7045 220.39 94.2443C219.867 93.7784 219.163 93.5455 218.276 93.5455C217.492 93.5455 216.805 93.75 216.214 94.1591C215.629 94.5625 215.171 95.1335 214.842 95.8722C214.518 96.6051 214.356 97.4659 214.356 98.4545C214.356 99.4659 214.515 100.347 214.833 101.097C215.157 101.847 215.612 102.429 216.197 102.844C216.788 103.259 217.481 103.466 218.276 103.466C218.799 103.466 219.273 103.375 219.7 103.193C220.126 103.011 220.487 102.75 220.782 102.409C221.077 102.068 221.288 101.659 221.413 101.182H223.424C223.31 101.955 223.029 102.651 222.58 103.27C222.137 103.884 221.549 104.372 220.816 104.736C220.089 105.094 219.242 105.273 218.276 105.273ZM226.364 105V91.9091H236.66V105H234.648V93.7841H228.376V105H226.364ZM245.822 105.273C244.56 105.273 243.472 104.994 242.558 104.438C241.648 103.875 240.947 103.091 240.452 102.085C239.964 101.074 239.719 99.8977 239.719 98.5568C239.719 97.2159 239.964 96.0341 240.452 95.0114C240.947 93.983 241.634 93.1818 242.515 92.608C243.401 92.0284 244.435 91.7386 245.617 91.7386C246.299 91.7386 246.972 91.8523 247.637 92.0795C248.302 92.3068 248.907 92.6761 249.452 93.1875C249.998 93.6932 250.433 94.3636 250.756 95.1989C251.08 96.0341 251.242 97.0625 251.242 98.2841V99.1364H241.151V97.3977H249.197C249.197 96.6591 249.049 96 248.754 95.4205C248.464 94.8409 248.049 94.3835 247.509 94.0483C246.975 93.7131 246.344 93.5455 245.617 93.5455C244.816 93.5455 244.123 93.7443 243.538 94.142C242.958 94.5341 242.512 95.0455 242.2 95.6761C241.887 96.3068 241.731 96.983 241.731 97.7045V98.8636C241.731 99.8523 241.901 100.69 242.242 101.378C242.589 102.06 243.069 102.58 243.683 102.938C244.296 103.29 245.009 103.466 245.822 103.466C246.35 103.466 246.827 103.392 247.254 103.244C247.685 103.091 248.058 102.864 248.37 102.562C248.683 102.256 248.924 101.875 249.094 101.42L251.038 101.966C250.833 102.625 250.489 103.205 250.006 103.705C249.523 104.199 248.927 104.585 248.217 104.864C247.506 105.136 246.708 105.273 245.822 105.273ZM254.302 91.9091H256.313V103.125H261.256V91.9091H263.268V103.125H268.211V91.9091H270.222V105H254.302V91.9091ZM282.657 97.5341V99.4091H275.43V97.5341H282.657ZM275.907 91.9091V105H273.896V91.9091H275.907ZM284.191 91.9091V105H282.18V91.9091H284.191ZM293.183 105.273C292.001 105.273 290.964 104.991 290.072 104.429C289.185 103.866 288.492 103.08 287.992 102.068C287.498 101.057 287.251 99.875 287.251 98.5227C287.251 97.1591 287.498 95.9687 287.992 94.9517C288.492 93.9347 289.185 93.1449 290.072 92.5824C290.964 92.0199 292.001 91.7386 293.183 91.7386C294.364 91.7386 295.398 92.0199 296.285 92.5824C297.177 93.1449 297.87 93.9347 298.364 94.9517C298.864 95.9687 299.114 97.1591 299.114 98.5227C299.114 99.875 298.864 101.057 298.364 102.068C297.87 103.08 297.177 103.866 296.285 104.429C295.398 104.991 294.364 105.273 293.183 105.273ZM293.183 103.466C294.08 103.466 294.819 103.236 295.398 102.776C295.978 102.315 296.407 101.71 296.685 100.96C296.964 100.21 297.103 99.3977 297.103 98.5227C297.103 97.6477 296.964 96.8324 296.685 96.0767C296.407 95.321 295.978 94.7102 295.398 94.2443C294.819 93.7784 294.08 93.5455 293.183 93.5455C292.285 93.5455 291.546 93.7784 290.967 94.2443C290.387 94.7102 289.958 95.321 289.68 96.0767C289.401 96.8324 289.262 97.6477 289.262 98.5227C289.262 99.3977 289.401 100.21 289.68 100.96C289.958 101.71 290.387 102.315 290.967 102.776C291.546 103.236 292.285 103.466 293.183 103.466ZM314.253 105.273C313.071 105.273 312.034 104.991 311.142 104.429C310.256 103.866 309.562 103.08 309.062 102.068C308.568 101.057 308.321 99.875 308.321 98.5227C308.321 97.1591 308.568 95.9687 309.062 94.9517C309.562 93.9347 310.256 93.1449 311.142 92.5824C312.034 92.0199 313.071 91.7386 314.253 91.7386C315.435 91.7386 316.469 92.0199 317.355 92.5824C318.247 93.1449 318.94 93.9347 319.435 94.9517C319.935 95.9687 320.185 97.1591 320.185 98.5227C320.185 99.875 319.935 101.057 319.435 102.068C318.94 103.08 318.247 103.866 317.355 104.429C316.469 104.991 315.435 105.273 314.253 105.273ZM314.253 103.466C315.151 103.466 315.889 103.236 316.469 102.776C317.048 102.315 317.477 101.71 317.756 100.96C318.034 100.21 318.173 99.3977 318.173 98.5227C318.173 97.6477 318.034 96.8324 317.756 96.0767C317.477 95.321 317.048 94.7102 316.469 94.2443C315.889 93.7784 315.151 93.5455 314.253 93.5455C313.355 93.5455 312.616 93.7784 312.037 94.2443C311.457 94.7102 311.028 95.321 310.75 96.0767C310.472 96.8324 310.332 97.6477 310.332 98.5227C310.332 99.3977 310.472 100.21 310.75 100.96C311.028 101.71 311.457 102.315 312.037 102.776C312.616 103.236 313.355 103.466 314.253 103.466ZM332.971 87L333.994 88.2273C333.596 88.6136 333.136 88.8835 332.613 89.0369C332.09 89.1903 331.499 89.2841 330.84 89.3182C330.181 89.3523 329.448 89.3864 328.641 89.4205C327.732 89.4545 326.979 89.6761 326.383 90.0852C325.786 90.4943 325.326 91.0852 325.002 91.858C324.678 92.6307 324.471 93.5795 324.38 94.7045H324.55C324.994 93.8864 325.607 93.2841 326.391 92.8977C327.175 92.5114 328.016 92.3182 328.914 92.3182C329.937 92.3182 330.857 92.5568 331.675 93.0341C332.494 93.5114 333.141 94.2188 333.619 95.1562C334.096 96.0938 334.335 97.25 334.335 98.625C334.335 99.9943 334.09 101.176 333.602 102.17C333.119 103.165 332.44 103.932 331.565 104.472C330.695 105.006 329.675 105.273 328.505 105.273C327.335 105.273 326.309 104.997 325.428 104.446C324.548 103.889 323.863 103.065 323.374 101.974C322.886 100.878 322.641 99.5227 322.641 97.9091V96.5114C322.641 93.5966 323.136 91.3864 324.124 89.8807C325.119 88.375 326.613 87.5966 328.607 87.5455C329.312 87.5227 329.94 87.517 330.491 87.5284C331.042 87.5398 331.522 87.5142 331.931 87.4517C332.34 87.3892 332.687 87.2386 332.971 87ZM328.505 103.466C329.295 103.466 329.974 103.267 330.542 102.869C331.116 102.472 331.556 101.912 331.863 101.19C332.17 100.463 332.323 99.608 332.323 98.625C332.323 97.6705 332.167 96.858 331.854 96.1875C331.548 95.517 331.107 95.0057 330.533 94.6534C329.96 94.3011 329.272 94.125 328.471 94.125C327.886 94.125 327.36 94.2244 326.894 94.4233C326.428 94.6222 326.031 94.9148 325.701 95.3011C325.371 95.6875 325.116 96.1591 324.934 96.7159C324.758 97.2727 324.664 97.9091 324.653 98.625C324.653 100.091 324.996 101.264 325.684 102.145C326.371 103.026 327.312 103.466 328.505 103.466ZM346.173 97.5341V99.4091H338.945V97.5341H346.173ZM339.423 91.9091V105H337.411V91.9091H339.423ZM347.707 91.9091V105H345.695V91.9091H347.707ZM356.698 105.273C355.516 105.273 354.479 104.991 353.587 104.429C352.701 103.866 352.008 103.08 351.508 102.068C351.013 101.057 350.766 99.875 350.766 98.5227C350.766 97.1591 351.013 95.9687 351.508 94.9517C352.008 93.9347 352.701 93.1449 353.587 92.5824C354.479 92.0199 355.516 91.7386 356.698 91.7386C357.88 91.7386 358.914 92.0199 359.8 92.5824C360.692 93.1449 361.386 93.9347 361.88 94.9517C362.38 95.9687 362.63 97.1591 362.63 98.5227C362.63 99.875 362.38 101.057 361.88 102.068C361.386 103.08 360.692 103.866 359.8 104.429C358.914 104.991 357.88 105.273 356.698 105.273ZM356.698 103.466C357.596 103.466 358.335 103.236 358.914 102.776C359.494 102.315 359.923 101.71 360.201 100.96C360.479 100.21 360.619 99.3977 360.619 98.5227C360.619 97.6477 360.479 96.8324 360.201 96.0767C359.923 95.321 359.494 94.7102 358.914 94.2443C358.335 93.7784 357.596 93.5455 356.698 93.5455C355.8 93.5455 355.062 93.7784 354.482 94.2443C353.903 94.7102 353.474 95.321 353.195 96.0767C352.917 96.8324 352.778 97.6477 352.778 98.5227C352.778 99.3977 352.917 100.21 353.195 100.96C353.474 101.71 353.903 102.315 354.482 102.776C355.062 103.236 355.8 103.466 356.698 103.466ZM365.7 105V91.9091H371.053C372.462 91.9091 373.581 92.2273 374.411 92.8636C375.24 93.5 375.655 94.3409 375.655 95.3864C375.655 96.1818 375.419 96.7983 374.947 97.2358C374.476 97.6676 373.871 97.9602 373.132 98.1136C373.615 98.1818 374.084 98.3523 374.538 98.625C374.999 98.8977 375.379 99.2727 375.68 99.75C375.982 100.222 376.132 100.801 376.132 101.489C376.132 102.159 375.962 102.759 375.621 103.287C375.28 103.815 374.791 104.233 374.155 104.54C373.518 104.847 372.757 105 371.871 105H365.7ZM367.609 103.159H371.871C372.564 103.159 373.107 102.994 373.499 102.665C373.891 102.335 374.087 101.886 374.087 101.318C374.087 100.642 373.891 100.111 373.499 99.7244C373.107 99.3324 372.564 99.1364 371.871 99.1364H367.609V103.159ZM367.609 97.3977H371.053C371.592 97.3977 372.055 97.3239 372.442 97.1761C372.828 97.0227 373.124 96.8068 373.328 96.5284C373.538 96.2443 373.643 95.9091 373.643 95.5227C373.643 94.9716 373.413 94.5398 372.953 94.2273C372.493 93.9091 371.859 93.75 371.053 93.75H367.609V97.3977ZM381.188 102.034L387.495 91.9091H389.813V105H387.802V94.875L381.529 105H379.177V91.9091H381.188V102.034ZM392.338 105V103.125H392.815C393.207 103.125 393.534 103.048 393.795 102.895C394.057 102.736 394.267 102.46 394.426 102.068C394.591 101.67 394.716 101.119 394.801 100.415C394.892 99.7045 394.957 98.8011 394.997 97.7045L395.236 91.9091H403.963V105H401.952V93.7841H397.145L396.94 98.4545C396.895 99.5284 396.798 100.474 396.651 101.293C396.509 102.105 396.29 102.787 395.994 103.338C395.705 103.889 395.318 104.304 394.835 104.582C394.352 104.861 393.747 105 393.02 105H392.338ZM409.665 102.034L415.972 91.9091H418.29V105H416.278V94.875L410.006 105H407.653V91.9091H409.665V102.034ZM224.667 130.659H226.815C226.86 131.25 227.127 131.699 227.616 132.006C228.11 132.312 228.752 132.466 229.542 132.466C230.349 132.466 231.039 132.301 231.613 131.972C232.187 131.636 232.474 131.097 232.474 130.352C232.474 129.915 232.366 129.534 232.15 129.21C231.934 128.881 231.63 128.625 231.238 128.443C230.846 128.261 230.383 128.17 229.849 128.17H227.599V126.364H229.849C230.65 126.364 231.241 126.182 231.622 125.818C232.008 125.455 232.201 125 232.201 124.455C232.201 123.869 231.994 123.401 231.579 123.048C231.164 122.69 230.576 122.511 229.815 122.511C229.048 122.511 228.409 122.685 227.897 123.031C227.386 123.372 227.116 123.812 227.088 124.352H224.974C224.997 123.648 225.213 123.026 225.622 122.486C226.031 121.94 226.588 121.514 227.292 121.207C227.997 120.895 228.804 120.739 229.713 120.739C230.633 120.739 231.431 120.901 232.108 121.224C232.789 121.543 233.315 121.977 233.684 122.528C234.059 123.074 234.247 123.693 234.247 124.386C234.247 125.125 234.039 125.722 233.625 126.176C233.21 126.631 232.69 126.955 232.065 127.148V127.284C232.559 127.318 232.988 127.477 233.352 127.761C233.721 128.04 234.008 128.406 234.213 128.861C234.417 129.31 234.52 129.807 234.52 130.352C234.52 131.148 234.306 131.841 233.88 132.432C233.454 133.017 232.869 133.472 232.125 133.795C231.38 134.114 230.531 134.273 229.576 134.273C228.65 134.273 227.821 134.122 227.088 133.821C226.355 133.514 225.772 133.091 225.341 132.551C224.914 132.006 224.69 131.375 224.667 130.659ZM241.197 134.307C240.368 134.307 239.615 134.151 238.939 133.838C238.262 133.52 237.725 133.062 237.328 132.466C236.93 131.864 236.731 131.136 236.731 130.284C236.731 129.534 236.879 128.926 237.174 128.46C237.47 127.989 237.865 127.619 238.359 127.352C238.853 127.085 239.399 126.886 239.995 126.756C240.598 126.619 241.203 126.511 241.811 126.432C242.606 126.33 243.251 126.253 243.745 126.202C244.245 126.145 244.609 126.051 244.836 125.92C245.069 125.79 245.186 125.562 245.186 125.239V125.17C245.186 124.33 244.956 123.676 244.495 123.21C244.041 122.744 243.35 122.511 242.424 122.511C241.464 122.511 240.711 122.722 240.166 123.142C239.62 123.562 239.237 124.011 239.015 124.489L237.106 123.807C237.447 123.011 237.902 122.392 238.47 121.949C239.044 121.5 239.669 121.187 240.345 121.011C241.027 120.83 241.697 120.739 242.356 120.739C242.777 120.739 243.26 120.79 243.805 120.892C244.356 120.989 244.887 121.19 245.399 121.497C245.916 121.804 246.345 122.267 246.686 122.886C247.027 123.506 247.197 124.335 247.197 125.375V134H245.186V132.227H245.083C244.947 132.511 244.72 132.815 244.402 133.139C244.083 133.463 243.66 133.739 243.132 133.966C242.603 134.193 241.958 134.307 241.197 134.307ZM241.504 132.5C242.299 132.5 242.97 132.344 243.515 132.031C244.066 131.719 244.481 131.315 244.76 130.821C245.044 130.327 245.186 129.807 245.186 129.261V127.42C245.1 127.523 244.913 127.616 244.623 127.702C244.339 127.781 244.01 127.852 243.635 127.915C243.265 127.972 242.904 128.023 242.552 128.068C242.206 128.108 241.924 128.142 241.708 128.17C241.186 128.239 240.697 128.349 240.243 128.503C239.794 128.651 239.43 128.875 239.152 129.176C238.879 129.472 238.743 129.875 238.743 130.386C238.743 131.085 239.001 131.614 239.518 131.972C240.041 132.324 240.703 132.5 241.504 132.5ZM250.868 134V120.909H256.221C257.63 120.909 258.749 121.227 259.578 121.864C260.408 122.5 260.823 123.341 260.823 124.386C260.823 125.182 260.587 125.798 260.115 126.236C259.644 126.668 259.039 126.96 258.3 127.114C258.783 127.182 259.252 127.352 259.706 127.625C260.167 127.898 260.547 128.273 260.848 128.75C261.15 129.222 261.3 129.801 261.3 130.489C261.3 131.159 261.13 131.759 260.789 132.287C260.448 132.815 259.959 133.233 259.323 133.54C258.686 133.847 257.925 134 257.039 134H250.868ZM252.777 132.159H257.039C257.732 132.159 258.275 131.994 258.667 131.665C259.059 131.335 259.255 130.886 259.255 130.318C259.255 129.642 259.059 129.111 258.667 128.724C258.275 128.332 257.732 128.136 257.039 128.136H252.777V132.159ZM252.777 126.398H256.221C256.76 126.398 257.223 126.324 257.61 126.176C257.996 126.023 258.292 125.807 258.496 125.528C258.706 125.244 258.811 124.909 258.811 124.523C258.811 123.972 258.581 123.54 258.121 123.227C257.661 122.909 257.027 122.75 256.221 122.75H252.777V126.398ZM269.833 134.273C268.572 134.273 267.484 133.994 266.569 133.438C265.66 132.875 264.958 132.091 264.464 131.085C263.975 130.074 263.731 128.898 263.731 127.557C263.731 126.216 263.975 125.034 264.464 124.011C264.958 122.983 265.646 122.182 266.527 121.608C267.413 121.028 268.447 120.739 269.629 120.739C270.311 120.739 270.984 120.852 271.649 121.08C272.314 121.307 272.919 121.676 273.464 122.188C274.01 122.693 274.444 123.364 274.768 124.199C275.092 125.034 275.254 126.062 275.254 127.284V128.136H265.163V126.398H273.208C273.208 125.659 273.061 125 272.765 124.42C272.475 123.841 272.061 123.384 271.521 123.048C270.987 122.713 270.356 122.545 269.629 122.545C268.828 122.545 268.135 122.744 267.549 123.142C266.97 123.534 266.524 124.045 266.211 124.676C265.899 125.307 265.743 125.983 265.743 126.705V127.864C265.743 128.852 265.913 129.69 266.254 130.378C266.6 131.06 267.081 131.58 267.694 131.938C268.308 132.29 269.021 132.466 269.833 132.466C270.362 132.466 270.839 132.392 271.265 132.244C271.697 132.091 272.069 131.864 272.382 131.562C272.694 131.256 272.936 130.875 273.106 130.42L275.049 130.966C274.845 131.625 274.501 132.205 274.018 132.705C273.535 133.199 272.939 133.585 272.228 133.864C271.518 134.136 270.72 134.273 269.833 134.273ZM276.916 137.75V132.125H278.007C278.274 131.847 278.504 131.545 278.697 131.222C278.89 130.898 279.058 130.514 279.2 130.071C279.348 129.622 279.473 129.077 279.575 128.435C279.677 127.787 279.768 127.006 279.848 126.091L280.291 120.909H288.609V132.125H290.62V137.75H288.609V134H278.927V137.75H276.916ZM280.291 132.125H286.598V122.784H282.166L281.825 126.091C281.683 127.46 281.507 128.656 281.297 129.679C281.086 130.702 280.751 131.517 280.291 132.125ZM298.779 134.273C297.517 134.273 296.429 133.994 295.515 133.438C294.605 132.875 293.904 132.091 293.409 131.085C292.921 130.074 292.676 128.898 292.676 127.557C292.676 126.216 292.921 125.034 293.409 124.011C293.904 122.983 294.591 122.182 295.472 121.608C296.358 121.028 297.392 120.739 298.574 120.739C299.256 120.739 299.929 120.852 300.594 121.08C301.259 121.307 301.864 121.676 302.409 122.188C302.955 122.693 303.39 123.364 303.713 124.199C304.037 125.034 304.199 126.062 304.199 127.284V128.136H294.108V126.398H302.154C302.154 125.659 302.006 125 301.711 124.42C301.421 123.841 301.006 123.384 300.466 123.048C299.932 122.713 299.301 122.545 298.574 122.545C297.773 122.545 297.08 122.744 296.495 123.142C295.915 123.534 295.469 124.045 295.157 124.676C294.844 125.307 294.688 125.983 294.688 126.705V127.864C294.688 128.852 294.858 129.69 295.199 130.378C295.546 131.06 296.026 131.58 296.64 131.938C297.253 132.29 297.966 132.466 298.779 132.466C299.307 132.466 299.784 132.392 300.211 132.244C300.642 132.091 301.015 131.864 301.327 131.562C301.64 131.256 301.881 130.875 302.051 130.42L303.995 130.966C303.79 131.625 303.446 132.205 302.963 132.705C302.48 133.199 301.884 133.585 301.174 133.864C300.463 134.136 299.665 134.273 298.779 134.273ZM316.02 126.534V128.409H308.793V126.534H316.02ZM309.27 120.909V134H307.259V120.909H309.27ZM317.554 120.909V134H315.543V120.909H317.554ZM323.239 131.034L329.546 120.909H331.864V134H329.853V123.875L323.58 134H321.228V120.909H323.239V131.034ZM341.037 134.273C339.775 134.273 338.687 133.994 337.772 133.438C336.863 132.875 336.162 132.091 335.667 131.085C335.179 130.074 334.934 128.898 334.934 127.557C334.934 126.216 335.179 125.034 335.667 124.011C336.162 122.983 336.849 122.182 337.73 121.608C338.616 121.028 339.65 120.739 340.832 120.739C341.514 120.739 342.187 120.852 342.852 121.08C343.517 121.307 344.122 121.676 344.667 122.188C345.213 122.693 345.647 123.364 345.971 124.199C346.295 125.034 346.457 126.062 346.457 127.284V128.136H336.366V126.398H344.412C344.412 125.659 344.264 125 343.968 124.42C343.679 123.841 343.264 123.384 342.724 123.048C342.19 122.713 341.559 122.545 340.832 122.545C340.031 122.545 339.338 122.744 338.752 123.142C338.173 123.534 337.727 124.045 337.414 124.676C337.102 125.307 336.946 125.983 336.946 126.705V127.864C336.946 128.852 337.116 129.69 337.457 130.378C337.804 131.06 338.284 131.58 338.897 131.938C339.511 132.29 340.224 132.466 341.037 132.466C341.565 132.466 342.042 132.392 342.468 132.244C342.9 132.091 343.272 131.864 343.585 131.562C343.897 131.256 344.139 130.875 344.309 130.42L346.252 130.966C346.048 131.625 345.704 132.205 345.221 132.705C344.738 133.199 344.142 133.585 343.431 133.864C342.721 134.136 341.923 134.273 341.037 134.273ZM352.176 116.545L352.005 129.091H350.028L349.858 116.545H352.176ZM351.017 134.136C350.596 134.136 350.235 133.986 349.934 133.685C349.633 133.384 349.483 133.023 349.483 132.602C349.483 132.182 349.633 131.821 349.934 131.52C350.235 131.219 350.596 131.068 351.017 131.068C351.437 131.068 351.798 131.219 352.099 131.52C352.4 131.821 352.551 132.182 352.551 132.602C352.551 132.881 352.48 133.136 352.338 133.369C352.201 133.602 352.017 133.79 351.784 133.932C351.556 134.068 351.301 134.136 351.017 134.136Z" fill="black"/>
<path d="M271.812 183.734L274.568 180.873L282.244 189.069L301.764 168.578L304.522 171.441L282.244 194.343L271.812 183.734Z" fill="#BAE0BD"/>
<path d="M301.765 168.901L304.211 171.441L282.244 194.025L272.124 183.733L274.566 181.198L281.931 189.063L282.243 189.396L282.557 189.066L301.765 168.901ZM301.763 168.256L282.246 188.745L274.57 180.549L271.5 183.737L282.246 194.664L304.833 171.443L301.763 168.256Z" fill="#5E9C76"/>
<defs>
<filter id="filter0_d_675_324" x="0" y="0" width="563" height="300" filterUnits="userSpaceOnUse" color-interpolation-filters="sRGB">
<feFlood flood-opacity="0" result="BackgroundImageFix"/>
<feColorMatrix in="SourceAlpha" type="matrix" values="0 0 0 0 0 0 0 0 0 0 0 0 0 0 0 0 0 0 127 0" result="hardAlpha"/>
<feOffset dy="4"/>
<feGaussianBlur stdDeviation="2"/>
<feComposite in2="hardAlpha" operator="out"/>
<feColorMatrix type="matrix" values="0 0 0 0 0 0 0 0 0 0 0 0 0 0 0 0 0 0 0.25 0"/>
<feBlend mode="normal" in2="BackgroundImageFix" result="effect1_dropShadow_675_324"/>
<feBlend mode="normal" in="SourceGraphic" in2="effect1_dropShadow_675_324" result="shape"/>
</filter>
</defs>
</svg>
