<svg width="563" height="300" viewBox="0 0 563 300" fill="none" xmlns="http://www.w3.org/2000/svg">
<g filter="url(#filter0_d_1608_662)">
<rect x="4" width="555" height="292" rx="27" fill="white"/>
</g>
<path d="M149.626 102.273C149.626 104.114 149.294 105.705 148.629 107.045C147.964 108.386 147.052 109.42 145.893 110.148C144.734 110.875 143.41 111.239 141.922 111.239C140.433 111.239 139.109 110.875 137.95 110.148C136.791 109.42 135.879 108.386 135.214 107.045C134.549 105.705 134.217 104.114 134.217 102.273C134.217 100.432 134.549 98.8409 135.214 97.5C135.879 96.1591 136.791 95.125 137.95 94.3977C139.109 93.6705 140.433 93.3068 141.922 93.3068C143.41 93.3068 144.734 93.6705 145.893 94.3977C147.052 95.125 147.964 96.1591 148.629 97.5C149.294 98.8409 149.626 100.432 149.626 102.273ZM147.581 102.273C147.581 100.761 147.328 99.4858 146.822 98.446C146.322 97.4062 145.643 96.6193 144.785 96.0852C143.933 95.5511 142.978 95.2841 141.922 95.2841C140.865 95.2841 139.907 95.5511 139.049 96.0852C138.197 96.6193 137.518 97.4062 137.012 98.446C136.512 99.4858 136.262 100.761 136.262 102.273C136.262 103.784 136.512 105.06 137.012 106.099C137.518 107.139 138.197 107.926 139.049 108.46C139.907 108.994 140.865 109.261 141.922 109.261C142.978 109.261 143.933 108.994 144.785 108.46C145.643 107.926 146.322 107.139 146.822 106.099C147.328 105.06 147.581 103.784 147.581 102.273ZM154.919 108.034L161.225 97.9091H163.544V111H161.532V100.875L155.26 111H152.907V97.9091H154.919V108.034ZM159.896 93.5455H161.771C161.771 94.4659 161.453 95.2188 160.816 95.804C160.18 96.3892 159.316 96.6818 158.225 96.6818C157.152 96.6818 156.297 96.3892 155.66 95.804C155.029 95.2188 154.714 94.4659 154.714 93.5455H156.589C156.589 93.9886 156.711 94.3778 156.956 94.7131C157.206 95.0483 157.629 95.2159 158.225 95.2159C158.822 95.2159 159.248 95.0483 159.504 94.7131C159.765 94.3778 159.896 93.9886 159.896 93.5455ZM170.228 108.614L170.091 109.534C169.995 110.182 169.847 110.875 169.648 111.614C169.455 112.352 169.253 113.048 169.043 113.702C168.833 114.355 168.659 114.875 168.523 115.261H166.989C167.063 114.898 167.159 114.418 167.279 113.821C167.398 113.224 167.517 112.557 167.637 111.818C167.762 111.085 167.864 110.335 167.944 109.568L168.046 108.614H170.228ZM190.795 97.9091V111H188.784V97.9091H190.795ZM190.011 104.148V106.023C189.556 106.193 189.105 106.344 188.656 106.474C188.207 106.599 187.735 106.699 187.241 106.773C186.747 106.841 186.204 106.875 185.613 106.875C184.13 106.875 182.94 106.474 182.042 105.673C181.15 104.872 180.704 103.67 180.704 102.068V97.875H182.716V102.068C182.716 102.739 182.843 103.29 183.099 103.722C183.355 104.153 183.701 104.474 184.139 104.685C184.576 104.895 185.068 105 185.613 105C186.466 105 187.235 104.923 187.923 104.77C188.616 104.611 189.312 104.403 190.011 104.148ZM192.704 99.7841V97.9091H203.341V99.7841H199.045V111H197.034V99.7841H192.704ZM210.913 111.273C209.731 111.273 208.694 110.991 207.802 110.429C206.916 109.866 206.223 109.08 205.723 108.068C205.228 107.057 204.981 105.875 204.981 104.523C204.981 103.159 205.228 101.969 205.723 100.952C206.223 99.9347 206.916 99.1449 207.802 98.5824C208.694 98.0199 209.731 97.7386 210.913 97.7386C212.095 97.7386 213.129 98.0199 214.015 98.5824C214.907 99.1449 215.6 99.9347 216.095 100.952C216.595 101.969 216.845 103.159 216.845 104.523C216.845 105.875 216.595 107.057 216.095 108.068C215.6 109.08 214.907 109.866 214.015 110.429C213.129 110.991 212.095 111.273 210.913 111.273ZM210.913 109.466C211.811 109.466 212.549 109.236 213.129 108.776C213.708 108.315 214.137 107.71 214.416 106.96C214.694 106.21 214.833 105.398 214.833 104.523C214.833 103.648 214.694 102.832 214.416 102.077C214.137 101.321 213.708 100.71 213.129 100.244C212.549 99.7784 211.811 99.5455 210.913 99.5455C210.015 99.5455 209.277 99.7784 208.697 100.244C208.118 100.71 207.689 101.321 207.41 102.077C207.132 102.832 206.993 103.648 206.993 104.523C206.993 105.398 207.132 106.21 207.41 106.96C207.689 107.71 208.118 108.315 208.697 108.776C209.277 109.236 210.015 109.466 210.913 109.466ZM227.415 102.58V104.455H219.779V102.58H227.415ZM229.525 99.7841V97.9091H240.161V99.7841H235.865V111H233.854V99.7841H229.525ZM247.733 111.273C246.551 111.273 245.515 110.991 244.623 110.429C243.736 109.866 243.043 109.08 242.543 108.068C242.049 107.057 241.801 105.875 241.801 104.523C241.801 103.159 242.049 101.969 242.543 100.952C243.043 99.9347 243.736 99.1449 244.623 98.5824C245.515 98.0199 246.551 97.7386 247.733 97.7386C248.915 97.7386 249.949 98.0199 250.836 98.5824C251.728 99.1449 252.421 99.9347 252.915 100.952C253.415 101.969 253.665 103.159 253.665 104.523C253.665 105.875 253.415 107.057 252.915 108.068C252.421 109.08 251.728 109.866 250.836 110.429C249.949 110.991 248.915 111.273 247.733 111.273ZM247.733 109.466C248.631 109.466 249.37 109.236 249.949 108.776C250.529 108.315 250.958 107.71 251.236 106.96C251.515 106.21 251.654 105.398 251.654 104.523C251.654 103.648 251.515 102.832 251.236 102.077C250.958 101.321 250.529 100.71 249.949 100.244C249.37 99.7784 248.631 99.5455 247.733 99.5455C246.836 99.5455 246.097 99.7784 245.517 100.244C244.938 100.71 244.509 101.321 244.23 102.077C243.952 102.832 243.813 103.648 243.813 104.523C243.813 105.398 243.952 106.21 244.23 106.96C244.509 107.71 244.938 108.315 245.517 108.776C246.097 109.236 246.836 109.466 247.733 109.466ZM263.485 111V97.9091H273.781V111H271.77V99.7841H265.497V111H263.485ZM282.772 111.273C281.591 111.273 280.554 110.991 279.662 110.429C278.775 109.866 278.082 109.08 277.582 108.068C277.088 107.057 276.841 105.875 276.841 104.523C276.841 103.159 277.088 101.969 277.582 100.952C278.082 99.9347 278.775 99.1449 279.662 98.5824C280.554 98.0199 281.591 97.7386 282.772 97.7386C283.954 97.7386 284.988 98.0199 285.875 98.5824C286.767 99.1449 287.46 99.9347 287.954 100.952C288.454 101.969 288.704 103.159 288.704 104.523C288.704 105.875 288.454 107.057 287.954 108.068C287.46 109.08 286.767 109.866 285.875 110.429C284.988 110.991 283.954 111.273 282.772 111.273ZM282.772 109.466C283.67 109.466 284.409 109.236 284.988 108.776C285.568 108.315 285.997 107.71 286.275 106.96C286.554 106.21 286.693 105.398 286.693 104.523C286.693 103.648 286.554 102.832 286.275 102.077C285.997 101.321 285.568 100.71 284.988 100.244C284.409 99.7784 283.67 99.5455 282.772 99.5455C281.875 99.5455 281.136 99.7784 280.556 100.244C279.977 100.71 279.548 101.321 279.27 102.077C278.991 102.832 278.852 103.648 278.852 104.523C278.852 105.398 278.991 106.21 279.27 106.96C279.548 107.71 279.977 108.315 280.556 108.776C281.136 109.236 281.875 109.466 282.772 109.466ZM291.775 97.9091H293.786V109.125H298.729V97.9091H300.74V109.125H305.684V97.9091H307.695V111H291.775V97.9091ZM310.209 111V109.125H310.686C311.078 109.125 311.405 109.048 311.667 108.895C311.928 108.736 312.138 108.46 312.297 108.068C312.462 107.67 312.587 107.119 312.672 106.415C312.763 105.705 312.828 104.801 312.868 103.705L313.107 97.9091H321.834V111H319.823V99.7841H315.016L314.811 104.455C314.766 105.528 314.669 106.474 314.522 107.293C314.38 108.105 314.161 108.787 313.865 109.338C313.576 109.889 313.189 110.304 312.706 110.582C312.223 110.861 311.618 111 310.891 111H310.209ZM330.843 111.273C329.661 111.273 328.624 110.991 327.732 110.429C326.846 109.866 326.152 109.08 325.652 108.068C325.158 107.057 324.911 105.875 324.911 104.523C324.911 103.159 325.158 101.969 325.652 100.952C326.152 99.9347 326.846 99.1449 327.732 98.5824C328.624 98.0199 329.661 97.7386 330.843 97.7386C332.025 97.7386 333.059 98.0199 333.945 98.5824C334.837 99.1449 335.53 99.9347 336.025 100.952C336.525 101.969 336.775 103.159 336.775 104.523C336.775 105.875 336.525 107.057 336.025 108.068C335.53 109.08 334.837 109.866 333.945 110.429C333.059 110.991 332.025 111.273 330.843 111.273ZM330.843 109.466C331.74 109.466 332.479 109.236 333.059 108.776C333.638 108.315 334.067 107.71 334.346 106.96C334.624 106.21 334.763 105.398 334.763 104.523C334.763 103.648 334.624 102.832 334.346 102.077C334.067 101.321 333.638 100.71 333.059 100.244C332.479 99.7784 331.74 99.5455 330.843 99.5455C329.945 99.5455 329.206 99.7784 328.627 100.244C328.047 100.71 327.618 101.321 327.34 102.077C327.061 102.832 326.922 103.648 326.922 104.523C326.922 105.398 327.061 106.21 327.34 106.96C327.618 107.71 328.047 108.315 328.627 108.776C329.206 109.236 329.945 109.466 330.843 109.466ZM355.356 103.534V105.409H348.129V103.534H355.356ZM348.606 97.9091V111H346.595V97.9091H348.606ZM356.89 97.9091V111H354.879V97.9091H356.89ZM366.052 111.273C364.791 111.273 363.703 110.994 362.788 110.438C361.879 109.875 361.177 109.091 360.683 108.085C360.194 107.074 359.95 105.898 359.95 104.557C359.95 103.216 360.194 102.034 360.683 101.011C361.177 99.983 361.865 99.1818 362.745 98.608C363.632 98.0284 364.666 97.7386 365.848 97.7386C366.529 97.7386 367.203 97.8523 367.868 98.0795C368.532 98.3068 369.137 98.6761 369.683 99.1875C370.228 99.6932 370.663 100.364 370.987 101.199C371.311 102.034 371.473 103.062 371.473 104.284V105.136H361.382V103.398H369.427C369.427 102.659 369.279 102 368.984 101.42C368.694 100.841 368.279 100.384 367.74 100.048C367.206 99.7131 366.575 99.5455 365.848 99.5455C365.047 99.5455 364.353 99.7443 363.768 100.142C363.189 100.534 362.743 101.045 362.43 101.676C362.118 102.307 361.961 102.983 361.961 103.705V104.864C361.961 105.852 362.132 106.69 362.473 107.378C362.819 108.06 363.299 108.58 363.913 108.938C364.527 109.29 365.24 109.466 366.052 109.466C366.581 109.466 367.058 109.392 367.484 109.244C367.916 109.091 368.288 108.864 368.6 108.562C368.913 108.256 369.154 107.875 369.325 107.42L371.268 107.966C371.064 108.625 370.72 109.205 370.237 109.705C369.754 110.199 369.157 110.585 368.447 110.864C367.737 111.136 366.939 111.273 366.052 111.273ZM380.532 99.7841V97.9091H391.169V99.7841H386.873V111H384.862V99.7841H380.532ZM397.275 111.307C396.446 111.307 395.693 111.151 395.017 110.838C394.341 110.52 393.804 110.062 393.406 109.466C393.008 108.864 392.809 108.136 392.809 107.284C392.809 106.534 392.957 105.926 393.252 105.46C393.548 104.989 393.943 104.619 394.437 104.352C394.931 104.085 395.477 103.886 396.074 103.756C396.676 103.619 397.281 103.511 397.889 103.432C398.684 103.33 399.329 103.253 399.824 103.202C400.324 103.145 400.687 103.051 400.914 102.92C401.147 102.79 401.264 102.562 401.264 102.239V102.17C401.264 101.33 401.034 100.676 400.574 100.21C400.119 99.7443 399.429 99.5114 398.502 99.5114C397.542 99.5114 396.789 99.7216 396.244 100.142C395.699 100.562 395.315 101.011 395.093 101.489L393.184 100.807C393.525 100.011 393.98 99.392 394.548 98.9489C395.122 98.5 395.747 98.1875 396.423 98.0114C397.105 97.8295 397.775 97.7386 398.434 97.7386C398.855 97.7386 399.338 97.7898 399.883 97.892C400.434 97.9886 400.966 98.1903 401.477 98.4972C401.994 98.804 402.423 99.267 402.764 99.8864C403.105 100.506 403.275 101.335 403.275 102.375V111H401.264V109.227H401.162C401.025 109.511 400.798 109.815 400.48 110.139C400.162 110.463 399.738 110.739 399.21 110.966C398.681 111.193 398.037 111.307 397.275 111.307ZM397.582 109.5C398.377 109.5 399.048 109.344 399.593 109.031C400.145 108.719 400.559 108.315 400.838 107.821C401.122 107.327 401.264 106.807 401.264 106.261V104.42C401.179 104.523 400.991 104.616 400.701 104.702C400.417 104.781 400.088 104.852 399.713 104.915C399.343 104.972 398.983 105.023 398.63 105.068C398.284 105.108 398.002 105.142 397.787 105.17C397.264 105.239 396.775 105.349 396.321 105.503C395.872 105.651 395.508 105.875 395.23 106.176C394.957 106.472 394.821 106.875 394.821 107.386C394.821 108.085 395.079 108.614 395.596 108.972C396.119 109.324 396.781 109.5 397.582 109.5ZM406.946 111V97.9091H408.958V103.602H410.287L414.992 97.9091H417.583L412.299 104.216L417.651 111H415.06L410.765 105.477H408.958V111H406.946ZM421.303 111.136C420.882 111.136 420.522 110.986 420.221 110.685C419.919 110.384 419.769 110.023 419.769 109.602C419.769 109.182 419.919 108.821 420.221 108.52C420.522 108.219 420.882 108.068 421.303 108.068C421.723 108.068 422.084 108.219 422.385 108.52C422.686 108.821 422.837 109.182 422.837 109.602C422.837 109.881 422.766 110.136 422.624 110.369C422.488 110.602 422.303 110.79 422.07 110.932C421.843 111.068 421.587 111.136 421.303 111.136ZM427.912 111.136C427.492 111.136 427.131 110.986 426.83 110.685C426.529 110.384 426.378 110.023 426.378 109.602C426.378 109.182 426.529 108.821 426.83 108.52C427.131 108.219 427.492 108.068 427.912 108.068C428.333 108.068 428.694 108.219 428.995 108.52C429.296 108.821 429.446 109.182 429.446 109.602C429.446 109.881 429.375 110.136 429.233 110.369C429.097 110.602 428.912 110.79 428.679 110.932C428.452 111.068 428.196 111.136 427.912 111.136ZM80.9457 140V122.545H87.0479C88.2638 122.545 89.2667 122.756 90.0565 123.176C90.8462 123.591 91.4343 124.151 91.8207 124.855C92.207 125.554 92.4002 126.33 92.4002 127.182C92.4002 127.932 92.2667 128.551 91.9996 129.04C91.7383 129.528 91.3917 129.915 90.9599 130.199C90.5337 130.483 90.0707 130.693 89.5707 130.83V131C90.1048 131.034 90.6417 131.222 91.1815 131.562C91.7212 131.903 92.1729 132.392 92.5366 133.028C92.9002 133.665 93.082 134.443 93.082 135.364C93.082 136.239 92.8832 137.026 92.4854 137.724C92.0877 138.423 91.4599 138.977 90.6019 139.386C89.744 139.795 88.6275 140 87.2525 140H80.9457ZM83.0593 138.125H87.2525C88.6332 138.125 89.6133 137.858 90.1928 137.324C90.7781 136.784 91.0707 136.131 91.0707 135.364C91.0707 134.773 90.9201 134.227 90.619 133.727C90.3178 133.222 89.8888 132.818 89.332 132.517C88.7752 132.21 88.1161 132.057 87.3548 132.057H83.0593V138.125ZM83.0593 130.216H86.9798C87.6161 130.216 88.19 130.091 88.7013 129.841C89.2184 129.591 89.6275 129.239 89.9286 128.784C90.2354 128.33 90.3888 127.795 90.3888 127.182C90.3888 126.415 90.1218 125.764 89.5877 125.23C89.0536 124.69 88.207 124.42 87.0479 124.42H83.0593V130.216ZM98.021 131.648H101.771C103.305 131.648 104.478 132.037 105.291 132.815C106.103 133.594 106.51 134.58 106.51 135.773C106.51 136.557 106.328 137.27 105.964 137.912C105.6 138.548 105.066 139.057 104.362 139.438C103.657 139.812 102.794 140 101.771 140H96.2823V126.909H98.2937V138.125H101.771C102.566 138.125 103.22 137.915 103.731 137.494C104.243 137.074 104.498 136.534 104.498 135.875C104.498 135.182 104.243 134.616 103.731 134.179C103.22 133.741 102.566 133.523 101.771 133.523H98.021V131.648ZM108.589 140V126.909H110.6V140H108.589ZM129.794 132.534V134.409H122.566V132.534H129.794ZM123.044 126.909V140H121.032V126.909H123.044ZM131.328 126.909V140H129.316V126.909H131.328ZM140.49 140.273C139.228 140.273 138.14 139.994 137.225 139.438C136.316 138.875 135.615 138.091 135.12 137.085C134.632 136.074 134.387 134.898 134.387 133.557C134.387 132.216 134.632 131.034 135.12 130.011C135.615 128.983 136.302 128.182 137.183 127.608C138.069 127.028 139.103 126.739 140.285 126.739C140.967 126.739 141.64 126.852 142.305 127.08C142.97 127.307 143.575 127.676 144.12 128.188C144.666 128.693 145.1 129.364 145.424 130.199C145.748 131.034 145.91 132.062 145.91 133.284V134.136H135.819V132.398H143.865C143.865 131.659 143.717 131 143.422 130.42C143.132 129.841 142.717 129.384 142.177 129.048C141.643 128.713 141.012 128.545 140.285 128.545C139.484 128.545 138.791 128.744 138.206 129.142C137.626 129.534 137.18 130.045 136.868 130.676C136.555 131.307 136.399 131.983 136.399 132.705V133.864C136.399 134.852 136.569 135.69 136.91 136.378C137.257 137.06 137.737 137.58 138.35 137.938C138.964 138.29 139.677 138.466 140.49 138.466C141.018 138.466 141.495 138.392 141.922 138.244C142.353 138.091 142.725 137.864 143.038 137.562C143.35 137.256 143.592 136.875 143.762 136.42L145.706 136.966C145.501 137.625 145.157 138.205 144.674 138.705C144.191 139.199 143.595 139.585 142.885 139.864C142.174 140.136 141.376 140.273 140.49 140.273ZM161.038 140.273C159.811 140.273 158.754 139.983 157.868 139.403C156.981 138.824 156.299 138.026 155.822 137.009C155.345 135.991 155.106 134.83 155.106 133.523C155.106 132.193 155.35 131.02 155.839 130.003C156.333 128.98 157.021 128.182 157.902 127.608C158.788 127.028 159.822 126.739 161.004 126.739C161.924 126.739 162.754 126.909 163.493 127.25C164.231 127.591 164.836 128.068 165.308 128.682C165.779 129.295 166.072 130.011 166.186 130.83H164.174C164.021 130.233 163.68 129.705 163.152 129.244C162.629 128.778 161.924 128.545 161.038 128.545C160.254 128.545 159.566 128.75 158.975 129.159C158.39 129.562 157.933 130.134 157.603 130.872C157.279 131.605 157.118 132.466 157.118 133.455C157.118 134.466 157.277 135.347 157.595 136.097C157.919 136.847 158.373 137.429 158.958 137.844C159.549 138.259 160.243 138.466 161.038 138.466C161.561 138.466 162.035 138.375 162.461 138.193C162.887 138.011 163.248 137.75 163.544 137.409C163.839 137.068 164.049 136.659 164.174 136.182H166.186C166.072 136.955 165.791 137.651 165.342 138.27C164.899 138.884 164.311 139.372 163.578 139.736C162.85 140.094 162.004 140.273 161.038 140.273ZM176.285 137.273L180.853 126.909H182.762L177.103 140H175.467L169.91 126.909H171.785L176.285 137.273ZM171.137 126.909V140H169.126V126.909H171.137ZM181.433 140V126.909H183.444V140H181.433ZM192.444 140.273C191.262 140.273 190.225 139.991 189.333 139.429C188.447 138.866 187.754 138.08 187.254 137.068C186.76 136.057 186.512 134.875 186.512 133.523C186.512 132.159 186.76 130.969 187.254 129.952C187.754 128.935 188.447 128.145 189.333 127.582C190.225 127.02 191.262 126.739 192.444 126.739C193.626 126.739 194.66 127.02 195.547 127.582C196.439 128.145 197.132 128.935 197.626 129.952C198.126 130.969 198.376 132.159 198.376 133.523C198.376 134.875 198.126 136.057 197.626 137.068C197.132 138.08 196.439 138.866 195.547 139.429C194.66 139.991 193.626 140.273 192.444 140.273ZM192.444 138.466C193.342 138.466 194.081 138.236 194.66 137.776C195.24 137.315 195.669 136.71 195.947 135.96C196.225 135.21 196.365 134.398 196.365 133.523C196.365 132.648 196.225 131.832 195.947 131.077C195.669 130.321 195.24 129.71 194.66 129.244C194.081 128.778 193.342 128.545 192.444 128.545C191.547 128.545 190.808 128.778 190.228 129.244C189.649 129.71 189.22 130.321 188.941 131.077C188.663 131.832 188.524 132.648 188.524 133.523C188.524 134.398 188.663 135.21 188.941 135.96C189.22 136.71 189.649 137.315 190.228 137.776C190.808 138.236 191.547 138.466 192.444 138.466ZM209.526 126.909V128.784H203.458V140H201.446V126.909H209.526ZM210.201 140V138.125H210.679C211.071 138.125 211.397 138.048 211.659 137.895C211.92 137.736 212.13 137.46 212.289 137.068C212.454 136.67 212.579 136.119 212.664 135.415C212.755 134.705 212.821 133.801 212.86 132.705L213.099 126.909H221.826V140H219.815V128.784H215.008L214.804 133.455C214.758 134.528 214.662 135.474 214.514 136.293C214.372 137.105 214.153 137.787 213.858 138.338C213.568 138.889 213.181 139.304 212.699 139.582C212.216 139.861 211.61 140 210.883 140H210.201ZM227.528 137.034L233.835 126.909H236.153V140H234.142V129.875L227.869 140H225.517V126.909H227.528V137.034ZM251.905 140.273C250.723 140.273 249.686 139.991 248.794 139.429C247.908 138.866 247.215 138.08 246.715 137.068C246.221 136.057 245.973 134.875 245.973 133.523C245.973 132.159 246.221 130.969 246.715 129.952C247.215 128.935 247.908 128.145 248.794 127.582C249.686 127.02 250.723 126.739 251.905 126.739C253.087 126.739 254.121 127.02 255.007 127.582C255.9 128.145 256.593 128.935 257.087 129.952C257.587 130.969 257.837 132.159 257.837 133.523C257.837 134.875 257.587 136.057 257.087 137.068C256.593 138.08 255.9 138.866 255.007 139.429C254.121 139.991 253.087 140.273 251.905 140.273ZM251.905 138.466C252.803 138.466 253.542 138.236 254.121 137.776C254.701 137.315 255.13 136.71 255.408 135.96C255.686 135.21 255.826 134.398 255.826 133.523C255.826 132.648 255.686 131.832 255.408 131.077C255.13 130.321 254.701 129.71 254.121 129.244C253.542 128.778 252.803 128.545 251.905 128.545C251.007 128.545 250.269 128.778 249.689 129.244C249.11 129.71 248.681 130.321 248.402 131.077C248.124 131.832 247.985 132.648 247.985 133.523C247.985 134.398 248.124 135.21 248.402 135.96C248.681 136.71 249.11 137.315 249.689 137.776C250.269 138.236 251.007 138.466 251.905 138.466ZM270.623 122L271.646 123.227C271.248 123.614 270.788 123.884 270.265 124.037C269.743 124.19 269.152 124.284 268.493 124.318C267.833 124.352 267.1 124.386 266.294 124.42C265.385 124.455 264.632 124.676 264.035 125.085C263.439 125.494 262.978 126.085 262.654 126.858C262.331 127.631 262.123 128.58 262.032 129.705H262.203C262.646 128.886 263.26 128.284 264.044 127.898C264.828 127.511 265.669 127.318 266.566 127.318C267.589 127.318 268.51 127.557 269.328 128.034C270.146 128.511 270.794 129.219 271.271 130.156C271.748 131.094 271.987 132.25 271.987 133.625C271.987 134.994 271.743 136.176 271.254 137.17C270.771 138.165 270.092 138.932 269.217 139.472C268.348 140.006 267.328 140.273 266.157 140.273C264.987 140.273 263.961 139.997 263.081 139.446C262.2 138.889 261.515 138.065 261.027 136.974C260.538 135.878 260.294 134.523 260.294 132.909V131.511C260.294 128.597 260.788 126.386 261.777 124.881C262.771 123.375 264.265 122.597 266.26 122.545C266.964 122.523 267.592 122.517 268.143 122.528C268.694 122.54 269.174 122.514 269.583 122.452C269.993 122.389 270.339 122.239 270.623 122ZM266.157 138.466C266.947 138.466 267.626 138.267 268.194 137.869C268.768 137.472 269.208 136.912 269.515 136.19C269.822 135.463 269.975 134.608 269.975 133.625C269.975 132.67 269.819 131.858 269.507 131.188C269.2 130.517 268.76 130.006 268.186 129.653C267.612 129.301 266.924 129.125 266.123 129.125C265.538 129.125 265.012 129.224 264.547 129.423C264.081 129.622 263.683 129.915 263.353 130.301C263.024 130.687 262.768 131.159 262.586 131.716C262.41 132.273 262.316 132.909 262.305 133.625C262.305 135.091 262.649 136.264 263.336 137.145C264.024 138.026 264.964 138.466 266.157 138.466ZM283.825 132.534V134.409H276.598V132.534H283.825ZM277.075 126.909V140H275.064V126.909H277.075ZM285.359 126.909V140H283.348V126.909H285.359ZM294.35 140.273C293.169 140.273 292.132 139.991 291.24 139.429C290.353 138.866 289.66 138.08 289.16 137.068C288.666 136.057 288.419 134.875 288.419 133.523C288.419 132.159 288.666 130.969 289.16 129.952C289.66 128.935 290.353 128.145 291.24 127.582C292.132 127.02 293.169 126.739 294.35 126.739C295.532 126.739 296.566 127.02 297.453 127.582C298.345 128.145 299.038 128.935 299.532 129.952C300.032 130.969 300.282 132.159 300.282 133.523C300.282 134.875 300.032 136.057 299.532 137.068C299.038 138.08 298.345 138.866 297.453 139.429C296.566 139.991 295.532 140.273 294.35 140.273ZM294.35 138.466C295.248 138.466 295.987 138.236 296.566 137.776C297.146 137.315 297.575 136.71 297.853 135.96C298.132 135.21 298.271 134.398 298.271 133.523C298.271 132.648 298.132 131.832 297.853 131.077C297.575 130.321 297.146 129.71 296.566 129.244C295.987 128.778 295.248 128.545 294.35 128.545C293.453 128.545 292.714 128.778 292.135 129.244C291.555 129.71 291.126 130.321 290.848 131.077C290.569 131.832 290.43 132.648 290.43 133.523C290.43 134.398 290.569 135.21 290.848 135.96C291.126 136.71 291.555 137.315 292.135 137.776C292.714 138.236 293.453 138.466 294.35 138.466ZM303.353 140V126.909H308.705C310.114 126.909 311.233 127.227 312.063 127.864C312.892 128.5 313.307 129.341 313.307 130.386C313.307 131.182 313.071 131.798 312.6 132.236C312.128 132.668 311.523 132.96 310.784 133.114C311.267 133.182 311.736 133.352 312.191 133.625C312.651 133.898 313.032 134.273 313.333 134.75C313.634 135.222 313.784 135.801 313.784 136.489C313.784 137.159 313.614 137.759 313.273 138.287C312.932 138.815 312.444 139.233 311.807 139.54C311.171 139.847 310.409 140 309.523 140H303.353ZM305.262 138.159H309.523C310.216 138.159 310.759 137.994 311.151 137.665C311.543 137.335 311.739 136.886 311.739 136.318C311.739 135.642 311.543 135.111 311.151 134.724C310.759 134.332 310.216 134.136 309.523 134.136H305.262V138.159ZM305.262 132.398H308.705C309.245 132.398 309.708 132.324 310.094 132.176C310.48 132.023 310.776 131.807 310.98 131.528C311.191 131.244 311.296 130.909 311.296 130.523C311.296 129.972 311.066 129.54 310.605 129.227C310.145 128.909 309.512 128.75 308.705 128.75H305.262V132.398ZM318.841 137.034L325.147 126.909H327.466V140H325.454V129.875L319.181 140H316.829V126.909H318.841V137.034ZM329.368 128.784V126.909H340.005V128.784H335.709V140H333.698V128.784H329.368ZM344.677 131.648H348.427C349.961 131.648 351.135 132.037 351.947 132.815C352.76 133.594 353.166 134.58 353.166 135.773C353.166 136.557 352.984 137.27 352.62 137.912C352.257 138.548 351.723 139.057 351.018 139.438C350.314 139.812 349.45 140 348.427 140H342.939V126.909H344.95V138.125H348.427C349.223 138.125 349.876 137.915 350.387 137.494C350.899 137.074 351.154 136.534 351.154 135.875C351.154 135.182 350.899 134.616 350.387 134.179C349.876 133.741 349.223 133.523 348.427 133.523H344.677V131.648ZM362.159 136.659H364.307C364.353 137.25 364.62 137.699 365.108 138.006C365.603 138.312 366.245 138.466 367.034 138.466C367.841 138.466 368.532 138.301 369.105 137.972C369.679 137.636 369.966 137.097 369.966 136.352C369.966 135.915 369.858 135.534 369.642 135.21C369.426 134.881 369.123 134.625 368.73 134.443C368.338 134.261 367.875 134.17 367.341 134.17H365.091V132.364H367.341C368.142 132.364 368.733 132.182 369.114 131.818C369.5 131.455 369.694 131 369.694 130.455C369.694 129.869 369.486 129.401 369.071 129.048C368.657 128.69 368.069 128.511 367.307 128.511C366.54 128.511 365.901 128.685 365.39 129.031C364.878 129.372 364.608 129.812 364.58 130.352H362.466C362.489 129.648 362.705 129.026 363.114 128.486C363.523 127.94 364.08 127.514 364.784 127.207C365.489 126.895 366.296 126.739 367.205 126.739C368.125 126.739 368.924 126.901 369.6 127.224C370.282 127.543 370.807 127.977 371.176 128.528C371.551 129.074 371.739 129.693 371.739 130.386C371.739 131.125 371.532 131.722 371.117 132.176C370.702 132.631 370.182 132.955 369.557 133.148V133.284C370.051 133.318 370.48 133.477 370.844 133.761C371.213 134.04 371.5 134.406 371.705 134.861C371.909 135.31 372.012 135.807 372.012 136.352C372.012 137.148 371.799 137.841 371.373 138.432C370.946 139.017 370.361 139.472 369.617 139.795C368.873 140.114 368.023 140.273 367.069 140.273C366.142 140.273 365.313 140.122 364.58 139.821C363.847 139.514 363.265 139.091 362.833 138.551C362.407 138.006 362.182 137.375 362.159 136.659ZM378.689 140.307C377.86 140.307 377.107 140.151 376.431 139.838C375.755 139.52 375.218 139.062 374.82 138.466C374.422 137.864 374.223 137.136 374.223 136.284C374.223 135.534 374.371 134.926 374.667 134.46C374.962 133.989 375.357 133.619 375.851 133.352C376.346 133.085 376.891 132.886 377.488 132.756C378.09 132.619 378.695 132.511 379.303 132.432C380.098 132.33 380.743 132.253 381.238 132.202C381.738 132.145 382.101 132.051 382.328 131.92C382.561 131.79 382.678 131.562 382.678 131.239V131.17C382.678 130.33 382.448 129.676 381.988 129.21C381.533 128.744 380.843 128.511 379.917 128.511C378.956 128.511 378.203 128.722 377.658 129.142C377.113 129.562 376.729 130.011 376.507 130.489L374.598 129.807C374.939 129.011 375.394 128.392 375.962 127.949C376.536 127.5 377.161 127.187 377.837 127.011C378.519 126.83 379.189 126.739 379.848 126.739C380.269 126.739 380.752 126.79 381.297 126.892C381.848 126.989 382.38 127.19 382.891 127.497C383.408 127.804 383.837 128.267 384.178 128.886C384.519 129.506 384.689 130.335 384.689 131.375V140H382.678V138.227H382.576C382.439 138.511 382.212 138.815 381.894 139.139C381.576 139.463 381.152 139.739 380.624 139.966C380.096 140.193 379.451 140.307 378.689 140.307ZM378.996 138.5C379.792 138.5 380.462 138.344 381.007 138.031C381.559 137.719 381.973 137.315 382.252 136.821C382.536 136.327 382.678 135.807 382.678 135.261V133.42C382.593 133.523 382.405 133.616 382.115 133.702C381.831 133.781 381.502 133.852 381.127 133.915C380.757 133.972 380.397 134.023 380.044 134.068C379.698 134.108 379.417 134.142 379.201 134.17C378.678 134.239 378.189 134.349 377.735 134.503C377.286 134.651 376.922 134.875 376.644 135.176C376.371 135.472 376.235 135.875 376.235 136.386C376.235 137.085 376.493 137.614 377.01 137.972C377.533 138.324 378.195 138.5 378.996 138.5ZM388.36 140V126.909H393.713C395.122 126.909 396.241 127.227 397.071 127.864C397.9 128.5 398.315 129.341 398.315 130.386C398.315 131.182 398.079 131.798 397.608 132.236C397.136 132.668 396.531 132.96 395.792 133.114C396.275 133.182 396.744 133.352 397.199 133.625C397.659 133.898 398.039 134.273 398.341 134.75C398.642 135.222 398.792 135.801 398.792 136.489C398.792 137.159 398.622 137.759 398.281 138.287C397.94 138.815 397.451 139.233 396.815 139.54C396.179 139.847 395.417 140 394.531 140H388.36ZM390.27 138.159H394.531C395.224 138.159 395.767 137.994 396.159 137.665C396.551 137.335 396.747 136.886 396.747 136.318C396.747 135.642 396.551 135.111 396.159 134.724C395.767 134.332 395.224 134.136 394.531 134.136H390.27V138.159ZM390.27 132.398H393.713C394.252 132.398 394.716 132.324 395.102 132.176C395.488 132.023 395.784 131.807 395.988 131.528C396.199 131.244 396.304 130.909 396.304 130.523C396.304 129.972 396.074 129.54 395.613 129.227C395.153 128.909 394.52 128.75 393.713 128.75H390.27V132.398ZM407.326 140.273C406.064 140.273 404.976 139.994 404.061 139.438C403.152 138.875 402.451 138.091 401.956 137.085C401.468 136.074 401.223 134.898 401.223 133.557C401.223 132.216 401.468 131.034 401.956 130.011C402.451 128.983 403.138 128.182 404.019 127.608C404.905 127.028 405.939 126.739 407.121 126.739C407.803 126.739 408.476 126.852 409.141 127.08C409.806 127.307 410.411 127.676 410.956 128.188C411.502 128.693 411.936 129.364 412.26 130.199C412.584 131.034 412.746 132.062 412.746 133.284V134.136H402.655V132.398H410.701C410.701 131.659 410.553 131 410.257 130.42C409.968 129.841 409.553 129.384 409.013 129.048C408.479 128.713 407.848 128.545 407.121 128.545C406.32 128.545 405.627 128.744 405.042 129.142C404.462 129.534 404.016 130.045 403.703 130.676C403.391 131.307 403.235 131.983 403.235 132.705V133.864C403.235 134.852 403.405 135.69 403.746 136.378C404.093 137.06 404.573 137.58 405.186 137.938C405.8 138.29 406.513 138.466 407.326 138.466C407.854 138.466 408.331 138.392 408.757 138.244C409.189 138.091 409.561 137.864 409.874 137.562C410.186 137.256 410.428 136.875 410.598 136.42L412.542 136.966C412.337 137.625 411.993 138.205 411.51 138.705C411.027 139.199 410.431 139.585 409.721 139.864C409.01 140.136 408.212 140.273 407.326 140.273ZM414.408 143.75V138.125H415.499C415.766 137.847 415.996 137.545 416.189 137.222C416.382 136.898 416.55 136.514 416.692 136.071C416.84 135.622 416.965 135.077 417.067 134.435C417.169 133.787 417.26 133.006 417.34 132.091L417.783 126.909H426.101V138.125H428.113V143.75H426.101V140H416.419V143.75H414.408ZM417.783 138.125H424.09V128.784H419.658L419.317 132.091C419.175 133.46 418.999 134.656 418.789 135.679C418.578 136.702 418.243 137.517 417.783 138.125ZM436.271 140.273C435.01 140.273 433.922 139.994 433.007 139.438C432.098 138.875 431.396 138.091 430.902 137.085C430.413 136.074 430.169 134.898 430.169 133.557C430.169 132.216 430.413 131.034 430.902 130.011C431.396 128.983 432.083 128.182 432.964 127.608C433.85 127.028 434.885 126.739 436.066 126.739C436.748 126.739 437.422 126.852 438.086 127.08C438.751 127.307 439.356 127.676 439.902 128.188C440.447 128.693 440.882 129.364 441.206 130.199C441.529 131.034 441.691 132.062 441.691 133.284V134.136H431.6V132.398H439.646C439.646 131.659 439.498 131 439.203 130.42C438.913 129.841 438.498 129.384 437.958 129.048C437.424 128.713 436.794 128.545 436.066 128.545C435.265 128.545 434.572 128.744 433.987 129.142C433.407 129.534 432.961 130.045 432.649 130.676C432.336 131.307 432.18 131.983 432.18 132.705V133.864C432.18 134.852 432.35 135.69 432.691 136.378C433.038 137.06 433.518 137.58 434.132 137.938C434.745 138.29 435.458 138.466 436.271 138.466C436.799 138.466 437.277 138.392 437.703 138.244C438.135 138.091 438.507 137.864 438.819 137.562C439.132 137.256 439.373 136.875 439.544 136.42L441.487 136.966C441.282 137.625 440.939 138.205 440.456 138.705C439.973 139.199 439.376 139.585 438.666 139.864C437.956 140.136 437.157 140.273 436.271 140.273ZM453.512 132.534V134.409H446.285V132.534H453.512ZM446.762 126.909V140H444.751V126.909H446.762ZM455.047 126.909V140H453.035V126.909H455.047ZM460.731 137.034L467.038 126.909H469.356V140H467.345V129.875L461.072 140H458.72V126.909H460.731V137.034ZM478.529 140.273C477.267 140.273 476.179 139.994 475.265 139.438C474.355 138.875 473.654 138.091 473.159 137.085C472.671 136.074 472.426 134.898 472.426 133.557C472.426 132.216 472.671 131.034 473.159 130.011C473.654 128.983 474.341 128.182 475.222 127.608C476.108 127.028 477.142 126.739 478.324 126.739C479.006 126.739 479.679 126.852 480.344 127.08C481.009 127.307 481.614 127.676 482.159 128.188C482.705 128.693 483.14 129.364 483.463 130.199C483.787 131.034 483.949 132.062 483.949 133.284V134.136H473.858V132.398H481.904C481.904 131.659 481.756 131 481.461 130.42C481.171 129.841 480.756 129.384 480.216 129.048C479.682 128.713 479.051 128.545 478.324 128.545C477.523 128.545 476.83 128.744 476.245 129.142C475.665 129.534 475.219 130.045 474.907 130.676C474.594 131.307 474.438 131.983 474.438 132.705V133.864C474.438 134.852 474.608 135.69 474.949 136.378C475.296 137.06 475.776 137.58 476.39 137.938C477.003 138.29 477.716 138.466 478.529 138.466C479.057 138.466 479.534 138.392 479.961 138.244C480.392 138.091 480.765 137.864 481.077 137.562C481.39 137.256 481.631 136.875 481.801 136.42L483.745 136.966C483.54 137.625 483.196 138.205 482.713 138.705C482.23 139.199 481.634 139.585 480.924 139.864C480.213 140.136 479.415 140.273 478.529 140.273Z" fill="black"/>
<rect x="262" y="206.355" width="50" height="6" transform="rotate(-45 262 206.355)" fill="#FF0000"/>
<rect x="266.443" y="171.201" width="50" height="6" transform="rotate(45 266.443 171.201)" fill="#FF0000"/>
<defs>
<filter id="filter0_d_1608_662" x="0" y="0" width="563" height="300" filterUnits="userSpaceOnUse" color-interpolation-filters="sRGB">
<feFlood flood-opacity="0" result="BackgroundImageFix"/>
<feColorMatrix in="SourceAlpha" type="matrix" values="0 0 0 0 0 0 0 0 0 0 0 0 0 0 0 0 0 0 127 0" result="hardAlpha"/>
<feOffset dy="4"/>
<feGaussianBlur stdDeviation="2"/>
<feComposite in2="hardAlpha" operator="out"/>
<feColorMatrix type="matrix" values="0 0 0 0 0 0 0 0 0 0 0 0 0 0 0 0 0 0 0.25 0"/>
<feBlend mode="normal" in2="BackgroundImageFix" result="effect1_dropShadow_1608_662"/>
<feBlend mode="normal" in="SourceGraphic" in2="effect1_dropShadow_1608_662" result="shape"/>
</filter>
</defs>
</svg>
