<svg width="18" height="20" viewBox="0 0 18 20" fill="none" xmlns="http://www.w3.org/2000/svg">
<path d="M1 8.11013C1 4.05632 2.48463 2.95396 5.44499 2.79395" stroke="#292D32" stroke-width="2" stroke-miterlimit="10" stroke-linecap="round" stroke-linejoin="round"/>
<path d="M10.779 18.7809H6.33398C1.889 18.7809 1 17.0029 1 13.4469V11.6689" stroke="#292D32" stroke-width="2" stroke-miterlimit="10" stroke-linecap="round" stroke-linejoin="round"/>
<path d="M12.5527 2.79395C15.5131 2.95396 16.9977 4.04743 16.9977 8.11013V12.5551" stroke="#292D32" stroke-width="2" stroke-miterlimit="10" stroke-linecap="round" stroke-linejoin="round"/>
<path d="M8.11584 1H7.26241C6.37337 1 5.48438 1 5.48438 2.77799C5.48438 4.55599 6.37337 4.55599 7.26241 4.55599H10.8184C12.5964 4.55599 12.5964 3.66699 12.5964 2.77799C12.5964 1 11.7074 1 10.8184 1" stroke="#292D32" stroke-width="2" stroke-miterlimit="10" stroke-linecap="round" stroke-linejoin="round"/>
<path d="M11.6699 16.1133V13.4463H14.3369" stroke="#292D32" stroke-width="2" stroke-miterlimit="10" stroke-linecap="round" stroke-linejoin="round"/>
<path d="M17.0016 18.7808L11.7031 13.4824" stroke="#292D32" stroke-width="2" stroke-miterlimit="10" stroke-linecap="round" stroke-linejoin="round"/>
</svg>
