<svg width="27" height="27" viewBox="0 0 27 27" fill="none" xmlns="http://www.w3.org/2000/svg">
<path d="M13.5 27C6.05302 27 0 20.947 0 13.5C0 6.05302 6.05302 0 13.5 0C20.947 0 27 6.05302 27 13.5C27 20.947 20.947 27 13.5 27ZM13.5 1.88372C7.09535 1.88372 1.88372 7.09535 1.88372 13.5C1.88372 19.9047 7.09535 25.1163 13.5 25.1163C19.9047 25.1163 25.1163 19.9047 25.1163 13.5C25.1163 7.09535 19.9047 1.88372 13.5 1.88372Z" fill="#292D32"/>
<path d="M18.1819 18.4377C18.0187 18.4377 17.8554 18.4 17.7047 18.2995L13.8117 15.9763C12.8447 15.3986 12.1289 14.1302 12.1289 13.0126V7.86374C12.1289 7.34885 12.5559 6.92188 13.0708 6.92188C13.5857 6.92188 14.0126 7.34885 14.0126 7.86374V13.0126C14.0126 13.4647 14.3894 14.1302 14.7787 14.3563L18.6717 16.6795C19.1238 16.9433 19.2619 17.5209 18.9982 17.973C18.8098 18.2744 18.4959 18.4377 18.1819 18.4377Z" fill="#292D32"/>
</svg>
